<svg width="424" height="435" viewBox="0 0 424 435" fill="none" xmlns="http://www.w3.org/2000/svg">
<path d="M-97.9058 25.0433L-98.1475 24.073L-98.1945 24.0847L-98.2402 24.1009L-97.9058 25.0433ZM-89.8487 24.865L-90.1723 25.8112L-89.8487 24.865ZM-59.8496 16.0468L-60.3297 16.924L-59.8496 16.0468ZM-49.9268 12.7105L-49.9789 11.7119L-49.9268 12.7105ZM-39.8426 9.6701L-40.7105 9.17324L-39.8426 9.6701ZM-19.1571 7.02268L-18.5278 6.24555L-19.1571 7.02268ZM-8.81946 4.48078L-7.95801 4.98863L-8.81946 4.48078ZM1.59993 4.82539L0.834122 5.46845L1.59993 4.82539ZM6.91502 4.91942L7.67995 5.56354L6.91502 4.91942ZM27.6346 7.0511L26.9559 6.31667L27.6346 7.0511ZM32.5893 7.93746L31.7022 8.39899L32.5893 7.93746ZM38.197 7.65738L38.9297 8.33789L38.197 7.65738ZM42.9699 9.03934L43.95 8.84063L42.9699 9.03934ZM57.9297 14.5411L58.3275 13.6237L57.9297 14.5411ZM61.2202 18.9313L60.2509 19.177L61.2202 18.9313ZM63.6277 24.1884L62.851 24.8182L63.6277 24.1884ZM73.5473 28.2566L72.6004 27.9351L73.5473 28.2566ZM75.7711 33.5049L75.9147 32.5153L75.7711 33.5049ZM77.7256 37.7638L76.8323 37.3145L77.7256 37.7638ZM78.8621 47.8916L79.8553 47.7755L78.8621 47.8916ZM80.5714 52.6116L79.7187 53.134L80.5714 52.6116ZM84.4801 57.5933L83.7502 58.2768L84.4801 57.5933ZM81.3398 83.7789L80.6441 83.0605L81.3398 83.7789ZM75.7205 87.5045L76.1445 88.4102L75.7205 87.5045ZM72.4077 97.3944L71.5921 96.8158L72.4077 97.3944ZM68.8368 107.232L69.8129 107.449L68.8368 107.232ZM67.3793 117.898L67.9524 118.717L67.3793 117.898ZM65.4631 122.745L64.4888 122.971L65.4631 122.745ZM62.3857 127.297L62.7617 128.223L62.3857 127.297ZM59.5152 131.879L58.5565 132.163L59.5152 131.879ZM56.2458 142.106L57.2421 142.02L56.2458 142.106ZM56.9271 147.686L57.9148 147.53L56.9271 147.686ZM55.1439 152.984L55.8956 153.644L55.1439 152.984ZM55.0539 158.255L55.8433 157.641L55.0539 158.255ZM56.0526 163.812L55.1248 163.439L56.0526 163.812ZM61.0132 179.083L60.0135 179.107L61.0132 179.083ZM62.8423 184.101L63.6086 183.459L62.8423 184.101ZM74.1936 195.799L73.2186 196.021L74.1936 195.799ZM83.4656 200.602L83.2816 201.585L83.4656 200.602ZM88.9182 200.644L88.7558 199.657L88.9182 200.644ZM93.7351 203.218L94.5658 202.662L93.7351 203.218ZM103.82 203.246L103.38 202.348L103.82 203.246ZM108.893 201.889L108.937 202.888L108.893 201.889ZM123.821 198.736L124.062 199.707L123.821 198.736ZM129.538 199.77L129.994 198.879L129.538 199.77ZM134.438 198.134L135.329 198.587L134.438 198.134ZM139.166 195.673L139.426 194.708L139.166 195.673ZM145.436 197.603L145.761 196.658L145.436 197.603ZM179.517 184.387L179.76 185.357L179.517 184.387ZM184.548 183.152L184.314 182.18L184.548 183.152ZM189.811 183.281L189.553 184.247L189.811 183.281ZM199.331 176.533L199.377 175.534L199.331 176.533ZM204.656 178.538L204.072 179.349L204.656 178.538ZM210.167 177.824L210.834 178.569L210.167 177.824ZM229.014 185.458L230.014 185.468L229.014 185.458ZM233.436 188.872L233.752 189.821L233.436 188.872ZM240.215 189.099L239.619 189.902L240.215 189.099ZM244.171 193.097L243.36 193.682L244.171 193.097ZM247.81 197.499L247.081 198.184L247.81 197.499ZM249.609 202.812L250.607 202.872L249.609 202.812ZM250.848 208.424L249.987 208.934L250.848 208.424ZM249.054 214.1L248.343 213.397L249.054 214.1ZM248.625 219.606L249.251 218.826L248.625 219.606ZM250.126 240.279L250.933 239.688L250.126 240.279ZM246.689 250.135L247.319 250.911L246.689 250.135ZM244.66 260.505L244.92 261.47L244.66 260.505ZM240.598 264.659L239.608 264.803L240.598 264.659ZM239.981 270.009L240.898 270.408L239.981 270.009ZM239.334 275.379L238.343 275.513L239.334 275.379ZM236.13 279.766L236.497 280.696L236.13 279.766ZM234.482 290.304L235.417 289.95L234.482 290.304ZM231.189 294.737L230.93 293.771L231.189 294.737ZM227.196 304.348L226.473 305.038L227.196 304.348ZM226.568 309.765L226.935 310.695L226.568 309.765ZM224.897 314.59L224.117 315.217L224.897 314.59ZM226.392 320.187L227.311 320.582L226.392 320.187ZM225.41 335.5L224.547 334.995L225.41 335.5ZM226.271 340.291L226.896 339.51L226.271 340.291ZM231.626 349.048L230.628 349.106L231.626 349.048ZM230.882 355.688L231.857 355.91L230.882 355.688ZM232.61 361.013L233.073 360.126L232.61 361.013ZM236.599 365.103L235.705 365.551L236.599 365.103ZM240.847 368.617L240.581 369.581L240.847 368.617ZM256.401 374.473L256.373 373.474L256.401 374.473ZM267.063 373.861L266.209 373.341L267.063 373.861ZM272.402 370.597L271.941 371.484L272.402 370.597ZM277.845 373.878L278.405 373.049L277.845 373.878ZM282.943 373.298L282.188 372.642L282.943 373.298ZM287.635 370.063L287.904 371.025L287.635 370.063ZM301.934 363.793L301.983 362.794L301.934 363.793ZM338.54 357.6L339.083 358.44L338.54 357.6ZM363.305 350.469L364.07 351.112L363.305 350.469ZM368.289 348.486L367.99 349.44L368.289 348.486ZM373.699 348.354L373.375 347.408L373.699 348.354ZM389.178 352.526L389.065 351.533L389.178 352.526ZM394.006 354.656L394.847 354.115L394.006 354.656ZM396.683 359.86L397.613 359.492L396.683 359.86ZM409.444 370.1L409.714 369.137L409.444 370.1ZM410.128 381.561L410.576 380.667L410.128 381.561ZM419.109 400.379L418.31 399.777L419.109 400.379ZM419.917 405.732L420.502 404.921L419.917 405.732ZM418.667 416.312L417.681 416.475L418.667 416.312ZM422.897 432.097L423.888 431.967L422.897 432.097ZM419.312 442.47L418.533 443.096L419.312 442.47ZM419.106 447.675L419.796 448.399L419.106 447.675ZM415.274 468.341L414.278 468.439L415.274 468.341ZM414.101 473.437L413.245 472.919L414.101 473.437ZM413.707 478.728L412.767 479.066L413.707 478.728ZM413.453 484.027L412.575 483.549L413.453 484.027ZM411.709 489.012L410.723 488.845L411.709 489.012ZM403.027 513.817L402.034 513.936L403.027 513.817ZM402.07 519.012L402.941 519.503L402.07 519.012ZM400.211 523.772L399.236 523.551L399.235 523.555L400.211 523.772ZM399.691 526.122L400.633 526.455L400.654 526.398L400.667 526.338L399.691 526.122ZM-98 25.0768L-97.6656 26.0192L-97.5714 25.9857L-97.9058 25.0433L-98.2402 24.1009L-98.3344 24.1343L-98 25.0768ZM-97.9058 25.0433L-97.664 26.0137C-94.4453 25.2117 -91.9771 25.194 -90.1723 25.8112L-89.8487 24.865L-89.5251 23.9189C-91.8459 23.1251 -94.749 23.2263 -98.1475 24.073L-97.9058 25.0433ZM-89.8487 24.865L-90.1723 25.8112C-89.0121 26.208 -87.882 26.3283 -86.8096 26.1056C-85.7301 25.8814 -84.7836 25.3247 -83.9754 24.4898L-84.694 23.7943L-85.4125 23.0988C-85.9781 23.6832 -86.5775 24.0147 -87.2163 24.1474C-87.8622 24.2815 -88.6225 24.2275 -89.5251 23.9189L-89.8487 24.865ZM-84.694 23.7943L-83.9754 24.4898C-82.7736 23.2481 -81.4265 22.6677 -79.8939 22.6705L-79.892 21.6705L-79.8901 20.6705C-82.0126 20.6666 -83.8669 21.502 -85.4125 23.0988L-84.694 23.7943ZM-79.892 21.6705L-79.8939 22.6705C-77.9553 22.6742 -76.1099 22.3608 -74.3647 21.7248L-74.7071 20.7852L-75.0495 19.8457C-76.5623 20.397 -78.1735 20.6738 -79.8901 20.6705L-79.892 21.6705ZM-74.7071 20.7852L-74.3647 21.7248C-72.5331 21.0573 -70.9034 19.8139 -69.4651 18.0621L-70.238 17.4276L-71.0109 16.793C-72.2734 18.3308 -73.6232 19.3258 -75.0495 19.8457L-74.7071 20.7852ZM-70.238 17.4276L-69.4651 18.0621C-68.243 16.5737 -66.9117 15.8155 -65.4674 15.6472L-65.5832 14.6539L-65.699 13.6607C-67.7602 13.9009 -69.5321 14.9919 -71.0109 16.793L-70.238 17.4276ZM-65.5832 14.6539L-65.4674 15.6472C-63.9797 15.4738 -62.278 15.8576 -60.3297 16.924L-59.8496 16.0468L-59.3694 15.1696C-61.5605 13.9703 -63.6811 13.4255 -65.699 13.6607L-65.5832 14.6539ZM-59.8496 16.0468L-60.3297 16.924C-59.1705 17.5585 -57.9999 17.8638 -56.8563 17.6987C-55.6989 17.5316 -54.7126 16.9035 -53.8963 15.9459L-54.6572 15.2971L-55.4182 14.6484C-55.9937 15.3234 -56.5688 15.6365 -57.1421 15.7192C-57.7293 15.804 -58.459 15.6679 -59.3694 15.1696L-59.8496 16.0468ZM-54.6572 15.2971L-53.8963 15.9459C-52.6412 14.4738 -51.3044 13.7837 -49.8748 13.7091L-49.9268 12.7105L-49.9789 11.7119C-52.0728 11.821 -53.8895 12.8553 -55.4182 14.6484L-54.6572 15.2971ZM-49.9268 12.7105L-49.8748 13.7091C-48.1684 13.6202 -46.4348 13.6716 -44.6733 13.8642L-44.5646 12.8701L-44.4559 11.876C-46.3205 11.6722 -48.1617 11.6171 -49.9789 11.7119L-49.9268 12.7105ZM-44.5646 12.8701L-44.6733 13.8642C-42.2866 14.1251 -40.3995 12.6554 -38.9748 10.167L-39.8426 9.6701L-40.7105 9.17324C-41.9555 11.3479 -43.2164 12.0115 -44.4559 11.876L-44.5646 12.8701ZM-39.8426 9.6701L-38.9748 10.167C-37.7008 7.9417 -36.349 6.70273 -34.9804 6.21484L-35.3162 5.27291L-35.652 4.33097C-37.6489 5.04285 -39.3147 6.73534 -40.7105 9.17324L-39.8426 9.6701ZM-35.3162 5.27291L-34.9804 6.21484C-33.9413 5.8444 -32.4412 6.30145 -30.3227 8.739L-29.5679 8.08303L-28.8131 7.42705C-30.9937 4.91802 -33.3258 3.50166 -35.652 4.33097L-35.3162 5.27291ZM-29.5679 8.08303L-30.3227 8.739C-29.2045 10.0256 -27.9753 10.9378 -26.6424 10.9744C-25.2156 11.0136 -24.1361 10.0591 -23.3472 8.74506L-24.2045 8.23028L-25.0618 7.71551C-25.699 8.77663 -26.2264 8.9851 -26.5875 8.97519C-27.0424 8.9627 -27.7819 8.6137 -28.8131 7.42705L-29.5679 8.08303ZM-24.2045 8.23028L-23.3472 8.74506C-22.6921 7.65416 -22.1001 7.22959 -21.6403 7.11959C-21.218 7.01855 -20.6263 7.11966 -19.7865 7.79981L-19.1571 7.02268L-18.5278 6.24555C-19.6267 5.35565 -20.8456 4.87299 -22.1057 5.17449C-23.3284 5.46703 -24.2907 6.43129 -25.0618 7.71551L-24.2045 8.23028ZM-19.1571 7.02268L-19.7865 7.79981C-17.7246 9.46959 -15.6158 10.2781 -13.5209 9.89309L-13.7017 8.90956L-13.8824 7.92604C-15.1839 8.16525 -16.7122 7.71587 -18.5278 6.24555L-19.1571 7.02268ZM-13.7017 8.90956L-13.5209 9.89309C-11.3806 9.49971 -9.5546 7.69687 -7.95801 4.98863L-8.81946 4.48078L-9.68091 3.97293C-11.1975 6.54547 -12.6263 7.69515 -13.8824 7.92604L-13.7017 8.90956ZM-8.81946 4.48078L-7.95801 4.98863C-6.45314 2.43596 -5.11964 1.81864 -3.98851 2.04896L-3.78899 1.06907L-3.58947 0.0891724C-6.05247 -0.412336 -8.07261 1.24482 -9.68091 3.97293L-8.81946 4.48078ZM-3.78899 1.06907L-3.98851 2.04896C-2.50228 2.35158 -0.888374 3.41715 0.834122 5.46845L1.59993 4.82539L2.36575 4.18232C0.497139 1.95702 -1.48158 0.518375 -3.58947 0.0891724L-3.78899 1.06907ZM1.59993 4.82539L0.834122 5.46845C1.81188 6.63286 2.95079 7.42934 4.25768 7.45246C5.57609 7.47579 6.71651 6.70765 7.67995 5.56354L6.91502 4.91942L6.15011 4.27529C5.3657 5.2068 4.74635 5.4608 4.29306 5.45278C3.82825 5.44455 3.18353 5.15622 2.36575 4.18232L1.59993 4.82539ZM6.91502 4.91942L7.67995 5.56354C8.48666 4.60553 9.20279 4.11747 9.81033 3.93855C10.3742 3.77247 10.9492 3.84068 11.6014 4.23908L12.1227 3.38572L12.644 2.53236C11.5722 1.87762 10.4173 1.67486 9.24531 2.02002C8.11697 2.35232 7.09122 3.15768 6.15011 4.27529L6.91502 4.91942ZM12.1227 3.38572L11.6014 4.23908C13.5591 5.4351 15.6266 5.71133 17.7253 5.0041L17.4059 4.05646L17.0866 3.10882C15.5887 3.61358 14.1341 3.44265 12.644 2.53236L12.1227 3.38572ZM17.4059 4.05646L17.7253 5.0041C18.3824 4.78265 18.9692 4.82361 19.5478 5.10964C20.1593 5.41195 20.8266 6.0225 21.521 7.05824L22.3516 6.50142L23.1822 5.9446C22.3776 4.74436 21.4712 3.82944 20.4342 3.31676C19.3642 2.78781 18.2277 2.72427 17.0866 3.10882L17.4059 4.05646ZM22.3516 6.50142L21.521 7.05824C22.3486 8.29294 23.3906 9.17494 24.693 9.31045C25.9866 9.44504 27.2072 8.80766 28.3133 7.78554L27.6346 7.0511L26.9559 6.31667C26.0389 7.16406 25.3674 7.36982 24.9 7.32119C24.4414 7.27347 23.8534 6.94587 23.1822 5.9446L22.3516 6.50142ZM27.6346 7.0511L28.3133 7.78554C29.2418 6.92748 29.8516 6.79001 30.2145 6.85493C30.5808 6.92046 31.1128 7.26606 31.7022 8.39899L32.5893 7.93746L33.4764 7.47593C32.7858 6.14844 31.8519 5.1161 30.5667 4.88618C29.278 4.65565 28.0505 5.30522 26.9559 6.31667L27.6346 7.0511ZM32.5893 7.93746L31.7022 8.39899C32.4235 9.7855 33.4993 10.7865 35.0011 10.7115C36.3511 10.6441 37.6683 9.69612 38.9297 8.33789L38.197 7.65738L37.4643 6.97687C36.2672 8.26578 35.4206 8.68806 34.9014 8.714C34.534 8.73235 34.0351 8.54984 33.4764 7.47593L32.5893 7.93746ZM38.197 7.65738L38.9297 8.33789C39.5073 7.71596 39.982 7.33514 40.3533 7.13466C40.7199 6.93672 40.8947 6.96033 40.9559 6.97806C41.0194 6.99644 41.1848 7.07357 41.3975 7.44383C41.612 7.81709 41.8197 8.39855 41.9899 9.23805L42.9699 9.03934L43.95 8.84063C43.7585 7.89592 43.496 7.08163 43.1318 6.44761C42.7658 5.81059 42.2442 5.26892 41.5122 5.05697C40.7779 4.84437 40.0488 5.02613 39.4031 5.37481C38.762 5.72096 38.1159 6.27523 37.4643 6.97687L38.197 7.65738ZM42.9699 9.03934L41.9899 9.23805C42.3631 11.0791 42.9073 12.5667 43.6955 13.5819C44.5281 14.6542 45.6491 15.2056 46.9818 15.0436L46.8611 14.0509L46.7405 13.0582C46.2025 13.1236 45.7397 12.9535 45.2752 12.3553C44.7663 11.6999 44.3002 10.5681 43.95 8.84063L42.9699 9.03934ZM46.8611 14.0509L46.9818 15.0436C48.8247 14.8196 50.7022 14.6698 52.6147 14.5944L52.5752 13.5951L52.5358 12.5959C50.5707 12.6734 48.6389 12.8275 46.7405 13.0582L46.8611 14.0509ZM52.5752 13.5951L52.6147 14.5944C54.4173 14.5233 56.0511 14.8165 57.5319 15.4586L57.9297 14.5411L58.3275 13.6237C56.5467 12.8515 54.6107 12.5141 52.5358 12.5959L52.5752 13.5951ZM57.9297 14.5411L57.5319 15.4586C58.7997 16.0083 59.7403 17.1633 60.2509 19.177L61.2202 18.9313L62.1896 18.6855C61.5746 16.2601 60.3216 14.4883 58.3275 13.6237L57.9297 14.5411ZM61.2202 18.9313L60.2509 19.177C60.8365 21.4865 61.6895 23.386 62.851 24.8182L63.6277 24.1884L64.4044 23.5585C63.4815 22.4204 62.7296 20.8152 62.1896 18.6855L61.2202 18.9313ZM63.6277 24.1884L62.851 24.8182C63.5893 25.7286 64.6788 26.184 65.9449 26.31C67.1978 26.4347 68.6995 26.2481 70.4147 25.8079L70.1661 24.8393L69.9176 23.8707C68.316 24.2817 67.0696 24.4121 66.1431 24.3198C65.2297 24.2289 64.7083 23.9332 64.4044 23.5585L63.6277 24.1884ZM70.1661 24.8393L70.4147 25.8079C71.1905 25.6088 71.7689 25.5454 72.1785 25.572C72.5849 25.5983 72.7354 25.7053 72.7881 25.7586C72.8346 25.8056 72.9283 25.9344 72.9338 26.2978C72.9395 26.6721 72.8472 27.2083 72.6004 27.9351L73.5473 28.2566L74.4942 28.5782C74.7788 27.7402 74.9441 26.9605 74.9336 26.2676C74.923 25.564 74.7269 24.8744 74.2099 24.3519C73.699 23.8356 73.0123 23.6218 72.3078 23.5762C71.6064 23.5307 70.8002 23.6442 69.9176 23.8707L70.1661 24.8393ZM73.5473 28.2566L72.6004 27.9351C72.0435 29.5754 71.8699 31.0889 72.3856 32.3059C72.9392 33.6125 74.1461 34.2795 75.6275 34.4946L75.7711 33.5049L75.9147 32.5153C74.851 32.3609 74.4147 31.9685 74.2271 31.5256C74.0015 30.9932 73.9886 30.0673 74.4942 28.5782L73.5473 28.2566ZM75.7711 33.5049L75.6275 34.4946C76.7863 34.6628 77.1487 35.0219 77.2597 35.2638C77.3883 35.5441 77.417 36.1518 76.8323 37.3145L77.7256 37.7638L78.619 38.2131C79.2764 36.906 79.6003 35.569 79.0774 34.4296C78.537 33.2519 77.301 32.7165 75.9147 32.5153L75.7711 33.5049ZM77.7256 37.7638L76.8323 37.3145C75.5457 39.8727 75.1716 42.2327 76.3935 44.0464L77.2229 43.4876L78.0522 42.9289C77.4604 42.0505 77.4214 40.5946 78.619 38.2131L77.7256 37.7638ZM77.2229 43.4876L76.3935 44.0464C77.2126 45.262 77.7018 46.5786 77.8689 48.0077L78.8621 47.8916L79.8553 47.7755C79.6506 46.0248 79.047 44.4054 78.0522 42.9289L77.2229 43.4876ZM78.8621 47.8916L77.8689 48.0077C78.0738 49.7606 78.7 51.4709 79.7187 53.134L80.5714 52.6116L81.4241 52.0892C80.5356 50.6387 80.0222 49.2024 79.8553 47.7755L78.8621 47.8916ZM80.5714 52.6116L79.7187 53.134C80.7169 54.7636 82.0657 56.4779 83.7502 58.2768L84.4801 57.5933L85.2101 56.9097C83.5903 55.18 82.3331 53.5732 81.4241 52.0892L80.5714 52.6116ZM84.4801 57.5933L83.7502 58.2768C84.4578 59.0324 84.583 59.5851 84.51 59.9905C84.4288 60.4422 84.0457 61.053 83.0076 61.7773L83.5799 62.5974L84.1522 63.4175C85.3665 62.5701 86.2596 61.5609 86.4784 60.3446C86.7056 59.082 86.1547 57.9184 85.2101 56.9097L84.4801 57.5933ZM83.5799 62.5974L83.0076 61.7773C81.745 62.6585 80.8907 63.7959 80.9453 65.2091C80.9972 66.5504 81.8661 67.7886 83.1285 68.9192L83.7957 68.1744L84.4628 67.4295C83.329 66.4139 82.9639 65.6495 82.9438 65.1318C82.9266 64.6861 83.1625 64.1081 84.1522 63.4175L83.5799 62.5974ZM83.7957 68.1744L83.1285 68.9192C84.273 69.9444 84.7283 70.7341 84.814 71.2853C84.8819 71.7227 84.7437 72.2055 84.0141 72.7803L84.633 73.5658L85.2519 74.3512C86.3603 73.478 87.0015 72.3381 86.7903 70.9784C86.5968 69.7325 85.7145 68.5505 84.4628 67.4295L83.7957 68.1744ZM84.633 73.5658L84.0141 72.7803C82.9914 73.586 82.2375 74.5152 81.8359 75.5829C81.4304 76.661 81.4139 77.8017 81.7392 78.9673L82.7024 78.6985L83.6656 78.4296C83.44 77.6214 83.4698 76.9199 83.7079 76.287C83.9498 75.6439 84.4366 74.9935 85.2519 74.3512L84.633 73.5658ZM82.7024 78.6985L81.7392 78.9673C81.9747 79.8111 81.9824 80.5435 81.809 81.1899C81.6358 81.8357 81.2647 82.4595 80.6441 83.0605L81.3398 83.7789L82.0355 84.4973C82.8741 83.6851 83.4598 82.7556 83.7408 81.708C84.0216 80.6609 83.981 79.5596 83.6656 78.4296L82.7024 78.6985ZM81.3398 83.7789L80.6441 83.0605C79.2811 84.3806 77.5065 85.5643 75.2966 86.5989L75.7205 87.5045L76.1445 88.4102C78.5083 87.3036 80.48 86.0036 82.0355 84.4973L81.3398 83.7789ZM75.7205 87.5045L75.2966 86.5989C74.0409 87.1867 73.0534 87.9614 72.4845 88.9819C71.9016 90.0276 71.8308 91.2005 72.1673 92.4164L73.131 92.1498L74.0948 91.8831C73.8707 91.0728 73.9512 90.4583 74.2314 89.9557C74.5257 89.4278 75.1133 88.893 76.1445 88.4102L75.7205 87.5045ZM73.131 92.1498L72.1673 92.4164C72.6626 94.2068 72.431 95.633 71.5921 96.8158L72.4077 97.3944L73.2233 97.9729C74.47 96.2154 74.7207 94.1452 74.0948 91.8831L73.131 92.1498ZM72.4077 97.3944L71.5921 96.8158C70.4854 98.3759 69.6749 100.055 69.1659 101.85L70.1279 102.123L71.09 102.396C71.535 100.826 72.2443 99.3531 73.2233 97.9729L72.4077 97.3944ZM70.1279 102.123L69.1659 101.85C68.6836 103.551 68.2485 105.273 67.8607 107.014L68.8368 107.232L69.8129 107.449C70.1925 105.744 70.6182 104.06 71.09 102.396L70.1279 102.123ZM68.8368 107.232L67.8607 107.014C67.4342 108.93 67.5522 111.003 68.1637 113.21L69.1274 112.943L70.0911 112.676C69.5477 110.715 69.472 108.98 69.8129 107.449L68.8368 107.232ZM69.1274 112.943L68.1637 113.21C68.4107 114.102 68.3891 114.821 68.1805 115.412C67.9724 116.002 67.5439 116.562 66.8062 117.078L67.3793 117.898L67.9524 118.717C68.9576 118.014 69.6919 117.139 70.0665 116.078C70.4405 115.018 70.4215 113.869 70.0911 112.676L69.1274 112.943ZM67.3793 117.898L66.8062 117.078C65.8104 117.775 65.0693 118.629 64.6632 119.656C64.2561 120.686 64.2193 121.805 64.4888 122.971L65.4631 122.745L66.4374 122.52C66.2416 121.673 66.2915 120.977 66.5231 120.391C66.7557 119.803 67.2054 119.24 67.9524 118.717L67.3793 117.898ZM65.4631 122.745L64.4888 122.971C64.6677 123.745 64.5509 124.335 64.2143 124.833C63.8542 125.365 63.168 125.9 62.0097 126.37L62.3857 127.297L62.7617 128.223C64.1202 127.672 65.2055 126.938 65.8711 125.953C66.5603 124.934 66.7238 123.759 66.4374 122.52L65.4631 122.745ZM62.3857 127.297L62.0097 126.37C60.6497 126.922 59.5667 127.666 58.933 128.677C58.2749 129.728 58.1891 130.925 58.5565 132.163L59.5152 131.879L60.4739 131.594C60.2381 130.799 60.3291 130.216 60.6278 129.739C60.951 129.223 61.6048 128.693 62.7617 128.223L62.3857 127.297ZM59.5152 131.879L58.5565 132.163C58.8166 133.04 58.8383 133.8 58.6713 134.47C58.5048 135.138 58.1343 135.781 57.5084 136.399L58.2112 137.111L58.9139 137.822C59.7607 136.986 60.3438 136.029 60.612 134.954C60.8797 133.879 60.8171 132.751 60.4739 131.594L59.5152 131.879ZM58.2112 137.111L57.5084 136.399C55.848 138.04 55.0587 139.989 55.2496 142.193L56.2458 142.106L57.2421 142.02C57.1081 140.473 57.629 139.092 58.9139 137.822L58.2112 137.111ZM56.2458 142.106L55.2496 142.193C55.414 144.091 55.644 145.975 55.9394 147.842L56.9271 147.686L57.9148 147.53C57.6268 145.709 57.4026 143.872 57.2421 142.02L56.2458 142.106ZM56.9271 147.686L55.9394 147.842C56.1752 149.334 55.7204 150.811 54.3922 152.325L55.1439 152.984L55.8956 153.644C57.5284 151.783 58.2624 149.728 57.9148 147.53L56.9271 147.686ZM55.1439 152.984L54.3922 152.325C53.5401 153.296 53.0312 154.376 53.0112 155.551C52.9912 156.721 53.4589 157.833 54.2646 158.869L55.0539 158.255L55.8433 157.641C55.2285 156.851 55.0009 156.172 55.0109 155.585C55.0208 155.003 55.2672 154.36 55.8956 153.644L55.1439 152.984ZM55.0539 158.255L54.2646 158.869C55.5041 160.463 55.7255 161.944 55.1248 163.439L56.0526 163.812L56.9805 164.185C57.8892 161.924 57.4448 159.701 55.8433 157.641L55.0539 158.255ZM56.0526 163.812L55.1248 163.439C54.3249 165.429 53.9208 167.455 53.9215 169.511L54.9215 169.511L55.9215 169.511C55.9209 167.723 56.2709 165.95 56.9805 164.185L56.0526 163.812ZM54.9215 169.511L53.9215 169.511C53.9223 171.861 55.1813 173.736 57.4019 175.126L57.9326 174.278L58.4632 173.431C56.6704 172.309 55.922 171.005 55.9215 169.511L54.9215 169.511ZM57.9326 174.278L57.4019 175.126C59.1943 176.248 59.9764 177.572 60.0135 179.107L61.0132 179.083L62.0129 179.059C61.9559 176.701 60.6842 174.821 58.4632 173.431L57.9326 174.278ZM61.0132 179.083L60.0135 179.107C60.0656 181.264 60.7478 183.159 62.0759 184.744L62.8423 184.101L63.6086 183.459C62.592 182.246 62.0548 180.796 62.0129 179.059L61.0132 179.083ZM62.8423 184.101L62.0759 184.744C63.2225 186.111 64.2774 187.537 65.2411 189.02L66.0796 188.475L66.9182 187.931C65.9101 186.379 64.8068 184.888 63.6086 183.459L62.8423 184.101ZM66.0796 188.475L65.2411 189.02C66.3737 190.764 68.0583 191.941 70.2153 192.576L70.4976 191.617L70.78 190.658C69.0181 190.139 67.7573 189.222 66.9182 187.931L66.0796 188.475ZM70.4976 191.617L70.2153 192.576C71.7832 193.038 72.7838 194.115 73.2186 196.021L74.1936 195.799L75.1685 195.577C74.5943 193.06 73.1309 191.349 70.78 190.658L70.4976 191.617ZM74.1936 195.799L73.2186 196.021C73.5001 197.255 74.0014 198.306 74.7727 199.105C75.5521 199.912 76.5486 200.4 77.7074 200.596L77.8739 199.609L78.0403 198.623C77.2501 198.49 76.6587 198.179 76.2113 197.715C75.7559 197.244 75.3915 196.554 75.1685 195.577L74.1936 195.799ZM77.8739 199.609L77.7074 200.596C79.6511 200.924 81.5091 201.254 83.2816 201.585L83.4656 200.602L83.6496 199.62C81.8644 199.285 79.9946 198.953 78.0403 198.623L77.8739 199.609ZM83.4656 200.602L83.2816 201.585C85.1793 201.941 87.1141 201.954 89.0806 201.631L88.9182 200.644L88.7558 199.657C87.0098 199.944 85.3096 199.93 83.6496 199.62L83.4656 200.602ZM88.9182 200.644L89.0806 201.631C89.7994 201.512 90.4412 201.618 91.0432 201.94C91.6609 202.27 92.2886 202.856 92.9044 203.775L93.7351 203.218L94.5658 202.662C93.8265 201.559 92.9738 200.704 91.9859 200.176C90.9823 199.64 89.8932 199.47 88.7558 199.657L88.9182 200.644ZM93.7351 203.218L92.9044 203.775C93.647 204.883 94.5149 205.725 95.5374 206.185C96.5835 206.656 97.6979 206.684 98.8248 206.324L98.5205 205.372L98.2162 204.419C97.5079 204.645 96.9071 204.608 96.3581 204.361C95.7854 204.104 95.1783 203.576 94.5658 202.662L93.7351 203.218ZM98.5205 205.372L98.8248 206.324C100.706 205.724 102.517 204.997 104.259 204.144L103.82 203.246L103.38 202.348C101.727 203.157 100.006 203.847 98.2162 204.419L98.5205 205.372ZM103.82 203.246L104.259 204.144C105.848 203.367 107.405 202.955 108.937 202.888L108.893 201.889L108.849 200.89C107.011 200.971 105.186 201.464 103.38 202.348L103.82 203.246ZM108.893 201.889L108.937 202.888C110.296 202.828 111.92 203.414 113.844 204.876L114.449 204.08L115.054 203.284C112.939 201.676 110.86 200.801 108.849 200.89L108.893 201.889ZM114.449 204.08L113.844 204.876C114.973 205.735 116.2 206.204 117.44 205.9C118.661 205.602 119.58 204.629 120.282 203.349L119.405 202.869L118.528 202.388C117.945 203.452 117.396 203.852 116.965 203.958C116.553 204.058 115.945 203.962 115.054 203.284L114.449 204.08ZM119.405 202.869L120.282 203.349C121.506 201.116 122.794 200.022 124.062 199.707L123.821 198.736L123.58 197.766C121.529 198.275 119.872 199.936 118.528 202.388L119.405 202.869ZM123.821 198.736L124.062 199.707C125.406 199.373 127.058 199.624 129.083 200.66L129.538 199.77L129.994 198.879C127.715 197.714 125.555 197.276 123.58 197.766L123.821 198.736ZM129.538 199.77L129.083 200.66C130.3 201.282 131.534 201.522 132.694 201.135C133.849 200.749 134.704 199.816 135.329 198.587L134.438 198.134L133.546 197.681C133.057 198.643 132.538 199.078 132.06 199.238C131.587 199.396 130.929 199.357 129.994 198.879L129.538 199.77ZM134.438 198.134L135.329 198.587C135.827 197.608 136.373 197.046 136.917 196.763C137.442 196.489 138.08 196.416 138.905 196.638L139.166 195.673L139.426 194.708C138.214 194.38 137.045 194.441 135.994 194.989C134.962 195.526 134.163 196.469 133.546 197.681L134.438 198.134ZM139.166 195.673L138.905 196.638C140.919 197.182 142.988 197.819 145.111 198.549L145.436 197.603L145.761 196.658C143.599 195.914 141.487 195.264 139.426 194.708L139.166 195.673ZM145.436 197.603L145.111 198.549C147.464 199.358 149.628 199.258 151.452 198.044L150.898 197.212L150.344 196.379C149.17 197.16 147.693 197.322 145.761 196.658L145.436 197.603ZM150.898 197.212L151.452 198.044C152.838 197.122 154.334 196.521 155.948 196.236L155.774 195.252L155.601 194.267C153.711 194.6 151.957 195.306 150.344 196.379L150.898 197.212ZM155.774 195.252L155.948 196.236C158.146 195.848 159.743 194.236 160.831 191.798L159.918 191.391L159.005 190.983C158.072 193.074 156.907 194.036 155.601 194.267L155.774 195.252ZM159.918 191.391L160.831 191.798C161.823 189.576 162.903 187.571 164.067 185.781L163.229 185.235L162.391 184.69C161.162 186.578 160.034 188.677 159.005 190.983L159.918 191.391ZM163.229 185.235L164.067 185.781C164.518 185.088 164.986 184.869 165.505 184.876C166.12 184.885 167.005 185.217 168.201 186.117L168.802 185.318L169.403 184.518C168.081 183.524 166.777 182.895 165.534 182.877C164.195 182.857 163.137 183.543 162.391 184.69L163.229 185.235ZM168.802 185.318L168.201 186.117C170.777 188.054 173.315 188.864 175.369 187.402L174.789 186.588L174.21 185.773C173.319 186.406 171.865 186.37 169.403 184.518L168.802 185.318ZM174.789 186.588L175.369 187.402C176.744 186.424 178.207 185.745 179.76 185.357L179.517 184.387L179.275 183.417C177.469 183.868 175.779 184.656 174.21 185.773L174.789 186.588ZM179.517 184.387L179.76 185.357C181.437 184.938 183.111 184.527 184.783 184.124L184.548 183.152L184.314 182.18C182.637 182.584 180.957 182.996 179.275 183.417L179.517 184.387ZM184.548 183.152L184.783 184.124C186.278 183.763 187.863 183.796 189.553 184.247L189.811 183.281L190.069 182.315C188.09 181.786 186.166 181.733 184.314 182.18L184.548 183.152ZM189.811 183.281L189.553 184.247C190.741 184.565 191.888 184.387 192.922 183.723C193.918 183.083 194.755 182.03 195.473 180.683L194.591 180.212L193.708 179.742C193.074 180.931 192.438 181.657 191.841 182.04C191.282 182.399 190.715 182.488 190.069 182.315L189.811 183.281ZM194.591 180.212L195.473 180.683C196.761 178.267 198.061 177.475 199.285 177.532L199.331 176.533L199.377 175.534C196.984 175.424 195.124 177.085 193.708 179.742L194.591 180.212ZM199.331 176.533L199.285 177.532C200.866 177.604 202.458 178.188 204.072 179.349L204.656 178.538L205.24 177.726C203.37 176.38 201.412 175.627 199.377 175.534L199.331 176.533ZM204.656 178.538L204.072 179.349C205.114 180.099 206.259 180.448 207.469 180.291C208.653 180.138 209.776 179.516 210.834 178.569L210.167 177.824L209.5 177.079C208.626 177.861 207.865 178.223 207.212 178.307C206.585 178.389 205.94 178.229 205.24 177.726L204.656 178.538ZM210.167 177.824L210.834 178.569C211.707 177.787 212.378 177.542 212.87 177.551C213.33 177.56 213.871 177.798 214.49 178.555L215.264 177.922L216.038 177.29C215.19 176.252 214.148 175.576 212.909 175.552C211.702 175.529 210.557 176.132 209.5 177.079L210.167 177.824ZM215.264 177.922L214.49 178.555C216.044 180.457 217.775 181.73 219.701 182.233L219.954 181.266L220.207 180.298C218.813 179.934 217.418 178.977 216.038 177.29L215.264 177.922ZM219.954 181.266L219.701 182.233C221.548 182.716 223.643 182.692 225.954 182.217L225.753 181.237L225.552 180.258C223.451 180.689 221.68 180.683 220.207 180.298L219.954 181.266ZM225.753 181.237L225.954 182.217C226.803 182.042 227.188 182.248 227.431 182.564C227.763 182.992 228.029 183.874 228.014 185.448L229.014 185.458L230.014 185.468C230.03 183.774 229.77 182.319 229.014 181.341C228.171 180.25 226.909 179.979 225.552 180.258L225.753 181.237ZM229.014 185.458L228.014 185.448C227.997 187.166 228.362 188.687 229.484 189.553C230.625 190.434 232.164 190.349 233.752 189.821L233.436 188.872L233.121 187.923C231.729 188.386 231.04 188.227 230.706 187.97C230.355 187.699 229.999 187.016 230.014 185.468L229.014 185.458ZM233.436 188.872L233.752 189.821C236.623 188.867 238.475 189.053 239.619 189.902L240.215 189.099L240.811 188.296C238.878 186.861 236.211 186.896 233.121 187.923L233.436 188.872ZM240.215 189.099L239.619 189.902C241.077 190.983 242.322 192.243 243.36 193.682L244.171 193.097L244.982 192.512C243.822 190.903 242.43 189.497 240.811 188.296L240.215 189.099ZM244.171 193.097L243.36 193.682C244.485 195.242 245.726 196.743 247.081 198.184L247.81 197.499L248.538 196.813C247.24 195.434 246.055 194 244.982 192.512L244.171 193.097ZM247.81 197.499L247.081 198.184C248.199 199.372 248.724 200.864 248.611 202.753L249.609 202.812L250.607 202.872C250.749 200.496 250.074 198.446 248.538 196.813L247.81 197.499ZM249.609 202.812L248.611 202.753C248.473 205.055 248.918 207.129 249.987 208.934L250.848 208.424L251.708 207.914C250.871 206.501 250.49 204.834 250.607 202.872L249.609 202.812ZM250.848 208.424L249.987 208.934C250.309 209.477 250.38 210.055 250.161 210.748C249.928 211.483 249.361 212.367 248.343 213.397L249.054 214.1L249.766 214.803C250.897 213.658 251.702 212.508 252.068 211.351C252.446 210.152 252.339 208.98 251.708 207.914L250.848 208.424ZM249.054 214.1L248.343 213.397C247.204 214.55 246.437 215.765 246.338 217.03C246.234 218.373 246.895 219.5 247.999 220.386L248.625 219.606L249.251 218.826C248.492 218.217 248.294 217.678 248.332 217.185C248.377 216.616 248.756 215.825 249.766 214.803L249.054 214.1ZM248.625 219.606L247.999 220.386C248.83 221.053 249.174 221.634 249.262 222.106C249.344 222.55 249.236 223.092 248.715 223.786L249.515 224.386L250.315 224.987C251.064 223.989 251.442 222.889 251.228 221.74C251.019 220.618 250.283 219.654 249.251 218.826L248.625 219.606ZM249.515 224.386L248.715 223.786C247.323 225.641 246.706 227.604 247.025 229.63L248.013 229.474L249.001 229.319C248.784 227.944 249.168 226.514 250.315 224.987L249.515 224.386ZM248.013 229.474L247.025 229.63C247.279 231.24 247.306 232.84 247.11 234.435L248.102 234.557L249.095 234.68C249.315 232.898 249.283 231.11 249.001 229.319L248.013 229.474ZM248.102 234.557L247.11 234.435C246.857 236.484 247.692 238.647 249.319 240.87L250.126 240.279L250.933 239.688C249.446 237.658 248.931 236.007 249.095 234.68L248.102 234.557ZM250.126 240.279L249.319 240.87C250.037 241.85 250.386 242.682 250.472 243.377C250.554 244.043 250.403 244.643 249.991 245.225L250.807 245.803L251.622 246.381C252.314 245.406 252.601 244.308 252.457 243.132C252.315 241.986 251.772 240.834 250.933 239.688L250.126 240.279ZM250.807 245.803L249.991 245.225C248.945 246.7 247.638 248.078 246.059 249.358L246.689 250.135L247.319 250.911C249.024 249.529 250.461 248.02 251.622 246.381L250.807 245.803ZM246.689 250.135L246.059 249.358C245.041 250.184 244.458 251.253 244.458 252.528C244.458 253.744 244.989 255.005 245.865 256.279L246.689 255.713L247.513 255.146C246.748 254.033 246.458 253.171 246.458 252.528C246.458 251.943 246.697 251.416 247.319 250.911L246.689 250.135ZM246.689 255.713L245.865 256.279C246.624 257.384 246.626 257.994 246.492 258.311C246.341 258.667 245.822 259.155 244.399 259.539L244.66 260.505L244.92 261.47C246.491 261.046 247.807 260.333 248.333 259.091C248.876 257.811 248.395 256.429 247.513 255.146L246.689 255.713ZM244.66 260.505L244.399 259.539C242.824 259.964 241.54 260.574 240.684 261.449C239.783 262.371 239.421 263.522 239.608 264.803L240.598 264.659L241.587 264.514C241.488 263.833 241.661 263.311 242.114 262.848C242.612 262.338 243.502 261.852 244.92 261.47L244.66 260.505ZM240.598 264.659L239.608 264.803C239.871 266.606 239.677 268.198 239.064 269.611L239.981 270.009L240.898 270.408C241.679 268.61 241.896 266.635 241.587 264.514L240.598 264.659ZM239.981 270.009L239.064 269.611C238.284 271.405 238.056 273.383 238.343 275.513L239.334 275.379L240.325 275.246C240.08 273.426 240.283 271.823 240.898 270.408L239.981 270.009ZM239.334 275.379L238.343 275.513C238.446 276.273 238.291 276.866 237.925 277.367C237.54 277.894 236.859 278.403 235.762 278.836L236.13 279.766L236.497 280.696C237.803 280.18 238.857 279.483 239.54 278.547C240.242 277.586 240.489 276.461 240.325 275.246L239.334 275.379ZM236.13 279.766L235.762 278.836C234.457 279.352 233.404 280.047 232.715 280.977C232.009 281.932 231.751 283.05 231.902 284.262L232.894 284.138L233.886 284.014C233.792 283.261 233.951 282.669 234.323 282.166C234.713 281.639 235.4 281.13 236.497 280.696L236.13 279.766ZM232.894 284.138L231.902 284.262C232.158 286.317 232.71 288.45 233.547 290.659L234.482 290.304L235.417 289.95C234.628 287.867 234.12 285.889 233.886 284.014L232.894 284.138ZM234.482 290.304L233.547 290.659C233.867 291.503 233.761 292.03 233.467 292.426C233.117 292.896 232.354 293.388 230.93 293.771L231.189 294.737L231.449 295.703C233.034 295.276 234.323 294.626 235.072 293.618C235.876 292.537 235.911 291.252 235.417 289.95L234.482 290.304ZM231.189 294.737L230.93 293.771C227.833 294.604 225.53 295.87 224.309 297.721L225.144 298.272L225.978 298.823C226.799 297.579 228.527 296.488 231.449 295.703L231.189 294.737ZM225.144 298.272L224.309 297.721C223.601 298.794 223.52 300.018 223.943 301.272C224.353 302.483 225.233 303.739 226.473 305.038L227.196 304.348L227.92 303.657C226.77 302.454 226.113 301.446 225.838 300.632C225.578 299.861 225.665 299.298 225.978 298.823L225.144 298.272ZM227.196 304.348L226.473 305.038C227.633 306.252 227.888 307.035 227.838 307.463C227.799 307.801 227.501 308.321 226.201 308.834L226.568 309.765L226.935 310.695C228.443 310.099 229.655 309.162 229.825 307.694C229.985 306.317 229.15 304.945 227.92 303.657L227.196 304.348ZM226.568 309.765L226.201 308.834C224.723 309.418 223.525 310.244 223.098 311.475C222.652 312.764 223.187 314.06 224.117 315.217L224.897 314.59L225.676 313.964C224.912 313.013 224.878 312.449 224.988 312.13C225.119 311.753 225.604 311.22 226.935 310.695L226.568 309.765ZM224.897 314.59L224.117 315.217C225.715 317.204 225.956 318.67 225.474 319.792L226.392 320.187L227.311 320.582C228.224 318.459 227.468 316.193 225.676 313.964L224.897 314.59ZM226.392 320.187L225.474 319.792C224.625 321.764 224.89 323.783 226.105 325.739L226.954 325.211L227.804 324.683C226.874 323.187 226.763 321.856 227.311 320.582L226.392 320.187ZM226.954 325.211L226.105 325.739C227.056 327.27 227.253 328.651 226.849 329.957L227.804 330.253L228.759 330.548C229.367 328.584 228.998 326.605 227.804 324.683L226.954 325.211ZM227.804 330.253L226.849 329.957C226.37 331.503 225.607 333.181 224.547 334.995L225.41 335.5L226.273 336.005C227.392 334.092 228.225 332.272 228.759 330.548L227.804 330.253ZM225.41 335.5L224.547 334.995C223.922 336.064 223.626 337.171 223.824 338.272C224.022 339.375 224.686 340.303 225.646 341.072L226.271 340.291L226.896 339.51C226.193 338.948 225.881 338.412 225.792 337.918C225.703 337.422 225.809 336.799 226.273 336.005L225.41 335.5ZM226.271 340.291L225.646 341.072C227.252 342.357 228.455 343.627 229.285 344.877L230.118 344.324L230.951 343.771C229.978 342.305 228.617 340.887 226.896 339.51L226.271 340.291ZM230.118 344.324L229.285 344.877C230.078 346.073 230.533 347.473 230.628 349.106L231.626 349.048L232.624 348.99C232.511 347.04 231.96 345.291 230.951 343.771L230.118 344.324ZM231.626 349.048L230.628 349.106C230.724 350.769 230.496 352.881 229.907 355.465L230.882 355.688L231.857 355.91C232.469 353.224 232.736 350.91 232.624 348.99L231.626 349.048ZM230.882 355.688L229.907 355.465C229.584 356.885 229.549 358.184 229.912 359.304C230.286 360.456 231.054 361.328 232.147 361.899L232.61 361.013L233.073 360.126C232.413 359.782 232.017 359.309 231.815 358.686C231.602 358.031 231.58 357.125 231.857 355.91L230.882 355.688ZM232.61 361.013L232.147 361.899C233.708 362.714 234.889 363.922 235.705 365.551L236.599 365.103L237.493 364.655C236.494 362.661 235.016 361.141 233.073 360.126L232.61 361.013ZM236.599 365.103L235.705 365.551C236.737 367.612 238.379 368.974 240.581 369.581L240.847 368.617L241.113 367.653C239.466 367.199 238.276 366.218 237.493 364.655L236.599 365.103ZM240.847 368.617L240.581 369.581C242.383 370.078 243.96 370.872 245.322 371.957L245.945 371.174L246.568 370.392C244.982 369.129 243.16 368.218 241.113 367.653L240.847 368.617ZM245.945 371.174L245.322 371.957C246.896 373.21 248.646 374.126 250.567 374.702L250.854 373.744L251.141 372.786C249.465 372.284 247.943 371.487 246.568 370.392L245.945 371.174ZM250.854 373.744L250.567 374.702C252.468 375.271 254.423 375.528 256.428 375.473L256.401 374.473L256.373 373.474C254.578 373.523 252.836 373.294 251.141 372.786L250.854 373.744ZM256.401 374.473L256.428 375.473C258.059 375.428 259.618 375.977 261.133 377.2L261.761 376.422L262.389 375.644C260.556 374.164 258.542 373.414 256.373 373.474L256.401 374.473ZM261.761 376.422L261.133 377.2C261.658 377.624 262.245 377.919 262.891 378.012C263.543 378.106 264.179 377.984 264.777 377.696C265.926 377.141 266.958 375.958 267.917 374.381L267.063 373.861L266.209 373.341C265.307 374.823 264.525 375.596 263.907 375.895C263.62 376.033 263.385 376.063 263.177 376.033C262.962 376.001 262.701 375.896 262.389 375.644L261.761 376.422ZM267.063 373.861L267.917 374.381C268.817 372.903 269.626 372.025 270.315 371.604C270.939 371.223 271.435 371.221 271.941 371.484L272.402 370.597L272.863 369.709C271.671 369.089 270.428 369.19 269.272 369.897C268.182 370.564 267.171 371.76 266.209 373.341L267.063 373.861ZM272.402 370.597L271.941 371.484C273.599 372.346 275.38 373.419 277.285 374.706L277.845 373.878L278.405 373.049C276.449 371.728 274.602 370.613 272.863 369.709L272.402 370.597ZM277.845 373.878L277.285 374.706C278.376 375.444 279.521 375.837 280.681 375.705C281.849 375.572 282.853 374.928 283.699 373.953L282.943 373.298L282.188 372.642C281.566 373.359 280.986 373.657 280.455 373.718C279.916 373.779 279.245 373.617 278.405 373.049L277.845 373.878ZM282.943 373.298L283.699 373.953C285.077 372.365 286.483 371.424 287.904 371.025L287.635 370.063L287.365 369.1C285.468 369.631 283.747 370.846 282.188 372.642L282.943 373.298ZM287.635 370.063L287.904 371.025C289.768 370.503 291.431 369.427 292.897 367.85L292.165 367.169L291.432 366.488C290.176 367.839 288.82 368.692 287.365 369.1L287.635 370.063ZM292.165 367.169L292.897 367.85C294.152 366.5 295.499 365.664 296.937 365.282L296.68 364.315L296.423 363.349C294.562 363.844 292.899 364.91 291.432 366.488L292.165 367.169ZM296.68 364.315L296.937 365.282C298.478 364.872 300.126 364.706 301.885 364.792L301.934 363.793L301.983 362.794C300.035 362.699 298.18 362.882 296.423 363.349L296.68 364.315ZM301.934 363.793L301.885 364.792C303.958 364.893 305.84 364.35 307.492 363.158L306.908 362.347L306.323 361.536C305.05 362.454 303.617 362.874 301.983 362.794L301.934 363.793ZM306.908 362.347L307.492 363.158C308.781 362.229 310.235 361.759 311.887 361.75L311.881 360.75L311.875 359.75C309.82 359.762 307.959 360.357 306.323 361.536L306.908 362.347ZM311.881 360.75L311.887 361.75C313.822 361.739 315.682 361.491 317.463 361.004L317.199 360.04L316.935 359.075C315.332 359.514 313.646 359.74 311.875 359.75L311.881 360.75ZM317.199 360.04L317.463 361.004C319.128 360.549 320.82 360.163 322.539 359.846L322.358 358.862L322.177 357.879C320.403 358.206 318.655 358.605 316.935 359.075L317.199 360.04ZM322.358 358.862L322.539 359.846C324.405 359.502 326.155 358.84 327.786 357.861L327.271 357.003L326.757 356.146C325.331 357.002 323.806 357.579 322.177 357.879L322.358 358.862ZM327.271 357.003L327.786 357.861C328.907 357.188 330.401 357.175 332.476 358.231L332.93 357.339L333.383 356.448C330.971 355.221 328.693 354.984 326.757 356.146L327.271 357.003ZM332.93 357.339L332.476 358.231C334.892 359.459 337.172 359.676 339.083 358.44L338.54 357.6L337.997 356.761C336.916 357.46 335.455 357.502 333.383 356.448L332.93 357.339ZM338.54 357.6L339.083 358.44C340.376 357.604 341.813 357.274 343.44 357.461L343.554 356.467L343.668 355.474C341.602 355.237 339.697 355.662 337.997 356.761L338.54 357.6ZM343.554 356.467L343.44 357.461C344.734 357.609 345.852 357.103 346.733 356.109C347.575 355.158 348.211 353.758 348.699 352.017L347.736 351.747L346.773 351.477C346.319 353.095 345.787 354.16 345.236 354.783C344.722 355.362 344.221 355.537 343.668 355.474L343.554 356.467ZM347.736 351.747L348.699 352.017C349.154 350.394 349.689 349.513 350.18 349.121C350.403 348.944 350.613 348.869 350.83 348.857C351.058 348.844 351.361 348.898 351.758 349.091L352.195 348.192L352.632 347.292C352.014 346.991 351.369 346.823 350.718 346.86C350.054 346.897 349.453 347.143 348.933 347.558C347.937 348.352 347.259 349.742 346.773 351.477L347.736 351.747ZM352.195 348.192L351.758 349.091C353.756 350.063 355.691 351.139 357.562 352.319L358.095 351.473L358.629 350.627C356.696 349.408 354.697 348.296 352.632 347.292L352.195 348.192ZM358.095 351.473L357.562 352.319C358.667 353.016 359.833 353.331 361.013 353.104C362.179 352.879 363.193 352.156 364.07 351.112L363.305 350.469L362.54 349.825C361.846 350.651 361.206 351.03 360.635 351.14C360.078 351.247 359.425 351.13 358.629 350.627L358.095 351.473ZM363.305 350.469L364.07 351.112C364.787 350.26 365.468 349.752 366.099 349.501C366.711 349.257 367.328 349.233 367.99 349.44L368.289 348.486L368.587 347.531C367.499 347.191 366.41 347.225 365.36 347.642C364.33 348.052 363.395 348.808 362.54 349.825L363.305 350.469ZM368.289 348.486L367.99 349.44C369.958 350.055 371.98 349.999 374.023 349.3L373.699 348.354L373.375 347.408C371.705 347.979 370.12 348.011 368.587 347.531L368.289 348.486ZM373.699 348.354L374.023 349.3C375.664 348.738 377.184 348.782 378.633 349.393L379.022 348.471L379.41 347.55C377.475 346.734 375.446 346.699 373.375 347.408L373.699 348.354ZM379.022 348.471L378.633 349.393C380.248 350.073 381.753 350.946 383.151 352.012L383.757 351.217L384.364 350.421C382.832 349.253 381.18 348.296 379.41 347.55L379.022 348.471ZM383.757 351.217L383.151 352.012C384.856 353.312 386.933 353.787 389.29 353.52L389.178 352.526L389.065 351.533C387.124 351.753 385.588 351.355 384.364 350.421L383.757 351.217ZM389.178 352.526L389.29 353.52C390.229 353.414 390.984 353.522 391.593 353.791C392.197 354.057 392.722 354.509 393.165 355.197L394.006 354.656L394.847 354.115C394.22 353.14 393.406 352.405 392.4 351.961C391.4 351.52 390.275 351.395 389.065 351.533L389.178 352.526ZM394.006 354.656L393.165 355.197C394.2 356.807 395.063 358.484 395.753 360.228L396.683 359.86L397.613 359.492C396.874 357.625 395.951 355.832 394.847 354.115L394.006 354.656ZM396.683 359.86L395.753 360.228C396.541 362.219 397.797 363.762 399.527 364.803L400.042 363.946L400.558 363.089C399.239 362.295 398.255 361.115 397.613 359.492L396.683 359.86ZM400.042 363.946L399.527 364.803C400.976 365.675 402.269 366.71 403.408 367.908L404.133 367.219L404.857 366.53C403.592 365.199 402.158 364.052 400.558 363.089L400.042 363.946ZM404.133 367.219L403.408 367.908C404.774 369.344 406.727 370.376 409.174 371.062L409.444 370.1L409.714 369.137C407.484 368.511 405.896 367.622 404.857 366.53L404.133 367.219ZM409.444 370.1L409.174 371.062C409.653 371.197 409.937 371.368 410.099 371.527C410.246 371.67 410.331 371.838 410.358 372.074C410.42 372.626 410.159 373.581 409.22 375.043L410.061 375.583L410.902 376.123C411.89 374.586 412.489 373.126 412.345 371.851C412.269 371.173 411.985 370.573 411.496 370.096C411.022 369.633 410.403 369.33 409.714 369.137L409.444 370.1ZM410.061 375.583L409.22 375.043C408.223 376.594 407.618 378.046 407.633 379.338C407.641 380.008 407.815 380.638 408.184 381.189C408.55 381.735 409.068 382.149 409.681 382.455L410.128 381.561L410.576 380.667C410.202 380.48 409.979 380.275 409.846 380.077C409.717 379.883 409.637 379.642 409.633 379.316C409.625 378.616 409.972 377.572 410.902 376.123L410.061 375.583ZM410.128 381.561L409.681 382.455C411.62 383.425 413.53 384.512 415.412 385.715L415.951 384.873L416.49 384.03C414.551 382.79 412.579 381.669 410.576 380.667L410.128 381.561ZM415.951 384.873L415.412 385.715C416.24 386.245 416.7 386.806 416.914 387.371C417.126 387.93 417.143 388.611 416.862 389.471L417.812 389.781L418.763 390.092C419.152 388.902 419.193 387.74 418.784 386.662C418.378 385.591 417.573 384.723 416.49 384.03L415.951 384.873ZM417.812 389.781L416.862 389.471C416.479 390.641 416.395 391.787 416.667 392.883C416.938 393.979 417.547 394.949 418.431 395.796L419.122 395.074L419.814 394.351C419.155 393.72 418.773 393.07 418.608 392.402C418.442 391.733 418.475 390.973 418.763 390.092L417.812 389.781ZM419.122 395.074L418.431 395.796C419.049 396.388 419.278 396.951 419.276 397.506C419.275 398.095 419.013 398.844 418.31 399.777L419.109 400.379L419.907 400.981C420.756 399.855 421.273 398.691 421.276 397.511C421.28 396.297 420.739 395.237 419.814 394.351L419.122 395.074ZM419.109 400.379L418.31 399.777C417.442 400.928 416.968 402.156 417.157 403.41C417.347 404.665 418.162 405.699 419.331 406.543L419.917 405.732L420.502 404.921C419.58 404.255 419.215 403.642 419.135 403.112C419.055 402.582 419.223 401.889 419.907 400.981L419.109 400.379ZM419.917 405.732L419.331 406.543C420.265 407.217 420.609 407.81 420.678 408.288C420.744 408.756 420.583 409.384 419.881 410.221L420.647 410.863L421.413 411.506C422.315 410.432 422.835 409.249 422.658 408.006C422.482 406.774 421.66 405.757 420.502 404.921L419.917 405.732ZM420.647 410.863L419.881 410.221C418.173 412.256 417.332 414.359 417.681 416.475L418.667 416.312L419.654 416.149C419.435 414.823 419.914 413.293 421.413 411.506L420.647 410.863ZM418.667 416.312L417.681 416.475C417.954 418.13 418.057 419.791 417.991 421.461L418.99 421.5L419.99 421.54C420.061 419.734 419.949 417.937 419.654 416.149L418.667 416.312ZM418.99 421.5L417.991 421.461C417.912 423.461 418.581 425.424 419.894 427.329L420.717 426.762L421.541 426.195C420.414 424.559 419.931 423.014 419.99 421.54L418.99 421.5ZM420.717 426.762L419.894 427.329C421.041 428.995 421.696 430.625 421.905 432.226L422.897 432.097L423.888 431.967C423.631 429.996 422.833 428.071 421.541 426.195L420.717 426.762ZM422.897 432.097L421.905 432.226C422.073 433.515 421.457 434.906 419.525 436.417L420.141 437.204L420.757 437.992C422.966 436.264 424.186 434.25 423.888 431.967L422.897 432.097ZM420.141 437.204L419.525 436.417C418.384 437.309 417.586 438.355 417.393 439.58C417.197 440.826 417.664 442.014 418.533 443.096L419.312 442.47L420.092 441.845C419.443 441.035 419.289 440.4 419.369 439.891C419.452 439.36 419.827 438.719 420.757 437.992L420.141 437.204ZM419.312 442.47L418.533 443.096C419.2 443.928 419.422 444.605 419.4 445.151C419.379 445.684 419.118 446.283 418.416 446.951L419.106 447.675L419.796 448.399C420.751 447.489 421.351 446.431 421.399 445.23C421.446 444.041 420.943 442.904 420.092 441.845L419.312 442.47ZM419.106 447.675L418.416 446.951C417.473 447.85 416.853 448.878 416.697 450.037C416.54 451.198 416.869 452.346 417.547 453.447L418.399 452.923L419.25 452.398C418.745 451.579 418.6 450.892 418.679 450.304C418.759 449.714 419.084 449.078 419.796 448.399L419.106 447.675ZM418.399 452.923L417.547 453.447C418.613 455.177 418.779 456.649 418.274 457.965L419.208 458.323L420.142 458.681C420.925 456.637 420.551 454.509 419.25 452.398L418.399 452.923ZM419.208 458.323L418.274 457.965C417.659 459.568 416.835 461.138 415.796 462.672L416.624 463.233L417.452 463.794C418.57 462.141 419.468 460.437 420.142 458.681L419.208 458.323ZM416.624 463.233L415.796 462.672C414.594 464.448 414.075 466.381 414.278 468.439L415.274 468.341L416.269 468.243C416.114 466.678 416.496 465.206 417.452 463.794L416.624 463.233ZM415.274 468.341L414.278 468.439C414.436 470.032 414.096 471.515 413.245 472.919L414.101 473.437L414.956 473.956C416.027 472.188 416.469 470.274 416.269 468.243L415.274 468.341ZM414.101 473.437L413.245 472.919C412.109 474.795 411.979 476.878 412.767 479.066L413.707 478.728L414.648 478.389C414.039 476.696 414.171 475.252 414.956 473.956L414.101 473.437ZM413.707 478.728L412.767 479.066C413.383 480.779 413.287 482.243 412.575 483.549L413.453 484.027L414.331 484.506C415.355 482.627 415.429 480.558 414.648 478.389L413.707 478.728ZM413.453 484.027L412.575 483.549C411.656 485.235 411.037 487.001 410.723 488.845L411.709 489.012L412.695 489.18C412.97 487.562 413.514 486.005 414.331 484.506L413.453 484.027ZM411.709 489.012L410.723 488.845C410.489 490.218 409.586 491.513 407.773 492.699L408.32 493.536L408.867 494.373C410.983 492.989 412.339 491.269 412.695 489.18L411.709 489.012ZM408.32 493.536L407.773 492.699C406.608 493.461 405.846 494.499 405.804 495.823C405.765 497.074 406.382 498.339 407.366 499.577L408.148 498.955L408.931 498.332C408.065 497.243 407.786 496.441 407.803 495.886C407.818 495.404 408.068 494.896 408.867 494.373L408.32 493.536ZM408.148 498.955L407.366 499.577C409.151 501.822 409.46 503.41 409.011 504.533L409.939 504.905L410.868 505.277C411.731 503.121 410.847 500.742 408.931 498.332L408.148 498.955ZM409.939 504.905L409.011 504.533C408.465 505.898 407.288 507.162 405.322 508.281L405.817 509.15L406.312 510.019C408.529 508.757 410.101 507.191 410.868 505.277L409.939 504.905ZM405.817 509.15L405.322 508.281C404.174 508.935 403.27 509.73 402.692 510.697C402.105 511.678 401.893 512.772 402.034 513.936L403.027 513.817L404.02 513.697C403.928 512.941 404.065 512.297 404.409 511.723C404.761 511.134 405.368 510.557 406.312 510.019L405.817 509.15ZM403.027 513.817L402.034 513.936C402.243 515.665 401.954 517.18 401.198 518.521L402.07 519.012L402.941 519.503C403.925 517.757 404.274 515.808 404.02 513.697L403.027 513.817ZM402.07 519.012L401.198 518.521C400.284 520.144 399.627 521.821 399.236 523.551L400.211 523.772L401.186 523.992C401.533 522.463 402.115 520.967 402.941 519.503L402.07 519.012ZM400.211 523.772L399.235 523.555L398.714 525.905L399.691 526.122L400.667 526.338L401.187 523.988L400.211 523.772ZM399.691 526.122L398.748 525.788L398.715 525.882L399.657 526.216L400.6 526.55L400.633 526.455L399.691 526.122Z" fill="#E6BE51"/>
<path d="M-92.9055 174.33L-93.142 173.358L-93.1883 173.37L-93.2332 173.385L-92.9055 174.33ZM-84.8428 174.21L-85.1752 175.153L-84.8428 174.21ZM-65.135 167.232L-65.8862 166.572L-65.135 167.232ZM-54.7278 166.302L-55.2522 167.153L-54.7278 166.302ZM-49.4921 165.841L-50.2134 165.149L-49.4921 165.841ZM-29.3674 157.545L-29.1475 158.521L-29.3674 157.545ZM16.5746 169.035L15.6772 169.476L16.5746 169.035ZM20.6276 172.786L20.9754 171.848L20.6276 172.786ZM22.493 177.672L23.4707 177.882L22.493 177.672ZM27.3994 186.186L26.5686 185.63L27.3994 186.186ZM30.1894 191.457L29.8431 192.395L30.1894 191.457ZM30.4788 195.972L29.9946 195.097L30.4788 195.972ZM26.7262 201.192L25.7971 201.562L26.7262 201.192ZM28.5262 206.566L27.5625 206.833L28.5262 206.566ZM21.1187 220.396L20.2597 219.884L21.1187 220.396ZM22.985 226.649L22.205 227.275L22.985 226.649ZM21.3163 231.603L21.1244 230.621L21.3163 231.603ZM16.0692 240.92L15.7347 239.978L16.0692 240.92ZM13.5845 261.663L14.3556 261.027L13.5845 261.663ZM12.8255 267.198L13.5025 267.934L12.8255 267.198ZM22.1834 284.614L23.1641 284.418L22.1834 284.614ZM23.204 291.352L22.2107 291.468L23.204 291.352ZM32.898 296.488L33.4372 295.646L32.898 296.488ZM64.7074 293.378L65.2325 292.527L64.7074 293.378ZM70.0873 292.987L69.2891 292.385L70.0873 292.987ZM75.0177 291.016L75.2001 290.033L75.0177 291.016ZM80.192 289.871L79.5715 289.087L80.192 289.871ZM89.7395 285.762L90.055 284.813L89.7395 285.762ZM94.6534 283.973L93.8132 283.431L94.6534 283.973ZM99.3005 281.855L99.5406 280.884L99.3005 281.855ZM119.346 280.549L119.295 281.548L119.346 280.549ZM129.199 283.096L129.164 284.095L129.199 283.096ZM132.712 286.463L131.726 286.629L132.712 286.463ZM140.099 293.899L140.803 293.189V293.189L140.099 293.899ZM144.253 303.196L145.08 303.759L144.253 303.196ZM145.437 314.113L146.385 313.793L145.437 314.113ZM145.745 319.561L146.717 319.795L145.745 319.561ZM141.778 324.026L142.257 324.904L141.778 324.026ZM135.717 344.172L136.633 343.77L135.717 344.172ZM134.586 349.354L135.155 350.177V350.177L134.586 349.354ZM129.05 352.915L129.564 353.772L129.05 352.915ZM124.334 362.647L125.23 363.092L124.334 362.647ZM125.095 368.327L124.247 368.857L125.095 368.327ZM128.702 374.254L127.841 374.762L128.702 374.254ZM126.326 379.478L126.856 380.326L126.326 379.478ZM123.465 384.665L124.387 384.279L123.465 384.665ZM125.275 390.055L126.244 389.81L125.275 390.055ZM134.272 403.284L134.414 404.274L134.272 403.284ZM140.442 404.327L141.118 403.589L140.442 404.327ZM143.919 408.795L144.779 408.286L143.919 408.795ZM154.232 409.666L154.945 408.964L154.232 409.666ZM159.23 411.731L159.111 410.738L159.23 411.731ZM169.829 410.013L170.524 409.294L169.829 410.013ZM174.768 408.889L175.725 409.18L174.768 408.889ZM178.457 403.113L178.925 403.997L178.457 403.113ZM183.254 401.161L182.973 400.202L183.254 401.161ZM188.01 399.006L187.477 398.159L188.01 399.006ZM198.593 397.228L198.062 396.38L198.593 397.228ZM204.515 398.645L203.896 399.43L204.515 398.645ZM214.616 396.597L214.18 397.497L214.616 396.597ZM219.858 397.141L220.19 398.084L219.858 397.141ZM230.343 393.942L230.939 394.745L230.343 393.942ZM235.827 393.555L235.172 394.311L235.827 393.555ZM239.387 398.43L240.303 398.027L239.387 398.43ZM244.989 400.555L244.815 399.57L244.989 400.555ZM249.489 410.224L249.966 409.345V409.345L249.489 410.224ZM253.054 414.027L252.132 414.413L253.054 414.027ZM256.118 429.312L256.904 428.693L256.118 429.312ZM260.446 434.024L259.754 434.745L260.446 434.024ZM259.245 439.282L258.639 438.486L259.245 439.282ZM258.412 449.951L257.876 450.796L258.412 449.951ZM258.904 455.071L259.421 455.928L258.904 455.071ZM259.539 465.811L258.619 465.419L259.539 465.811ZM259.742 476.623L260.624 477.095L259.742 476.623ZM255.923 481.245L255.269 480.488L255.923 481.245ZM254.691 486.418L255.613 486.03L254.691 486.418ZM255.796 492.131L256.794 492.192L255.796 492.131ZM244.829 505.304L245.826 505.238L244.829 505.304ZM243.101 510.154L242.365 509.477L243.101 510.154ZM243.184 513.223L242.738 514.118L242.758 514.128L242.779 514.137L243.184 513.223ZM245.209 514.121L246.154 514.45L246.456 513.58L245.615 513.207L245.209 514.121ZM-93 174.363L-92.6723 175.308L-92.5778 175.275L-92.9055 174.33L-93.2332 173.385L-93.3277 173.418L-93 174.363ZM-92.9055 174.33L-92.669 175.302C-89.4461 174.517 -86.9777 174.518 -85.1752 175.153L-84.8428 174.21L-84.5104 173.267C-86.8303 172.449 -89.737 172.53 -93.142 173.358L-92.9055 174.33ZM-84.8428 174.21L-85.1752 175.153C-84.0181 175.561 -82.8898 175.695 -81.817 175.487C-80.7365 175.279 -79.7858 174.738 -78.9719 173.917L-79.682 173.213L-80.392 172.509C-80.9575 173.079 -81.5566 173.4 -82.1963 173.524C-82.8438 173.649 -83.6063 173.585 -84.5104 173.267L-84.8428 174.21ZM-79.682 173.213L-78.9719 173.917C-77.77 172.705 -76.43 172.157 -74.9073 172.195L-74.8823 171.195L-74.8573 170.195C-76.9754 170.142 -78.8352 170.939 -80.392 172.509L-79.682 173.213ZM-74.8823 171.195L-74.9073 172.195C-72.9774 172.243 -71.1323 171.978 -69.3786 171.393L-69.6947 170.444L-70.0109 169.496C-71.533 170.003 -73.1463 170.238 -74.8573 170.195L-74.8823 171.195ZM-69.6947 170.444L-69.3786 171.393C-67.5379 170.78 -65.8758 169.59 -64.3837 167.892L-65.135 167.232L-65.8862 166.572C-67.1979 168.065 -68.5756 169.017 -70.0109 169.496L-69.6947 170.444ZM-65.135 167.232L-64.3837 167.892C-63.1177 166.451 -61.7639 165.747 -60.3121 165.64L-60.3861 164.642L-60.4601 163.645C-62.5364 163.799 -64.3485 164.822 -65.8862 166.572L-65.135 167.232ZM-60.3861 164.642L-60.3121 165.64C-58.8179 165.529 -57.1403 165.99 -55.2522 167.153L-54.7278 166.302L-54.2033 165.45C-56.3317 164.139 -58.4263 163.494 -60.4601 163.645L-60.3861 164.642ZM-54.7278 166.302L-55.2522 167.153C-54.1276 167.846 -52.9752 168.211 -51.8251 168.11C-50.661 168.008 -49.6407 167.44 -48.7707 166.534L-49.4921 165.841L-50.2134 165.149C-50.8257 165.786 -51.4191 166.067 -52.0002 166.118C-52.5953 166.17 -53.3196 165.994 -54.2033 165.45L-54.7278 166.302ZM-49.4921 165.841L-48.7707 166.534C-47.4365 165.144 -46.0723 164.551 -44.6551 164.58L-44.6343 163.58L-44.6136 162.58C-46.709 162.537 -48.5833 163.451 -50.2134 165.149L-49.4921 165.841ZM-44.6343 163.58L-44.6551 164.58C-42.9592 164.615 -41.2529 164.804 -39.5353 165.146L-39.3397 164.166L-39.144 163.185C-40.9734 162.82 -42.7968 162.618 -44.6136 162.58L-44.6343 163.58ZM-39.3397 164.166L-39.5353 165.146C-37.1998 165.612 -35.1893 164.327 -33.5316 161.999L-34.3463 161.419L-35.1609 160.839C-36.6142 162.88 -37.9327 163.427 -39.144 163.185L-39.3397 164.166ZM-34.3463 161.419L-33.5316 161.999C-32.0515 159.92 -30.5778 158.843 -29.1475 158.521L-29.3674 157.545L-29.5873 156.57C-31.6846 157.042 -33.5301 158.548 -35.1609 160.839L-34.3463 161.419ZM-29.3674 157.545L-29.1475 158.521C-28.061 158.276 -26.6444 158.91 -24.896 161.615L-24.0562 161.072L-23.2164 160.529C-25.022 157.736 -27.1462 156.019 -29.5873 156.57L-29.3674 157.545ZM-24.0562 161.072L-24.896 161.615C-23.9692 163.049 -22.8803 164.122 -21.5662 164.359C-20.1627 164.612 -18.9446 163.852 -17.9538 162.681L-18.7173 162.035L-19.4809 161.389C-20.2723 162.325 -20.8352 162.458 -21.2113 162.39C-21.6768 162.306 -22.3661 161.845 -23.2164 160.529L-24.0562 161.072ZM-18.7173 162.035L-17.9538 162.681C-17.1311 161.708 -16.4979 161.406 -16.0638 161.382C-15.6725 161.359 -15.1356 161.55 -14.448 162.385L-13.6761 161.749L-12.9042 161.114C-13.7952 160.032 -14.8878 159.312 -16.1769 159.385C-17.4232 159.455 -18.5214 160.255 -19.4809 161.389L-18.7173 162.035ZM-13.6761 161.749L-14.448 162.385C-12.7773 164.414 -10.9141 165.645 -8.84621 165.748L-8.7966 164.749L-8.74699 163.75C-10.028 163.687 -11.4178 162.918 -12.9042 161.114L-13.6761 161.749ZM-8.7966 164.749L-8.84621 165.748C-6.74594 165.852 -4.53194 164.593 -2.25494 162.441L-2.94186 161.714L-3.62877 160.987C-5.80923 163.048 -7.49839 163.812 -8.74699 163.75L-8.7966 164.749ZM-2.94186 161.714L-2.25494 162.441C-1.20071 161.444 -0.293068 160.887 0.467293 160.661C1.19009 160.446 1.79841 160.521 2.36634 160.851L2.86833 159.986L3.37032 159.121C2.29352 158.496 1.11111 158.383 -0.102829 158.744C-1.2792 159.093 -2.45428 159.877 -3.62877 160.987L-2.94186 161.714ZM2.86833 159.986L2.36634 160.851C3.70908 161.63 4.8212 163.17 5.58736 165.701L6.54445 165.411L7.50154 165.121C6.65567 162.328 5.31705 160.251 3.37032 159.121L2.86833 159.986ZM6.54445 165.411L5.58736 165.701C6.02956 167.161 6.76711 168.334 7.94312 168.913C9.12831 169.497 10.4892 169.346 11.8733 168.768L11.4881 167.845L11.1029 166.923C9.99725 167.384 9.2893 167.347 8.82661 167.119C8.35474 166.887 7.86535 166.323 7.50154 165.121L6.54445 165.411ZM11.4881 167.845L11.8733 168.768C13.0238 168.288 13.8407 168.206 14.3993 168.337C14.9035 168.455 15.3334 168.777 15.6772 169.476L16.5746 169.035L17.4719 168.594C16.9145 167.461 16.046 166.668 14.8548 166.39C13.7178 166.124 12.4421 166.364 11.1029 166.923L11.4881 167.845ZM16.5746 169.035L15.6772 169.476C16.6835 171.523 18.2229 172.96 20.2798 173.723L20.6276 172.786L20.9754 171.848C19.4307 171.275 18.268 170.213 17.4719 168.594L16.5746 169.035ZM20.6276 172.786L20.2798 173.723C20.9411 173.969 21.3133 174.349 21.5103 174.865C21.7251 175.427 21.773 176.264 21.5154 177.461L22.493 177.672L23.4707 177.882C23.7703 176.49 23.7859 175.218 23.3788 174.151C22.954 173.039 22.115 172.271 20.9754 171.848L20.6276 172.786ZM22.493 177.672L21.5154 177.461C21.2045 178.906 21.3009 180.251 22.0515 181.315C22.7984 182.373 24.0374 182.932 25.5152 183.159L25.6669 182.171L25.8186 181.182C24.6233 180.999 23.9968 180.603 23.6858 180.162C23.3783 179.726 23.2244 179.026 23.4707 177.882L22.493 177.672ZM25.6669 182.171L25.5152 183.159C26.7943 183.355 27.1184 183.72 27.1866 183.878C27.2576 184.043 27.2972 184.542 26.5686 185.63L27.3994 186.186L28.2303 186.743C29.0197 185.564 29.5296 184.26 29.023 183.086C28.5137 181.906 27.2125 181.396 25.8186 181.182L25.6669 182.171ZM27.3994 186.186L26.5686 185.63C25.6918 186.939 25.375 188.35 26.0746 189.672C26.7174 190.886 28.0911 191.748 29.8431 192.395L30.1894 191.457L30.5358 190.519C28.9097 189.918 28.1294 189.278 27.8422 188.736C27.6119 188.301 27.589 187.7 28.2303 186.743L27.3994 186.186ZM30.1894 191.457L29.8431 192.395C30.6422 192.69 31.1706 192.974 31.4867 193.225C31.641 193.347 31.7218 193.443 31.7617 193.506C31.7808 193.536 31.7893 193.556 31.7931 193.567C31.7967 193.578 31.7972 193.583 31.7973 193.585C31.7974 193.587 31.7977 193.593 31.7951 193.606C31.7924 193.62 31.7858 193.643 31.7696 193.679C31.7359 193.751 31.6652 193.863 31.5256 194.011C31.2402 194.313 30.7492 194.679 29.9946 195.097L30.4788 195.972L30.9629 196.847C31.8008 196.383 32.4922 195.9 32.979 195.385C33.462 194.874 33.8422 194.222 33.7932 193.457C33.7439 192.687 33.2792 192.093 32.7285 191.657C32.1761 191.219 31.4256 190.847 30.5358 190.519L30.1894 191.457ZM30.4788 195.972L29.9946 195.097C28.351 196.006 27.0919 196.969 26.3398 198.015C25.5524 199.11 25.3074 200.331 25.7971 201.562L26.7262 201.192L27.6554 200.822C27.4616 200.335 27.5003 199.827 27.9638 199.182C28.4625 198.488 29.4214 197.7 30.9629 196.847L30.4788 195.972ZM26.7262 201.192L25.7971 201.562C26.4665 203.244 27.0551 205.001 27.5625 206.833L28.5262 206.566L29.4899 206.299C28.9642 204.401 28.3528 202.575 27.6554 200.822L26.7262 201.192ZM28.5262 206.566L27.5625 206.833C28.0437 208.571 28.1416 210.228 27.8746 211.816L28.8607 211.982L29.8469 212.148C30.1668 210.245 30.0417 208.292 29.4899 206.299L28.5262 206.566ZM28.8607 211.982L27.8746 211.816C27.6438 213.189 26.7463 214.432 24.9299 215.512L25.4409 216.371L25.9519 217.231C28.1084 215.949 29.4907 214.266 29.8469 212.148L28.8607 211.982ZM25.4409 216.371L24.9299 215.512C22.8448 216.751 21.263 218.2 20.2597 219.884L21.1187 220.396L21.9778 220.908C22.7646 219.587 24.0643 218.353 25.9519 217.231L25.4409 216.371ZM21.1187 220.396L20.2597 219.884C19.6353 220.932 19.5856 222.132 19.9557 223.372C20.3187 224.588 21.0956 225.892 22.205 227.275L22.985 226.649L23.765 226.023C22.7352 224.74 22.1314 223.668 21.8722 222.8C21.6203 221.956 21.7071 221.362 21.9778 220.908L21.1187 220.396ZM22.985 226.649L22.205 227.275C23.2545 228.583 23.3228 229.277 23.2246 229.568C23.1352 229.834 22.708 230.312 21.1244 230.621L21.3163 231.603L21.5082 232.584C23.1763 232.258 24.6532 231.592 25.12 230.207C25.5781 228.847 24.8548 227.382 23.765 226.023L22.985 226.649ZM21.3163 231.603L21.1244 230.621C19.4372 230.951 18.0319 231.544 17.2887 232.617C16.4766 233.789 16.6748 235.173 17.3627 236.493L18.2494 236.03L19.1361 235.568C18.6168 234.572 18.7225 234.06 18.9328 233.756C19.2119 233.353 19.9436 232.89 21.5082 232.584L21.3163 231.603ZM18.2494 236.03L17.3627 236.493C17.893 237.51 17.8861 238.157 17.6964 238.582C17.495 239.034 16.9533 239.546 15.7347 239.978L16.0692 240.92L16.4036 241.863C17.8458 241.351 18.9977 240.575 19.5231 239.397C20.0602 238.192 19.8131 236.867 19.1361 235.568L18.2494 236.03ZM16.0692 240.92L15.7347 239.978C12.9213 240.977 11.0571 242.605 10.8876 245.045L11.8852 245.115L12.8828 245.184C12.9705 243.921 13.8956 242.753 16.4036 241.863L16.0692 240.92ZM11.8852 245.115L10.8876 245.045C10.7649 246.812 10.4218 248.52 9.85869 250.171L10.8052 250.494L11.7517 250.816C12.3713 248.999 12.7482 247.121 12.8828 245.184L11.8852 245.115ZM10.8052 250.494L9.85869 250.171C9.20079 252.1 9.13845 254.131 9.64423 256.238L10.6166 256.005L11.589 255.772C11.1634 253.999 11.2268 252.355 11.7517 250.816L10.8052 250.494ZM10.6166 256.005L9.64423 256.238C10.1516 258.352 11.2219 260.373 12.8135 262.3L13.5845 261.663L14.3556 261.027C12.9213 259.29 12.013 257.538 11.589 255.772L10.6166 256.005ZM13.5845 261.663L12.8135 262.3C13.4442 263.064 13.6174 263.712 13.5388 264.285C13.4558 264.89 13.0653 265.618 12.1485 266.462L12.8255 267.198L13.5025 267.934C14.6047 266.92 15.3501 265.797 15.5202 264.557C15.6946 263.286 15.2378 262.095 14.3556 261.027L13.5845 261.663ZM12.8255 267.198L12.1485 266.462C11.0848 267.44 10.2846 268.667 10.7192 270.004C10.9238 270.633 11.3665 271.133 11.9023 271.53C12.4384 271.927 13.1225 272.262 13.9183 272.553L14.2612 271.613L14.6041 270.674C13.9118 270.421 13.4201 270.165 13.0925 269.923C12.7646 269.68 12.6558 269.492 12.6212 269.385C12.5772 269.25 12.5472 268.812 13.5025 267.934L12.8255 267.198ZM14.2612 271.613L13.9183 272.553C15.3296 273.068 16.1225 273.638 16.4989 274.172C16.8255 274.635 16.9103 275.17 16.6201 275.923L17.5531 276.283L18.4862 276.643C18.9774 275.369 18.9043 274.113 18.1336 273.019C17.4127 271.997 16.1689 271.245 14.6041 270.674L14.2612 271.613ZM17.5531 276.283L16.6201 275.923C16.1818 277.06 16.0381 278.178 16.3815 279.191C16.733 280.228 17.5293 280.966 18.575 281.456L18.9994 280.55L19.4238 279.645C18.7238 279.317 18.4062 278.934 18.2757 278.549C18.137 278.14 18.1429 277.533 18.4862 276.643L17.5531 276.283ZM18.9994 280.55L18.575 281.456C20.033 282.139 20.8878 283.23 21.2027 284.809L22.1834 284.614L23.1641 284.418C22.725 282.216 21.4572 280.598 19.4238 279.645L18.9994 280.55ZM22.1834 284.614L21.2027 284.809C21.5729 286.666 21.9094 288.884 22.2107 291.468L23.204 291.352L24.1973 291.236C23.8917 288.616 23.5477 286.343 23.1641 284.418L22.1834 284.614ZM23.204 291.352L22.2107 291.468C22.3772 292.894 22.8297 294.112 23.6991 294.955C24.5903 295.819 25.7759 296.153 27.1068 296.089L27.0588 295.09L27.0107 294.091C26.0752 294.136 25.4852 293.901 25.0915 293.519C24.676 293.116 24.3343 292.41 24.1973 291.236L23.204 291.352ZM27.0588 295.09L27.1068 296.089C29.2032 295.988 30.9361 296.42 32.3588 297.331L32.898 296.488L33.4372 295.646C31.6069 294.474 29.447 293.974 27.0107 294.091L27.0588 295.09ZM32.898 296.488L32.3588 297.331C34.1225 298.46 36.0389 299.104 38.0951 299.252L38.1672 298.255L38.2394 297.258C36.5228 297.133 34.9264 296.6 33.4372 295.646L32.898 296.488ZM38.1672 298.255L38.0951 299.252C40.0491 299.394 41.978 299.335 43.8805 299.075L43.7453 298.084L43.61 297.094C41.848 297.334 40.0582 297.389 38.2394 297.258L38.1672 298.255ZM43.7453 298.084L43.8805 299.075C45.9487 298.793 47.8402 297.825 49.5488 296.243L48.8694 295.51L48.19 294.776C46.731 296.127 45.2064 296.876 43.61 297.094L43.7453 298.084ZM48.8694 295.51L49.5488 296.243C50.2293 295.613 50.8974 295.276 51.5544 295.159C52.2099 295.042 52.9365 295.13 53.7603 295.486L54.1569 294.568L54.5535 293.65C53.4362 293.167 52.3109 292.993 51.2038 293.19C50.0983 293.387 49.0933 293.94 48.19 294.776L48.8694 295.51ZM54.1569 294.568L53.7603 295.486C54.8734 295.967 55.9865 296.141 57.0651 295.917C58.146 295.693 59.0878 295.091 59.8936 294.204L59.1534 293.532L58.4132 292.859C57.8293 293.502 57.2434 293.838 56.6588 293.959C56.0719 294.081 55.3816 294.008 54.5535 293.65L54.1569 294.568ZM59.1534 293.532L59.8936 294.204C60.4287 293.615 60.9912 293.363 61.6119 293.345C62.2715 293.327 63.1184 293.572 64.1822 294.229L64.7074 293.378L65.2325 292.527C63.9835 291.756 62.7482 291.313 61.5565 291.346C60.3259 291.38 59.2678 291.918 58.4132 292.859L59.1534 293.532ZM64.7074 293.378L64.1822 294.229C65.4312 295 66.6707 295.434 67.8595 295.348C69.095 295.258 70.1086 294.619 70.8855 293.59L70.0873 292.987L69.2891 292.385C68.7923 293.043 68.2724 293.313 67.7146 293.353C67.1101 293.397 66.2965 293.183 65.2325 292.527L64.7074 293.378ZM70.0873 292.987L70.8855 293.59C71.434 292.863 72.0245 292.406 72.6465 292.157C73.2664 291.909 73.985 291.841 74.8354 291.999L75.0177 291.016L75.2001 290.033C74.0372 289.817 72.9275 289.891 71.9039 290.3C70.8824 290.709 70.0143 291.424 69.2891 292.385L70.0873 292.987ZM75.0177 291.016L74.8354 291.999C77.0949 292.418 79.1216 291.993 80.8125 290.656L80.192 289.871L79.5715 289.087C78.3898 290.022 76.967 290.36 75.2001 290.033L75.0177 291.016ZM80.192 289.871L80.8125 290.656C82.25 289.518 83.6857 288.377 85.1197 287.231L84.4954 286.45L83.8712 285.668C82.4398 286.812 81.0065 287.952 79.5715 289.087L80.192 289.871ZM84.4954 286.45L85.1197 287.231C86.2354 286.339 87.6128 286.108 89.424 286.711L89.7395 285.762L90.055 284.813C87.7394 284.043 85.6208 284.27 83.8712 285.668L84.4954 286.45ZM89.7395 285.762L89.424 286.711C90.6154 287.107 91.7786 287.162 92.8575 286.769C93.933 286.377 94.8027 285.586 95.4935 284.516L94.6534 283.973L93.8132 283.431C93.2915 284.239 92.736 284.685 92.1735 284.889C91.6144 285.093 90.9269 285.103 90.055 284.813L89.7395 285.762ZM94.6534 283.973L95.4935 284.516C96.028 283.688 96.5856 283.197 97.1393 282.945C97.6802 282.698 98.3041 282.639 99.0604 282.826L99.3005 281.855L99.5406 280.884C98.4114 280.605 97.318 280.665 96.3098 281.125C95.3145 281.579 94.4913 282.38 93.8132 283.431L94.6534 283.973ZM99.3005 281.855L99.0604 282.826C101 283.306 102.854 283.589 104.618 283.67L104.664 282.671L104.71 281.672C103.094 281.598 101.372 281.337 99.5406 280.884L99.3005 281.855ZM104.664 282.671L104.618 283.67C106.69 283.765 108.572 282.784 110.244 280.997L109.514 280.314L108.784 279.631C107.369 281.142 106.018 281.732 104.71 281.672L104.664 282.671ZM109.514 280.314L110.244 280.997C110.93 280.264 111.557 279.89 112.115 279.753C112.653 279.621 113.227 279.684 113.88 280.02L114.337 279.131L114.795 278.242C113.775 277.717 112.709 277.548 111.639 277.81C110.589 278.068 109.641 278.714 108.784 279.631L109.514 280.314ZM114.337 279.131L113.88 280.02C115.663 280.937 117.47 281.455 119.295 281.548L119.346 280.549L119.397 279.551C117.889 279.474 116.358 279.046 114.795 278.242L114.337 279.131ZM119.346 280.549L119.295 281.548C120.817 281.626 122.24 282.016 123.574 282.719L124.041 281.835L124.507 280.95C122.914 280.11 121.207 279.643 119.397 279.551L119.346 280.549ZM124.041 281.835L123.574 282.719C125.195 283.574 127.067 284.022 129.164 284.095L129.199 283.096L129.234 282.096C127.381 282.032 125.814 281.639 124.507 280.95L124.041 281.835ZM129.199 283.096L129.164 284.095C129.962 284.123 130.495 284.355 130.867 284.711C131.25 285.078 131.566 285.678 131.726 286.629L132.712 286.463L133.698 286.297C133.492 285.072 133.039 284.023 132.251 283.267C131.451 282.501 130.411 282.137 129.234 282.096L129.199 283.096ZM132.712 286.463L131.726 286.629C132.135 289.05 133.298 290.845 135.309 291.776L135.729 290.868L136.149 289.961C134.872 289.37 134.024 288.228 133.698 286.297L132.712 286.463ZM135.729 290.868L135.309 291.776C136.848 292.489 138.209 293.432 139.395 294.609L140.099 293.899L140.803 293.189C139.45 291.846 137.897 290.77 136.149 289.961L135.729 290.868ZM140.099 293.899L139.395 294.609C140.663 295.867 142.019 297.219 143.462 298.666L144.17 297.96L144.878 297.254C143.433 295.805 142.075 294.45 140.803 293.189L140.099 293.899ZM144.17 297.96L143.462 298.666C144.034 299.24 144.265 299.801 144.274 300.371C144.283 300.968 144.051 301.715 143.426 302.634L144.253 303.196L145.08 303.759C145.844 302.635 146.292 301.487 146.274 300.339C146.255 299.163 145.749 298.127 144.878 297.254L144.17 297.96ZM144.253 303.196L143.426 302.634C141.914 304.859 141.454 307.1 142.423 309.206L143.331 308.788L144.24 308.371C143.659 307.108 143.814 305.621 145.08 303.759L144.253 303.196ZM143.331 308.788L142.423 309.206C143.182 310.857 143.871 312.599 144.49 314.433L145.437 314.113L146.385 313.793C145.745 311.897 145.03 310.089 144.24 308.371L143.331 308.788ZM145.437 314.113L144.49 314.433C145.064 316.135 145.15 317.759 144.773 319.327L145.745 319.561L146.717 319.795C147.189 317.829 147.07 315.821 146.385 313.793L145.437 314.113ZM145.745 319.561L144.773 319.327C144.437 320.725 143.372 322.019 141.3 323.148L141.778 324.026L142.257 324.904C144.624 323.614 146.204 321.931 146.717 319.795L145.745 319.561ZM141.778 324.026L141.3 323.148C140.046 323.831 139.126 324.763 138.831 326.009C138.539 327.24 138.92 328.521 139.689 329.774L140.541 329.251L141.393 328.728C140.767 327.707 140.656 326.981 140.777 326.47C140.894 325.974 141.29 325.431 142.257 324.904L141.778 324.026ZM140.541 329.251L139.689 329.774C141.006 331.921 141.236 333.555 140.773 334.808L141.71 335.155L142.648 335.502C143.415 333.43 142.866 331.127 141.393 328.728L140.541 329.251ZM141.71 335.155L140.773 334.808C140.276 336.15 139.116 337.343 137.079 338.321L137.512 339.222L137.945 340.124C140.275 339.005 141.914 337.487 142.648 335.502L141.71 335.155ZM137.512 339.222L137.079 338.321C135.843 338.914 134.903 339.753 134.485 340.905C134.069 342.053 134.246 343.307 134.801 344.573L135.717 344.172L136.633 343.77C136.201 342.785 136.184 342.088 136.366 341.587C136.546 341.089 136.998 340.578 137.945 340.124L137.512 339.222ZM135.717 344.172L134.801 344.573C135.242 345.579 135.326 346.352 135.197 346.943C135.073 347.512 134.723 348.044 134.017 348.532L134.586 349.354L135.155 350.177C136.19 349.461 136.898 348.527 137.151 347.369C137.399 346.232 137.178 345.016 136.633 343.77L135.717 344.172ZM134.586 349.354L134.017 348.532C132.296 349.722 130.469 350.898 128.536 352.057L129.05 352.915L129.564 353.772C131.532 352.592 133.396 351.394 135.155 350.177L134.586 349.354ZM129.05 352.915L128.536 352.057C126.386 353.346 125.076 355.096 124.851 357.315L125.846 357.415L126.841 357.516C126.987 356.074 127.813 354.822 129.564 353.772L129.05 352.915ZM125.846 357.415L124.851 357.315C124.678 359.025 124.208 360.653 123.439 362.202L124.334 362.647L125.23 363.092C126.106 361.328 126.644 359.467 126.841 357.516L125.846 357.415ZM124.334 362.647L123.439 362.202C122.408 364.277 122.806 366.55 124.247 368.857L125.095 368.327L125.943 367.797C124.724 365.844 124.615 364.331 125.23 363.092L124.334 362.647ZM125.095 368.327L124.247 368.857C125.573 370.98 126.771 372.949 127.841 374.762L128.702 374.254L129.563 373.746C128.484 371.916 127.277 369.933 125.943 367.797L125.095 368.327ZM128.702 374.254L127.841 374.762C128.233 375.427 128.249 375.973 128.004 376.512C127.726 377.123 127.055 377.843 125.796 378.63L126.326 379.478L126.856 380.326C128.255 379.452 129.31 378.471 129.824 377.34C130.371 376.138 130.246 374.903 129.563 373.746L128.702 374.254ZM126.326 379.478L125.796 378.63C124.399 379.503 123.335 380.461 122.741 381.537C122.119 382.665 122.047 383.866 122.542 385.05L123.465 384.665L124.387 384.279C124.131 383.666 124.16 383.105 124.492 382.503C124.852 381.851 125.594 381.114 126.856 380.326L126.326 379.478ZM123.465 384.665L122.542 385.05C123.275 386.804 123.863 388.554 124.306 390.301L125.275 390.055L126.244 389.81C125.776 387.963 125.157 386.119 124.387 384.279L123.465 384.665ZM125.275 390.055L124.306 390.301C124.779 392.167 125.446 393.969 126.308 395.707L127.204 395.262L128.1 394.818C127.301 393.206 126.682 391.537 126.244 389.81L125.275 390.055ZM127.204 395.262L126.308 395.707C127.102 397.306 127.739 399.094 128.214 401.075L129.187 400.842L130.159 400.609C129.653 398.499 128.968 396.568 128.1 394.818L127.204 395.262ZM129.187 400.842L128.214 401.075C128.521 402.351 129.24 403.334 130.393 403.888C131.494 404.416 132.87 404.496 134.414 404.274L134.272 403.284L134.13 402.294C132.775 402.489 131.854 402.371 131.259 402.085C130.717 401.825 130.344 401.378 130.159 400.609L129.187 400.842ZM134.272 403.284L134.414 404.274C137.236 403.868 138.897 404.267 139.767 405.064L140.442 404.327L141.118 403.589C139.559 402.162 137.107 401.866 134.13 402.294L134.272 403.284ZM140.442 404.327L139.767 405.064C140.89 406.092 141.99 407.497 143.058 409.304L143.919 408.795L144.779 408.286C143.641 406.36 142.424 404.785 141.118 403.589L140.442 404.327ZM143.919 408.795L143.058 409.304C143.708 410.405 144.614 411.186 145.816 411.347C146.97 411.502 148.149 411.046 149.293 410.265L148.729 409.439L148.165 408.613C147.205 409.269 146.531 409.425 146.081 409.365C145.679 409.311 145.232 409.052 144.779 408.286L143.919 408.795ZM148.729 409.439L149.293 410.265C150.235 409.622 151.009 409.391 151.642 409.417C152.254 409.442 152.875 409.713 153.52 410.368L154.232 409.666L154.945 408.964C154.025 408.03 152.947 407.469 151.724 407.419C150.523 407.369 149.328 407.819 148.165 408.613L148.729 409.439ZM154.232 409.666L153.52 410.368C155.241 412.115 157.198 412.982 159.349 412.724L159.23 411.731L159.111 410.738C157.727 410.904 156.352 410.393 154.945 408.964L154.232 409.666ZM159.23 411.731L159.349 412.724C161.405 412.478 163.229 411.418 164.818 409.67L164.079 408.997L163.339 408.325C161.998 409.799 160.59 410.562 159.111 410.738L159.23 411.731ZM164.079 408.997L164.818 409.67C165.353 409.082 165.866 408.926 166.441 409.028C167.109 409.146 168.004 409.641 169.134 410.732L169.829 410.013L170.524 409.294C169.285 408.097 168.037 407.279 166.789 407.058C165.448 406.821 164.27 407.301 163.339 408.325L164.079 408.997ZM169.829 410.013L169.134 410.732C170.344 411.902 171.697 412.735 173.062 412.424C174.458 412.106 175.249 410.746 175.725 409.18L174.768 408.889L173.812 408.598C173.364 410.07 172.869 410.417 172.618 410.474C172.338 410.538 171.683 410.414 170.524 409.294L169.829 410.013ZM174.768 408.889L175.725 409.18C176.63 406.205 177.758 404.615 178.925 403.997L178.457 403.113L177.99 402.229C176.087 403.236 174.755 405.496 173.812 408.598L174.768 408.889ZM178.457 403.113L178.925 403.997C180.401 403.216 181.938 402.591 183.536 402.121L183.254 401.161L182.973 400.202C181.245 400.71 179.584 401.385 177.99 402.229L178.457 403.113ZM183.254 401.161L183.536 402.121C185.29 401.606 186.959 400.848 188.543 399.852L188.01 399.006L187.477 398.159C186.046 399.06 184.545 399.74 182.973 400.202L183.254 401.161ZM188.01 399.006L188.543 399.852C189.808 399.055 191.305 398.785 193.106 399.109L193.283 398.125L193.46 397.14C191.245 396.742 189.227 397.058 187.477 398.159L188.01 399.006ZM193.283 398.125L193.106 399.109C195.325 399.508 197.353 399.184 199.123 398.075L198.593 397.228L198.062 396.38C196.768 397.19 195.257 397.464 193.46 397.14L193.283 398.125ZM198.593 397.228L199.123 398.075C200.081 397.476 201.551 397.583 203.896 399.43L204.515 398.645L205.134 397.859C202.646 395.899 200.168 395.061 198.062 396.38L198.593 397.228ZM204.515 398.645L203.896 399.43C205.173 400.436 206.471 401.067 207.739 400.999C209.092 400.928 210.107 400.088 210.817 398.856L209.95 398.357L209.084 397.858C208.586 398.721 208.092 398.978 207.633 399.002C207.09 399.031 206.274 398.757 205.134 397.859L204.515 398.645ZM209.95 398.357L210.817 398.856C211.356 397.919 211.893 397.462 212.375 397.28C212.83 397.109 213.404 397.121 214.18 397.497L214.616 396.597L215.053 395.698C213.925 395.151 212.77 394.994 211.669 395.409C210.595 395.814 209.752 396.698 209.084 397.858L209.95 398.357ZM214.616 396.597L214.18 397.497C216.259 398.506 218.287 398.755 220.19 398.084L219.858 397.141L219.525 396.198C218.247 396.649 216.781 396.536 215.053 395.698L214.616 396.597ZM219.858 397.141L220.19 398.084C221.677 397.56 223.177 397.302 224.695 397.306L224.697 396.306L224.7 395.306C222.947 395.302 221.22 395.601 219.525 396.198L219.858 397.141ZM224.697 396.306L224.695 397.306C226.643 397.31 228.737 396.38 230.939 394.745L230.343 393.942L229.747 393.139C227.693 394.663 226.023 395.309 224.7 395.306L224.697 396.306ZM230.343 393.942L230.939 394.745C231.915 394.02 232.724 393.704 233.381 393.658C234.002 393.614 234.586 393.804 235.172 394.311L235.827 393.555L236.481 392.799C235.54 391.984 234.446 391.578 233.24 391.663C232.069 391.745 230.9 392.283 229.747 393.139L230.343 393.942ZM235.827 393.555L235.172 394.311C236.582 395.532 237.682 397.034 238.472 398.832L239.387 398.43L240.303 398.027C239.399 395.97 238.125 394.222 236.481 392.799L235.827 393.555ZM239.387 398.43L238.472 398.832C238.997 400.027 239.869 400.887 241.068 401.342C242.232 401.783 243.62 401.812 245.163 401.539L244.989 400.555L244.815 399.57C243.471 399.808 242.482 399.739 241.778 399.472C241.11 399.218 240.625 398.761 240.303 398.027L239.387 398.43ZM244.989 400.555L245.163 401.539C246.536 401.296 247.017 401.566 247.172 401.752C247.358 401.975 247.547 402.597 247.162 404.06L248.129 404.315L249.096 404.569C249.505 403.015 249.568 401.501 248.707 400.47C247.816 399.403 246.33 399.302 244.815 399.57L244.989 400.555ZM248.129 404.315L247.162 404.06C246.744 405.648 246.621 407.074 246.899 408.28C247.187 409.53 247.897 410.499 249.013 411.104L249.489 410.224L249.966 409.345C249.38 409.028 249.013 408.551 248.848 407.831C248.672 407.067 248.72 405.999 249.096 404.569L248.129 404.315ZM249.489 410.224L249.013 411.104C250.536 411.929 251.554 413.033 252.132 414.413L253.054 414.027L253.977 413.641C253.204 411.794 251.845 410.363 249.966 409.345L249.489 410.224ZM253.054 414.027L252.132 414.413C252.871 416.179 254.049 417.785 255.634 419.234L256.309 418.496L256.984 417.758C255.579 416.474 254.587 415.1 253.977 413.641L253.054 414.027ZM256.309 418.496L255.634 419.234C256.213 419.763 256.448 420.299 256.461 420.867C256.475 421.472 256.24 422.253 255.596 423.238L256.433 423.785L257.27 424.332C258.038 423.158 258.488 421.977 258.46 420.82C258.432 419.625 257.899 418.595 256.984 417.758L256.309 418.496ZM256.433 423.785L255.596 423.238C254.83 424.409 254.362 425.578 254.297 426.73C254.23 427.909 254.589 428.988 255.333 429.932L256.118 429.312L256.904 428.693C256.445 428.111 256.256 427.507 256.293 426.843C256.333 426.153 256.623 425.321 257.27 424.332L256.433 423.785ZM256.118 429.312L255.333 429.932C256.569 431.499 258.044 433.104 259.754 434.745L260.446 434.024L261.139 433.302C259.483 431.712 258.073 430.176 256.904 428.693L256.118 429.312ZM260.446 434.024L259.754 434.745C260.428 435.392 260.532 435.895 260.433 436.327C260.311 436.859 259.819 437.589 258.639 438.486L259.245 439.282L259.85 440.078C261.154 439.086 262.104 437.994 262.383 436.773C262.685 435.452 262.148 434.271 261.139 433.302L260.446 434.024ZM259.245 439.282L258.639 438.486C256.102 440.417 254.403 442.368 253.817 444.365L254.777 444.647L255.736 444.928C256.14 443.553 257.42 441.928 259.85 440.078L259.245 439.282ZM254.777 444.647L253.817 444.365C253.467 445.56 253.755 446.731 254.49 447.803C255.205 448.846 256.365 449.837 257.876 450.796L258.412 449.951L258.947 449.107C257.541 448.215 256.636 447.397 256.139 446.672C255.662 445.976 255.592 445.42 255.736 444.928L254.777 444.647ZM258.412 449.951L257.876 450.796C258.558 451.228 259.029 451.621 259.328 451.967C259.627 452.311 259.713 452.559 259.728 452.715C259.751 452.953 259.616 453.474 258.387 454.215L258.904 455.071L259.421 455.928C260.782 455.106 261.86 453.991 261.719 452.523C261.652 451.825 261.311 451.201 260.84 450.657C260.368 450.113 259.724 449.599 258.947 449.107L258.412 449.951ZM258.904 455.071L258.387 454.215C257.009 455.047 255.976 456.071 255.711 457.362C255.435 458.702 256.055 459.951 257.094 461.04L257.818 460.35L258.541 459.66C257.715 458.794 257.583 458.185 257.67 457.765C257.766 457.297 258.209 456.659 259.421 455.928L258.904 455.071ZM257.818 460.35L257.094 461.04C258.835 462.865 259.109 464.268 258.619 465.419L259.539 465.811L260.459 466.202C261.405 463.983 260.531 461.745 258.541 459.66L257.818 460.35ZM259.539 465.811L258.619 465.419C257.775 467.401 257.889 469.507 258.849 471.657L259.762 471.25L260.675 470.842C259.902 469.11 259.868 467.59 260.459 466.202L259.539 465.811ZM259.762 471.25L258.849 471.657C259.609 473.361 259.572 474.823 258.861 476.151L259.742 476.623L260.624 477.095C261.671 475.14 261.647 473.02 260.675 470.842L259.762 471.25ZM259.742 476.623L258.861 476.151C258.049 477.667 256.86 479.114 255.269 480.488L255.923 481.245L256.576 482.002C258.32 480.496 259.677 478.863 260.624 477.095L259.742 476.623ZM255.923 481.245L255.269 480.488C254.315 481.311 253.656 482.275 253.391 483.387C253.126 484.499 253.283 485.652 253.77 486.807L254.691 486.418L255.613 486.03C255.253 485.176 255.191 484.462 255.337 483.85C255.483 483.237 255.862 482.618 256.576 482.002L255.923 481.245ZM254.691 486.418L253.77 486.807C254.569 488.703 254.897 490.453 254.798 492.07L255.796 492.131L256.794 492.192C256.915 490.21 256.507 488.152 255.613 486.03L254.691 486.418ZM255.796 492.131L254.798 492.07C254.702 493.645 254.124 495.095 253.028 496.44L253.803 497.072L254.578 497.704C255.919 496.059 256.67 494.215 256.794 492.192L255.796 492.131ZM253.803 497.072L253.028 496.44C251.94 497.775 250.259 498.976 247.908 500.007L248.31 500.923L248.712 501.839C251.248 500.726 253.228 499.36 254.578 497.704L253.803 497.072ZM248.31 500.923L247.908 500.007C246.598 500.582 245.541 501.299 244.825 502.2C244.091 503.123 243.753 504.195 243.831 505.37L244.829 505.304L245.826 505.238C245.782 504.564 245.964 503.981 246.391 503.444C246.836 502.884 247.58 502.335 248.712 501.839L248.31 500.923ZM244.829 505.304L243.831 505.37C243.934 506.941 243.456 508.29 242.365 509.477L243.101 510.154L243.837 510.831C245.293 509.248 245.966 507.365 245.826 505.238L244.829 505.304ZM243.101 510.154L242.365 509.477C241.686 510.216 241.143 511.069 241.168 511.986C241.196 513.022 241.91 513.705 242.738 514.118L243.184 513.223L243.63 512.328C243.382 512.204 243.263 512.097 243.211 512.032C243.17 511.981 243.168 511.956 243.167 511.932C243.164 511.827 243.244 511.476 243.837 510.831L243.101 510.154ZM243.184 513.223L242.779 514.137L244.804 515.035L245.209 514.121L245.615 513.207L243.59 512.309L243.184 513.223ZM245.209 514.121L244.265 513.793L244.232 513.888L245.176 514.216L246.121 514.544L246.154 514.45L245.209 514.121Z" fill="#E6BE51"/>
</svg>
