<svg width="372" height="718" viewBox="0 0 372 718" fill="none" xmlns="http://www.w3.org/2000/svg">
<path d="M439.599 697.294L439.571 698.294L439.62 698.295L439.668 698.292L439.599 697.294ZM431.79 695.301L431.224 696.126L431.79 695.301ZM410.902 697.196L411.476 698.015L410.902 697.196ZM405.674 698.617L405.518 699.605L405.674 698.617ZM400.525 695.735L399.827 696.451L400.525 695.735ZM373.999 699.521L373.929 698.523L373.999 699.521ZM358.904 693.493L359.719 692.914L358.904 693.493ZM348.264 693.164L347.57 692.444L348.264 693.164ZM338.32 690.033L339.231 689.619L338.32 690.033ZM333.226 688.514L333.789 689.34L333.226 688.514ZM322.889 686.527L322.836 685.528L322.889 686.527ZM313.841 680.894L313.384 680.004L313.841 680.894ZM309.306 678.709L308.328 678.915L309.306 678.709ZM303.83 677.472L303.307 676.619L303.83 677.472ZM284.682 660.426L283.683 660.403L284.682 660.426ZM283.776 654.716L284.693 654.318L283.776 654.716ZM275.314 648.132L276.14 648.696L275.314 648.132ZM275.866 632.473L274.917 632.789L275.866 632.473ZM272.666 616.936L273.552 616.474L272.666 616.936ZM274.877 612.358L274.547 611.414L274.877 612.358ZM276.168 606.928L275.325 607.467L276.168 606.928ZM276.81 601.51L277.195 602.433L276.81 601.51ZM280.049 597.085L279.049 597.085L280.049 597.085ZM292.882 586.7L291.882 586.698L292.882 586.7ZM298.455 577.9L299.308 578.422L298.455 577.9ZM301.071 573.326L300.189 572.855L301.071 573.326ZM302.326 567.747L301.326 567.745L302.326 567.747ZM305.341 563.444L305.009 562.501L305.341 563.444ZM312.676 555.733L312.563 554.739L312.676 555.733ZM316.672 552.09L315.672 552.107L316.672 552.09ZM322.569 543.117L321.586 542.933L322.569 543.117ZM323.412 537.56L322.419 537.445L323.412 537.56ZM328.056 527.882L328.982 527.503L328.056 527.882ZM327.913 506.219L326.943 505.974L327.913 506.219ZM327.499 500.894L328.41 500.481L327.499 500.894ZM325.556 495.811L324.602 496.111L325.556 495.811ZM322.15 491.602L321.621 492.45L322.15 491.602ZM319.765 486.591L320.763 486.652L319.765 486.591ZM317.34 481.876L317.789 480.982L317.34 481.876ZM307.181 477.333L307.377 476.353L307.181 477.333ZM303.638 473.192L304.616 472.987L303.638 473.192ZM300.02 469.317L300.122 468.323L300.02 469.317ZM289.117 468.122L289.513 467.204L289.117 468.122ZM280.114 462.545L279.55 461.719L280.114 462.545ZM274.306 464.209L274.075 465.181L274.306 464.209ZM269.706 460.661L268.891 461.241L269.706 460.661ZM264.604 459.85L264.023 459.036L264.604 459.85ZM259.271 459.849L258.595 460.585L259.271 459.849ZM254.589 455.244L253.866 455.935L254.589 455.244ZM238.855 454.168L239.486 454.944L238.855 454.168ZM233.14 458.19L232.631 457.329L233.14 458.19ZM218.088 451.887L217.901 452.87L218.088 451.887ZM212.971 450.928L213.152 449.945L212.971 450.928ZM202.553 449.723L201.909 448.958L202.553 449.723ZM196.774 451.462L197.162 450.541L196.774 451.462ZM192.398 447.813L193.205 447.224L192.398 447.813ZM182.035 445.495L182.937 445.064L182.035 445.495ZM178.207 441.254L178.639 440.352L178.207 441.254ZM172.51 440.327L172.567 441.325L172.51 440.327ZM155.546 426.684L154.688 427.198L155.546 426.684ZM150.788 416.55L151.78 416.675L150.788 416.55ZM149.985 410.791L150.89 410.366L149.985 410.791ZM152.431 405.504L151.834 404.702L152.431 405.504ZM153.82 400.099L154.585 399.455L153.82 400.099ZM154.076 395.569L153.486 394.761L154.076 395.569ZM160.993 375.347L161.468 376.227L160.993 375.347ZM166.641 373.346L166.443 372.366L166.641 373.346ZM169.302 368.389L168.307 368.491L169.302 368.389ZM173.373 365.188L173.615 364.217L173.373 365.188ZM182.179 359.231L182.771 360.037L182.179 359.231ZM190.463 352.814L190.629 351.828L190.463 352.814ZM195.51 350.758L196.42 351.171L195.51 350.758ZM197.415 344.677L196.435 344.48L197.415 344.677ZM209.542 343.012L209.939 343.93L209.542 343.012ZM211.174 336.804L212.158 336.631L211.174 336.804ZM218.855 329.633L219.853 329.568L218.855 329.633ZM225.738 315.209L225.15 314.4L225.738 315.209ZM230.802 312.438L231.19 313.36L230.802 312.438ZM232.933 308.121L231.97 308.389L232.933 308.121ZM232.092 302.696L233.092 302.7L232.092 302.696ZM233.356 298.045L232.48 297.564L233.356 298.045ZM237.25 292.655L238.012 293.303L237.25 292.655ZM238.056 287.12L238.855 286.519L238.056 287.12ZM233.506 276.822L232.886 277.607L233.506 276.822ZM230.127 272.505L231.046 272.112L230.127 272.505ZM223.359 264.299L222.765 265.104L223.359 264.299ZM220.792 259.547L219.798 259.656L220.792 259.547ZM190.748 237.275L191.497 236.613L190.748 237.275ZM187.925 232.732L188.846 232.343L187.925 232.732ZM180.944 224.908L181.854 224.494L180.944 224.908ZM167.414 201.676L166.861 202.509L167.414 201.676ZM164.326 197.522L163.373 197.826L164.326 197.522ZM158.31 195.694L158.149 194.708L158.31 195.694ZM153.158 193.172L154.158 193.175L153.158 193.172ZM145.723 179.019L146.689 178.761L145.723 179.019ZM138.406 165.082L137.412 165.191L138.406 165.082ZM135.486 160.49L134.908 161.306L135.486 160.49ZM134.198 149.99L135.169 150.229L134.198 149.99ZM128.9 134.639L128.194 135.347L128.9 134.639ZM134.035 113.54L134.449 114.45L134.035 113.54ZM141.816 105.976L141.882 104.978L141.816 105.976ZM146.086 102.361L145.091 102.259L146.086 102.361ZM150.158 99.2336L150.356 98.2534L150.158 99.2336ZM155.917 98.4309L156.513 99.2343L155.917 98.4309ZM160.413 95.8149L160.007 94.901L160.413 95.8149ZM164.405 91.9629L163.535 91.469L164.405 91.9629ZM168.291 87.7197L167.756 86.8751L168.291 87.7197ZM174.09 88.0675L173.63 88.9553L174.09 88.0675ZM179.229 86.6244L180.121 87.076L179.229 86.6244ZM184.049 84.6578L184.425 83.731L184.049 84.6578ZM189.124 83.136L188.296 82.5749L189.124 83.136ZM193.716 80.171L193.657 79.1727L193.716 80.171ZM199.257 80.4996L199.089 81.4854L199.257 80.4996ZM209.586 78.5732L209.472 79.5667L209.586 78.5732ZM214.562 76.7277L215.264 77.4402L214.562 76.7277ZM219.494 74.7391L219.558 73.7411L219.494 74.7391ZM224.756 74.2224L225.02 75.1868L224.756 74.2224ZM245.472 70.9146L246.039 70.0905L245.472 70.9146ZM250.859 71.3774L251.407 72.2138L250.859 71.3774ZM266.095 66.6991L266.505 65.787L266.095 66.6991ZM297.612 65.213L297.463 66.202L297.612 65.213ZM313.54 67.5037L313.832 66.5473L313.54 67.5037ZM328.996 63.1751L329.337 64.1148L328.996 63.1751ZM334.137 61.0654L333.721 60.1562L334.137 61.0654ZM339.482 63.054L340.229 62.3898L339.482 63.054ZM344.825 64.5938L344.29 63.7494L344.825 64.5938ZM349.901 61.1724L350.482 61.9864L349.901 61.1724ZM355.078 58.8865L354.9 57.9024L355.078 58.8865ZM370.828 60.5159L370.075 59.8574L370.828 60.5159ZM376.074 60.7489L376.837 60.1017L376.074 60.7489ZM384.274 60.2472L385.198 59.8655L385.174 59.8078L385.143 59.7535L384.274 60.2472ZM384.542 60.8973L383.618 61.2789L383.876 61.9042L384.552 61.8972L384.542 60.8973ZM439.699 697.287L439.63 696.29L439.53 696.297L439.599 697.294L439.668 698.292L439.768 698.285L439.699 697.287ZM439.599 697.294L439.627 696.295C436.311 696.202 433.929 695.556 432.356 694.477L431.79 695.301L431.224 696.126C433.247 697.514 436.07 698.196 439.571 698.294L439.599 697.294ZM431.79 695.301L432.356 694.477C431.345 693.783 430.289 693.363 429.196 693.29C428.096 693.216 427.035 693.497 426.032 694.084L426.537 694.947L427.043 695.81C427.745 695.399 428.411 695.241 429.062 695.285C429.72 695.329 430.438 695.586 431.224 696.126L431.79 695.301ZM426.537 694.947L426.032 694.084C424.541 694.958 423.087 695.155 421.612 694.74L421.341 695.703L421.071 696.666C423.114 697.24 425.125 696.933 427.043 695.81L426.537 694.947ZM421.341 695.703L421.612 694.74C419.746 694.216 417.884 694.022 416.032 694.166L416.109 695.163L416.187 696.16C417.792 696.035 419.418 696.201 421.071 696.666L421.341 695.703ZM416.109 695.163L416.032 694.166C414.088 694.316 412.185 695.076 410.328 696.377L410.902 697.196L411.476 698.015C413.106 696.873 414.673 696.277 416.187 696.16L416.109 695.163ZM410.902 697.196L410.328 696.377C408.751 697.482 407.265 697.855 405.829 697.629L405.674 698.617L405.518 699.605C407.568 699.927 409.568 699.352 411.476 698.015L410.902 697.196ZM405.674 698.617L405.829 697.629C404.349 697.396 402.813 696.569 401.223 695.019L400.525 695.735L399.827 696.451C401.615 698.194 403.511 699.289 405.518 699.605L405.674 698.617ZM400.525 695.735L401.223 695.019C400.277 694.096 399.232 693.487 398.086 693.339C396.926 693.189 395.807 693.529 394.764 694.232L395.322 695.062L395.881 695.891C396.617 695.395 397.255 695.248 397.829 695.323C398.418 695.399 399.084 695.726 399.827 696.451L400.525 695.735ZM395.322 695.062L394.764 694.232C393.159 695.313 391.686 695.619 390.289 695.306L390.071 696.282L389.853 697.258C391.899 697.716 393.927 697.207 395.881 695.891L395.322 695.062ZM390.071 696.282L390.289 695.306C388.621 694.933 386.965 694.418 385.32 693.759L384.949 694.688L384.577 695.616C386.318 696.313 388.077 696.861 389.853 697.258L390.071 696.282ZM384.949 694.688L385.32 693.759C383.092 692.867 380.879 693.775 378.838 695.789L379.54 696.501L380.243 697.213C382.026 695.453 383.419 695.152 384.577 695.616L384.949 694.688ZM379.54 696.501L378.838 695.789C377.013 697.591 375.378 698.421 373.929 698.523L373.999 699.521L374.069 700.518C376.184 700.369 378.243 699.186 380.243 697.213L379.54 696.501ZM373.999 699.521L373.929 698.523C372.828 698.601 371.506 697.757 370.12 694.84L369.217 695.269L368.314 695.698C369.74 698.701 371.606 700.692 374.069 700.518L373.999 699.521ZM369.217 695.269L370.12 694.84C369.389 693.3 368.45 692.092 367.176 691.698C365.812 691.277 364.516 691.906 363.403 692.96L364.091 693.686L364.778 694.413C365.677 693.562 366.241 693.503 366.586 693.609C367.021 693.743 367.639 694.278 368.314 695.698L369.217 695.269ZM364.091 693.686L363.403 692.96C362.479 693.835 361.795 694.085 361.322 694.067C360.888 694.051 360.346 693.795 359.719 692.914L358.904 693.493L358.089 694.073C358.909 695.225 359.953 696.018 361.248 696.066C362.504 696.113 363.69 695.442 364.778 694.413L364.091 693.686ZM358.904 693.493L359.719 692.914C358.182 690.752 356.368 689.406 354.247 689.214L354.156 690.21L354.066 691.206C355.384 691.325 356.735 692.169 358.089 694.073L358.904 693.493ZM354.156 690.21L354.247 689.214C352.079 689.018 349.836 690.264 347.57 692.444L348.264 693.164L348.957 693.885C351.109 691.814 352.794 691.091 354.066 691.206L354.156 690.21ZM348.264 693.164L347.57 692.444C345.435 694.498 343.985 694.734 342.957 694.209L342.502 695.099L342.046 695.989C344.284 697.134 346.675 696.08 348.957 693.885L348.264 693.164ZM342.502 695.099L342.957 694.209C341.607 693.518 340.339 692.058 339.231 689.619L338.32 690.033L337.41 690.446C338.612 693.092 340.131 695.009 342.046 695.989L342.502 695.099ZM338.32 690.033L339.231 689.619C338.602 688.235 337.719 687.162 336.466 686.788C335.202 686.411 333.897 686.845 332.662 687.688L333.226 688.514L333.789 689.34C334.795 688.654 335.46 688.575 335.895 688.705C336.34 688.838 336.884 689.289 337.41 690.446L338.32 690.033ZM333.226 688.514L332.662 687.688C331.628 688.394 330.807 688.672 330.173 688.681C329.586 688.689 329.05 688.469 328.529 687.91L327.798 688.592L327.066 689.274C327.923 690.193 328.981 690.698 330.202 690.681C331.378 690.664 332.583 690.164 333.789 689.34L333.226 688.514ZM327.798 688.592L328.529 687.91C326.965 686.232 325.047 685.411 322.836 685.528L322.889 686.527L322.942 687.525C324.52 687.441 325.875 687.997 327.066 689.274L327.798 688.592ZM322.889 686.527L322.836 685.528C322.143 685.565 321.589 685.368 321.109 684.937C320.601 684.481 320.122 683.714 319.732 682.529L318.782 682.843L317.832 683.156C318.285 684.528 318.912 685.653 319.773 686.425C320.662 687.222 321.739 687.589 322.942 687.525L322.889 686.527ZM318.782 682.843L319.732 682.529C319.266 681.118 318.499 679.988 317.281 679.508C316.071 679.031 314.725 679.317 313.384 680.004L313.841 680.894L314.297 681.783C315.408 681.214 316.11 681.196 316.547 681.368C316.976 681.537 317.455 682.011 317.832 683.156L318.782 682.843ZM313.841 680.894L313.384 680.004C312.26 680.581 311.635 680.549 311.303 680.389C310.968 680.228 310.548 679.752 310.285 678.502L309.306 678.709L308.328 678.915C308.637 680.379 309.259 681.624 310.435 682.191C311.614 682.759 312.971 682.464 314.297 681.783L313.841 680.894ZM309.306 678.709L310.285 678.502C309.963 676.973 309.195 675.72 307.729 675.389C306.41 675.091 304.887 675.65 303.307 676.619L303.83 677.472L304.353 678.324C305.852 677.404 306.781 677.225 307.288 677.339C307.647 677.42 308.078 677.73 308.328 678.915L309.306 678.709ZM303.83 677.472L303.307 676.619C302.583 677.063 302.024 677.302 301.612 677.396C301.206 677.488 301.044 677.418 300.99 677.385C300.934 677.35 300.795 677.231 300.69 676.817C300.583 676.4 300.539 675.784 300.601 674.93L299.604 674.858L298.606 674.786C298.537 675.748 298.571 676.603 298.751 677.311C298.933 678.023 299.29 678.685 299.938 679.086C300.588 679.488 301.339 679.509 302.055 679.346C302.765 679.185 303.537 678.825 304.353 678.324L303.83 677.472ZM299.604 674.858L300.601 674.93C300.736 673.056 300.612 671.477 300.125 670.288C299.611 669.031 298.68 668.199 297.353 667.997L297.202 668.985L297.052 669.974C297.587 670.055 297.987 670.344 298.274 671.045C298.588 671.813 298.733 673.028 298.606 674.786L299.604 674.858ZM297.202 668.985L297.353 667.997C295.517 667.717 293.669 667.357 291.806 666.916L291.576 667.889L291.345 668.862C293.259 669.315 295.161 669.686 297.052 669.974L297.202 668.985ZM291.576 667.889L291.806 666.916C290.051 666.5 288.556 665.779 287.302 664.762L286.672 665.539L286.043 666.316C287.55 667.538 289.325 668.383 291.345 668.862L291.576 667.889ZM286.672 665.539L287.302 664.762C286.228 663.892 285.633 662.527 285.682 660.45L284.682 660.426L283.683 660.403C283.623 662.904 284.354 664.947 286.043 666.316L286.672 665.539ZM284.682 660.426L285.682 660.45C285.738 658.068 285.427 656.009 284.693 654.318L283.776 654.716L282.858 655.114C283.442 656.458 283.735 658.206 283.683 660.403L284.682 660.426ZM283.776 654.716L284.693 654.318C284.227 653.242 283.3 652.511 282.114 652.049C280.941 651.593 279.444 651.369 277.674 651.332L277.653 652.332L277.632 653.332C279.285 653.366 280.521 653.575 281.388 653.913C282.244 654.246 282.666 654.671 282.858 655.114L283.776 654.716ZM277.653 652.332L277.674 651.332C276.873 651.315 276.299 651.221 275.911 651.085C275.527 650.951 275.411 650.807 275.374 650.742C275.342 650.684 275.286 650.535 275.379 650.183C275.474 649.821 275.707 649.33 276.14 648.696L275.314 648.132L274.488 647.568C273.989 648.298 273.62 649.005 273.444 649.675C273.266 650.356 273.269 651.073 273.627 651.715C273.98 652.349 274.584 652.74 275.25 652.973C275.914 653.205 276.721 653.313 277.632 653.332L277.653 652.332ZM275.314 648.132L276.14 648.696C277.117 647.266 277.691 645.854 277.521 644.544C277.339 643.136 276.356 642.169 274.987 641.564L274.582 642.479L274.178 643.394C275.161 643.828 275.476 644.323 275.538 644.8C275.612 645.374 275.376 646.269 274.488 647.568L275.314 648.132ZM274.582 642.479L274.987 641.564C273.916 641.091 273.663 640.648 273.621 640.385C273.572 640.08 273.708 639.487 274.584 638.524L273.844 637.852L273.104 637.179C272.12 638.261 271.448 639.462 271.646 640.7C271.85 641.979 272.897 642.827 274.178 643.394L274.582 642.479ZM273.844 637.852L274.584 638.524C276.51 636.406 277.505 634.233 276.815 632.158L275.866 632.473L274.917 632.789C275.251 633.794 274.898 635.207 273.104 637.179L273.844 637.852ZM275.866 632.473L276.815 632.158C276.353 630.767 276.235 629.367 276.458 627.946L275.47 627.791L274.483 627.636C274.209 629.377 274.356 631.099 274.917 632.789L275.866 632.473ZM275.47 627.791L276.458 627.946C276.732 626.202 276.588 624.387 276.054 622.511L275.092 622.785L274.13 623.059C274.597 624.695 274.705 626.216 274.483 627.636L275.47 627.791ZM275.092 622.785L276.054 622.511C275.53 620.673 274.692 618.66 273.552 616.474L272.666 616.936L271.779 617.399C272.874 619.5 273.654 621.386 274.13 623.059L275.092 622.785ZM272.666 616.936L273.552 616.474C273.074 615.556 273.102 614.99 273.281 614.619C273.481 614.206 274.014 613.721 275.208 613.302L274.877 612.358L274.547 611.414C273.149 611.904 272.018 612.636 271.48 613.749C270.922 614.904 271.14 616.173 271.779 617.399L272.666 616.936ZM274.877 612.358L275.208 613.302C276.661 612.792 277.79 611.926 278.117 610.55C278.427 609.244 277.923 607.818 277.011 606.39L276.168 606.928L275.325 607.467C276.145 608.749 276.291 609.584 276.171 610.088C276.068 610.522 275.685 611.015 274.547 611.414L274.877 612.358ZM276.168 606.928L277.011 606.39C276.184 605.095 275.957 604.212 276.023 603.658C276.075 603.219 276.338 602.791 277.195 602.433L276.81 601.51L276.425 600.587C275.123 601.131 274.199 602.056 274.037 603.423C273.889 604.675 274.421 606.05 275.325 607.467L276.168 606.928ZM276.81 601.51L277.195 602.433C278.397 601.932 279.373 601.239 280.046 600.319C280.727 599.389 281.049 598.295 281.049 597.085L280.049 597.085L279.049 597.085C279.049 597.924 278.832 598.592 278.432 599.138C278.027 599.692 277.383 600.188 276.425 600.587L276.81 601.51ZM280.049 597.085L281.049 597.085C281.049 596.209 281.238 595.501 281.579 594.925C281.919 594.35 282.444 593.848 283.203 593.436L282.726 592.557L282.249 591.679C281.223 592.236 280.409 592.974 279.857 593.907C279.305 594.84 279.049 595.912 279.049 597.085L280.049 597.085ZM282.726 592.557L283.203 593.436C284.871 592.531 286.898 591.868 289.305 591.465L289.14 590.479L288.975 589.492C286.401 589.923 284.152 590.646 282.249 591.679L282.726 592.557ZM289.14 590.479L289.305 591.465C290.672 591.236 291.832 590.755 292.654 589.925C293.496 589.074 293.88 587.964 293.882 586.702L292.882 586.7L291.882 586.698C291.881 587.539 291.638 588.109 291.233 588.518C290.808 588.947 290.098 589.304 288.975 589.492L289.14 590.479ZM292.882 586.7L293.882 586.702C293.886 584.844 294.493 583.533 295.618 582.619L294.988 581.843L294.358 581.066C292.685 582.424 291.887 584.351 291.882 586.698L292.882 586.7ZM294.988 581.843L295.618 582.619C297.104 581.414 298.335 580.014 299.308 578.422L298.455 577.9L297.601 577.379C296.751 578.771 295.672 580 294.358 581.066L294.988 581.843ZM298.455 577.9L299.308 578.422C300.23 576.913 301.111 575.372 301.953 573.798L301.071 573.326L300.189 572.855C299.365 574.395 298.503 575.903 297.601 577.379L298.455 577.9ZM301.071 573.326L301.953 573.798C302.878 572.067 303.322 570.039 303.326 567.749L302.326 567.747L301.326 567.745C301.322 569.78 300.929 571.471 300.189 572.855L301.071 573.326ZM302.326 567.747L303.326 567.749C303.327 566.823 303.541 566.137 303.901 565.623C304.26 565.111 304.823 564.686 305.673 564.388L305.341 563.444L305.009 562.501C303.852 562.908 302.909 563.553 302.263 564.475C301.618 565.396 301.328 566.508 301.326 567.745L302.326 567.747ZM305.341 563.444L305.673 564.388C306.819 563.984 307.762 563.361 308.429 562.48C309.098 561.598 309.434 560.53 309.488 559.335L308.489 559.29L307.49 559.245C307.451 560.114 307.216 560.77 306.835 561.272C306.453 561.777 305.869 562.199 305.009 562.501L305.341 563.444ZM308.489 559.29L309.488 559.335C309.524 558.541 309.795 558.004 310.253 557.615C310.743 557.198 311.547 556.868 312.789 556.726L312.676 555.733L312.563 554.739C311.106 554.905 309.864 555.321 308.958 556.09C308.02 556.887 307.547 557.975 307.49 559.245L308.489 559.29ZM312.676 555.733L312.789 556.726C314.248 556.56 315.491 556.134 316.373 555.33C317.289 554.495 317.693 553.365 317.672 552.074L316.672 552.09L315.672 552.107C315.686 552.936 315.441 553.473 315.026 553.852C314.576 554.262 313.803 554.598 312.563 554.739L312.676 555.733ZM316.672 552.09L317.672 552.074C317.657 551.16 317.84 550.422 318.181 549.821C318.521 549.222 319.051 548.703 319.82 548.275L319.334 547.401L318.848 546.527C317.808 547.105 316.989 547.87 316.442 548.834C315.895 549.797 315.653 550.9 315.672 552.107L316.672 552.09ZM319.334 547.401L319.82 548.275C321.86 547.141 323.144 545.476 323.552 543.302L322.569 543.117L321.586 542.933C321.3 544.459 320.427 545.649 318.848 546.527L319.334 547.401ZM322.569 543.117L323.552 543.302C323.904 541.429 324.188 539.553 324.406 537.675L323.412 537.56L322.419 537.445C322.207 539.276 321.93 541.106 321.586 542.933L322.569 543.117ZM323.412 537.56L324.406 537.675C324.579 536.175 325.414 534.874 327.1 533.773L326.554 532.935L326.007 532.098C323.934 533.452 322.675 535.235 322.419 537.445L323.412 537.56ZM326.554 532.935L327.1 533.773C328.182 533.066 328.962 532.163 329.297 531.036C329.631 529.915 329.479 528.717 328.982 527.503L328.056 527.882L327.131 528.262C327.511 529.188 327.548 529.904 327.38 530.466C327.214 531.024 326.804 531.577 326.007 532.098L326.554 532.935ZM328.056 527.882L328.982 527.503C328.216 525.635 328.401 524.149 329.381 522.871L328.587 522.262L327.794 521.654C326.311 523.587 326.142 525.848 327.131 528.262L328.056 527.882ZM328.587 522.262L329.381 522.871C330.686 521.169 331.62 519.326 332.172 517.344L331.208 517.076L330.245 516.808C329.765 518.53 328.952 520.144 327.794 521.654L328.587 522.262ZM331.208 517.076L332.172 517.344C332.802 515.081 332.093 512.937 330.328 511.001L329.589 511.675L328.85 512.349C330.275 513.912 330.646 515.368 330.245 516.808L331.208 517.076ZM329.589 511.675L330.328 511.001C328.903 509.439 328.505 507.954 328.882 506.465L327.913 506.219L326.943 505.974C326.364 508.261 327.084 510.413 328.85 512.349L329.589 511.675ZM327.913 506.219L328.882 506.465C329.411 504.373 329.263 502.364 328.41 500.481L327.499 500.894L326.588 501.307C327.242 502.748 327.369 504.29 326.943 505.974L327.913 506.219ZM327.499 500.894L328.41 500.481C327.673 498.856 327.04 497.199 326.51 495.512L325.556 495.811L324.602 496.111C325.156 497.876 325.818 499.608 326.588 501.307L327.499 500.894ZM325.556 495.811L326.51 495.512C325.888 493.528 324.584 491.943 322.68 490.753L322.15 491.602L321.621 492.45C323.174 493.42 324.14 494.64 324.602 496.111L325.556 495.811ZM322.15 491.602L322.68 490.753C321.961 490.304 321.468 489.755 321.16 489.109C320.85 488.458 320.702 487.651 320.763 486.652L319.765 486.591L318.767 486.53C318.69 487.792 318.87 488.951 319.355 489.969C319.843 490.994 320.612 491.82 321.621 492.45L322.15 491.602ZM319.765 486.591L320.763 486.652C320.84 485.392 320.658 484.245 320.151 483.26C319.64 482.265 318.833 481.508 317.789 480.982L317.34 481.876L316.89 482.769C317.6 483.127 318.076 483.597 318.373 484.174C318.675 484.762 318.828 485.53 318.767 486.53L319.765 486.591ZM317.34 481.876L317.789 480.982C316.047 480.105 314.394 479.228 312.831 478.35L312.341 479.221L311.851 480.093C313.443 480.988 315.123 481.879 316.89 482.769L317.34 481.876ZM312.341 479.221L312.831 478.35C311.157 477.41 309.337 476.745 307.377 476.353L307.181 477.333L306.985 478.314C308.749 478.667 310.369 479.261 311.851 480.093L312.341 479.221ZM307.181 477.333L307.377 476.353C306.655 476.208 306.097 475.881 305.658 475.369C305.208 474.842 304.843 474.071 304.616 472.987L303.638 473.192L302.659 473.398C302.932 474.702 303.408 475.815 304.139 476.669C304.882 477.537 305.845 478.086 306.985 478.314L307.181 477.333ZM303.638 473.192L304.616 472.987C304.342 471.68 303.855 470.571 303.089 469.75C302.306 468.911 301.295 468.442 300.122 468.323L300.02 469.317L299.918 470.312C300.656 470.388 301.204 470.662 301.627 471.115C302.066 471.586 302.432 472.317 302.659 473.398L303.638 473.192ZM300.02 469.317L300.122 468.323C298.171 468.123 296.226 468.041 294.286 468.077L294.304 469.077L294.323 470.077C296.182 470.043 298.047 470.121 299.918 470.312L300.02 469.317ZM294.304 469.077L294.286 468.077C292.512 468.11 290.926 467.813 289.513 467.204L289.117 468.122L288.721 469.041C290.426 469.775 292.298 470.114 294.323 470.077L294.304 469.077ZM289.117 468.122L289.513 467.204C288.258 466.663 287.062 465.424 285.998 463.26L285.101 463.701L284.203 464.142C285.376 466.529 286.858 468.238 288.721 469.041L289.117 468.122ZM285.101 463.701L285.998 463.26C285.372 461.987 284.484 461.019 283.241 460.731C282.016 460.447 280.756 460.897 279.55 461.719L280.114 462.545L280.677 463.371C281.678 462.689 282.352 462.578 282.789 462.679C283.208 462.777 283.71 463.14 284.203 464.142L285.101 463.701ZM280.114 462.545L279.55 461.719C277.448 463.153 275.808 463.538 274.537 463.236L274.306 464.209L274.075 465.181C276.136 465.671 278.367 464.947 280.677 463.371L280.114 462.545ZM274.306 464.209L274.537 463.236C273.188 462.915 271.838 461.934 270.52 460.081L269.706 460.661L268.891 461.241C270.375 463.327 272.092 464.71 274.075 465.181L274.306 464.209ZM269.706 460.661L270.52 460.081C269.728 458.968 268.744 458.186 267.537 457.994C266.334 457.803 265.145 458.235 264.023 459.036L264.604 459.85L265.185 460.664C266.063 460.037 266.725 459.89 267.222 459.969C267.716 460.048 268.282 460.386 268.891 461.241L269.706 460.661ZM264.604 459.85L264.023 459.036C263.13 459.674 262.386 459.921 261.771 459.921C261.179 459.921 260.578 459.691 259.948 459.112L259.271 459.849L258.595 460.585C259.52 461.435 260.586 461.92 261.771 461.921C262.934 461.921 264.079 461.454 265.185 460.664L264.604 459.85ZM259.271 459.849L259.948 459.112C258.41 457.699 256.865 456.18 255.312 454.554L254.589 455.244L253.866 455.935C255.446 457.59 257.022 459.14 258.595 460.585L259.271 459.849ZM254.589 455.244L255.312 454.554C253.591 452.751 251.621 451.846 249.439 452.089L249.55 453.083L249.661 454.077C251.065 453.92 252.453 454.456 253.866 455.935L254.589 455.244ZM249.55 453.083L249.439 452.089C247.781 452.274 246.169 452.126 244.595 451.645L244.302 452.601L244.01 453.557C245.848 454.119 247.734 454.292 249.661 454.077L249.55 453.083ZM244.302 452.601L244.595 451.645C242.455 450.991 240.298 451.705 238.224 453.392L238.855 454.168L239.486 454.944C241.264 453.498 242.738 453.169 244.01 453.557L244.302 452.601ZM238.855 454.168L238.224 453.392C236.332 454.931 234.468 456.242 232.631 457.329L233.14 458.19L233.649 459.05C235.582 457.907 237.527 456.537 239.486 454.944L238.855 454.168ZM233.14 458.19L232.631 457.329C231.923 457.748 231.403 457.739 230.937 457.501C230.386 457.22 229.735 456.53 229.055 455.198L228.164 455.652L227.274 456.107C228.026 457.581 228.921 458.718 230.029 459.282C231.221 459.89 232.473 459.746 233.649 459.05L233.14 458.19ZM228.164 455.652L229.055 455.198C227.589 452.326 225.657 450.489 223.161 450.923L223.333 451.909L223.504 452.894C224.585 452.706 225.874 453.365 227.274 456.107L228.164 455.652ZM223.333 451.909L223.161 450.923C221.486 451.215 219.86 451.207 218.276 450.905L218.088 451.887L217.901 452.87C219.732 453.218 221.602 453.225 223.504 452.894L223.333 451.909ZM218.088 451.887L218.276 450.905C216.566 450.579 214.858 450.259 213.152 449.945L212.971 450.928L212.79 451.912C214.492 452.225 216.196 452.545 217.901 452.87L218.088 451.887ZM212.971 450.928L213.152 449.945C211.621 449.663 210.154 448.993 208.747 447.907L208.136 448.699L207.525 449.491C209.157 450.75 210.913 451.566 212.79 451.912L212.971 450.928ZM208.136 448.699L208.747 447.907C207.767 447.151 206.635 446.87 205.421 447.093C204.253 447.307 203.08 447.973 201.909 448.958L202.553 449.723L203.197 450.488C204.23 449.619 205.089 449.187 205.782 449.06C206.429 448.941 206.987 449.075 207.525 449.491L208.136 448.699ZM202.553 449.723L201.909 448.958C199.805 450.73 198.286 451.015 197.162 450.541L196.774 451.462L196.386 452.384C198.562 453.301 200.896 452.426 203.197 450.488L202.553 449.723ZM196.774 451.462L197.162 450.541C195.71 449.929 194.387 448.844 193.205 447.224L192.398 447.813L191.59 448.403C192.943 450.257 194.537 451.605 196.386 452.384L196.774 451.462ZM192.398 447.813L193.205 447.224C192.448 446.185 191.467 445.5 190.265 445.298C189.091 445.102 187.844 445.391 186.571 446.013L187.01 446.911L187.449 447.81C188.5 447.296 189.313 447.167 189.935 447.271C190.529 447.37 191.08 447.704 191.59 448.403L192.398 447.813ZM187.01 446.911L186.571 446.013C185.522 446.526 184.794 446.589 184.296 446.448C183.828 446.314 183.354 445.937 182.937 445.064L182.035 445.495L181.132 445.925C181.708 447.133 182.558 448.032 183.749 448.371C184.91 448.702 186.173 448.434 187.449 447.81L187.01 446.911ZM182.035 445.495L182.937 445.064C181.879 442.846 180.464 441.226 178.639 440.352L178.207 441.254L177.775 442.156C179.069 442.775 180.205 443.982 181.132 445.925L182.035 445.495ZM178.207 441.254L178.639 440.352C176.889 439.514 174.812 439.193 172.453 439.328L172.51 440.327L172.567 441.325C174.686 441.204 176.407 441.501 177.775 442.156L178.207 441.254ZM172.51 440.327L172.453 439.328C171.601 439.377 171.228 439.119 171.01 438.748C170.725 438.261 170.566 437.336 170.765 435.775L169.773 435.649L168.781 435.523C168.566 437.208 168.657 438.686 169.284 439.758C169.979 440.946 171.181 441.404 172.567 441.325L172.51 440.327ZM169.773 435.649L170.765 435.775C170.982 434.072 170.8 432.517 169.781 431.532C168.743 430.532 167.201 430.462 165.568 430.824L165.784 431.8L166 432.777C167.44 432.458 168.099 432.69 168.392 432.972C168.702 433.271 168.978 433.98 168.781 435.523L169.773 435.649ZM165.784 431.8L165.568 430.824C162.597 431.482 160.776 431.124 159.744 430.203L159.078 430.949L158.412 431.695C160.176 433.269 162.826 433.48 166 432.777L165.784 431.8ZM159.078 430.949L159.744 430.203C158.42 429.021 157.308 427.678 156.403 426.17L155.546 426.684L154.688 427.198C155.697 428.881 156.939 430.38 158.412 431.695L159.078 430.949ZM155.546 426.684L156.403 426.17C155.421 424.53 154.293 422.934 153.022 421.381L152.248 422.015L151.474 422.648C152.687 424.13 153.758 425.647 154.688 427.198L155.546 426.684ZM152.248 422.015L153.022 421.381C151.97 420.097 151.542 418.557 151.78 416.675L150.788 416.55L149.796 416.424C149.496 418.795 150.041 420.898 151.474 422.648L152.248 422.015ZM150.788 416.55L151.78 416.675C152.069 414.387 151.785 412.273 150.89 410.366L149.985 410.791L149.08 411.216C149.793 412.736 150.044 414.461 149.796 416.424L150.788 416.55ZM149.985 410.791L150.89 410.366C150.617 409.785 150.614 409.225 150.901 408.604C151.21 407.937 151.876 407.164 153.028 406.307L152.431 405.504L151.834 404.702C150.551 405.657 149.592 406.67 149.086 407.765C148.558 408.906 148.548 410.084 149.08 411.216L149.985 410.791ZM152.431 405.504L153.028 406.307C154.321 405.344 155.258 404.268 155.573 403.044C155.905 401.749 155.487 400.527 154.585 399.455L153.82 400.099L153.055 400.743C153.661 401.463 153.766 402.039 153.635 402.546C153.487 403.123 152.975 403.853 151.834 404.702L152.431 405.504ZM153.82 400.099L154.585 399.455C153.908 398.65 153.729 398.07 153.751 397.679C153.771 397.323 153.973 396.883 154.666 396.376L154.076 395.569L153.486 394.761C152.5 395.482 151.82 396.411 151.754 397.566C151.691 398.684 152.224 399.755 153.055 400.743L153.82 400.099ZM154.076 395.569L154.666 396.376C156.498 395.037 157.673 393.401 158.035 391.455L157.051 391.272L156.068 391.09C155.821 392.417 155.013 393.645 153.486 394.761L154.076 395.569ZM157.051 391.272L158.035 391.455C158.318 389.929 158.845 388.494 159.618 387.146L158.75 386.649L157.882 386.152C156.998 387.695 156.393 389.343 156.068 391.09L157.051 391.272ZM158.75 386.649L159.618 387.146C160.618 385.398 160.737 383.098 160.203 380.405L159.222 380.6L158.241 380.795C158.733 383.275 158.537 385.008 157.882 386.152L158.75 386.649ZM159.222 380.6L160.203 380.405C159.966 379.214 160.007 378.32 160.227 377.666C160.438 377.041 160.833 376.57 161.468 376.227L160.993 375.347L160.517 374.467C159.458 375.04 158.712 375.901 158.332 377.027C157.962 378.124 157.964 379.399 158.241 380.795L159.222 380.6ZM160.993 375.347L161.468 376.227C163.067 375.363 164.855 374.727 166.839 374.326L166.641 373.346L166.443 372.366C164.284 372.802 162.306 373.5 160.517 374.467L160.993 375.347ZM166.641 373.346L166.839 374.326C168.125 374.066 169.138 373.389 169.741 372.265C170.318 371.191 170.456 369.827 170.297 368.286L169.302 368.389L168.307 368.491C168.446 369.836 168.289 370.742 167.979 371.319C167.695 371.848 167.229 372.207 166.443 372.366L166.641 373.346ZM169.302 368.389L170.297 368.286C170.159 366.948 170.451 366.418 170.715 366.21C171.012 365.977 171.697 365.8 173.131 366.158L173.373 365.188L173.615 364.217C172.037 363.823 170.539 363.804 169.479 364.638C168.386 365.497 168.148 366.943 168.307 368.491L169.302 368.389ZM173.373 365.188L173.131 366.158C174.716 366.554 176.136 366.646 177.313 366.302C178.55 365.94 179.434 365.119 179.907 363.915L178.976 363.55L178.045 363.185C177.794 363.824 177.383 364.198 176.752 364.382C176.061 364.584 175.042 364.574 173.615 364.217L173.373 365.188ZM178.976 363.55L179.907 363.915C180.571 362.224 181.531 360.947 182.771 360.037L182.179 359.231L181.588 358.424C180.004 359.587 178.829 361.189 178.045 363.185L178.976 363.55ZM182.179 359.231L182.771 360.037C184.347 358.88 185.547 357.292 186.389 355.315L185.469 354.923L184.549 354.531C183.828 356.225 182.835 357.509 181.588 358.424L182.179 359.231ZM185.469 354.923L186.389 355.315C186.69 354.609 187.126 354.18 187.693 353.941C188.29 353.688 189.134 353.604 190.297 353.8L190.463 352.814L190.629 351.828C189.245 351.595 187.982 351.647 186.915 352.098C185.818 352.562 185.03 353.402 184.549 354.531L185.469 354.923ZM190.463 352.814L190.297 353.8C191.68 354.033 192.941 353.985 194.012 353.548C195.112 353.1 195.916 352.282 196.42 351.171L195.51 350.758L194.599 350.345C194.286 351.034 193.84 351.459 193.258 351.696C192.647 351.945 191.793 352.024 190.629 351.828L190.463 352.814ZM195.51 350.758L196.42 351.171C197.273 349.292 197.93 347.191 198.396 344.874L197.415 344.677L196.435 344.48C195.994 346.671 195.38 348.624 194.599 350.345L195.51 350.758ZM197.415 344.677L198.396 344.874C198.574 343.985 198.944 343.6 199.399 343.425C199.94 343.217 200.845 343.211 202.252 343.654L202.553 342.7L202.853 341.747C201.289 341.253 199.851 341.108 198.681 341.559C197.422 342.043 196.709 343.114 196.435 344.48L197.415 344.677ZM202.553 342.7L202.252 343.654C205.307 344.617 207.922 344.801 209.939 343.93L209.542 343.012L209.146 342.094C207.787 342.68 205.743 342.657 202.853 341.747L202.553 342.7ZM209.542 343.012L209.939 343.93C211.113 343.422 211.847 342.444 212.183 341.167C212.507 339.933 212.47 338.4 212.158 336.631L211.174 336.804L210.189 336.977C210.477 338.618 210.468 339.824 210.249 340.659C210.04 341.451 209.659 341.872 209.146 342.094L209.542 343.012ZM211.174 336.804L212.158 336.631C211.867 334.974 212.09 334.189 212.364 333.868C212.577 333.619 213.108 333.354 214.477 333.663L214.697 332.687L214.917 331.712C213.337 331.356 211.806 331.445 210.845 332.568C209.944 333.62 209.88 335.225 210.189 336.977L211.174 336.804ZM214.697 332.687L214.477 333.663C216.032 334.014 217.487 334.002 218.54 333.228C219.641 332.42 219.95 331.054 219.853 329.568L218.855 329.633L217.857 329.699C217.937 330.913 217.642 331.407 217.356 331.617C217.023 331.861 216.311 332.026 214.917 331.712L214.697 332.687ZM218.855 329.633L219.853 329.568C219.686 327.025 220.337 325.695 221.388 325.061L220.872 324.205L220.355 323.349C218.363 324.55 217.67 326.84 217.857 329.699L218.855 329.633ZM220.872 324.205L221.388 325.061C223.229 323.951 224.212 322.158 224.401 319.858L223.404 319.776L222.408 319.694C222.262 321.463 221.557 322.623 220.355 323.349L220.872 324.205ZM223.404 319.776L224.401 319.858C224.549 318.053 225.218 316.824 226.326 316.017L225.738 315.209L225.15 314.4C223.48 315.614 222.593 317.43 222.408 319.694L223.404 319.776ZM225.738 315.209L226.326 316.017C227.639 315.062 229.257 314.174 231.19 313.36L230.802 312.438L230.414 311.517C228.373 312.376 226.614 313.335 225.15 314.4L225.738 315.209ZM230.802 312.438L231.19 313.36C232.329 312.881 233.229 312.174 233.722 311.174C234.217 310.172 234.225 309.034 233.897 307.854L232.933 308.121L231.97 308.389C232.209 309.25 232.144 309.853 231.929 310.289C231.712 310.728 231.263 311.159 230.414 311.517L230.802 312.438ZM232.933 308.121L233.897 307.854C233.347 305.872 233.086 304.158 233.092 302.7L232.092 302.696L231.092 302.692C231.085 304.385 231.386 306.287 231.97 308.389L232.933 308.121ZM232.092 302.696L233.092 302.7C233.097 301.308 233.467 299.921 234.233 298.527L233.356 298.045L232.48 297.564C231.57 299.22 231.098 300.933 231.092 302.692L232.092 302.696ZM233.356 298.045L234.233 298.527C235.025 297.084 236.276 295.345 238.012 293.303L237.25 292.655L236.488 292.007C234.707 294.102 233.362 295.957 232.48 297.564L233.356 298.045ZM237.25 292.655L238.012 293.303C238.96 292.187 239.588 291.039 239.76 289.864C239.936 288.653 239.61 287.521 238.855 286.519L238.056 287.12L237.257 287.721C237.723 288.34 237.873 288.942 237.78 289.575C237.683 290.246 237.297 291.054 236.488 292.007L237.25 292.655ZM238.056 287.12L238.855 286.519C237.75 285.051 237.142 283.42 237.02 281.602L236.022 281.669L235.025 281.736C235.173 283.944 235.921 285.946 237.257 287.721L238.056 287.12ZM236.022 281.669L237.02 281.602C236.867 279.315 235.897 277.436 234.126 276.037L233.506 276.822L232.886 277.607C234.2 278.645 234.908 279.996 235.025 281.736L236.022 281.669ZM233.506 276.822L234.126 276.037C232.703 274.913 231.685 273.604 231.046 272.112L230.127 272.505L229.207 272.899C229.989 274.725 231.225 276.294 232.886 277.607L233.506 276.822ZM230.127 272.505L231.046 272.112C230.296 270.361 229.308 268.766 228.084 267.33L227.323 267.979L226.562 268.628C227.654 269.909 228.536 271.331 229.207 272.899L230.127 272.505ZM227.323 267.979L228.084 267.33C226.874 265.912 225.496 264.633 223.953 263.494L223.359 264.299L222.765 265.104C224.19 266.155 225.455 267.33 226.562 268.628L227.323 267.979ZM223.359 264.299L223.953 263.494C222.724 262.588 221.987 261.274 221.786 259.438L220.792 259.547L219.798 259.656C220.051 261.967 221.026 263.82 222.765 265.104L223.359 264.299ZM220.792 259.547L221.786 259.438C221.714 258.776 221.502 258.163 221.111 257.645C220.718 257.125 220.188 256.758 219.57 256.523C218.373 256.068 216.803 256.089 214.982 256.422L215.161 257.406L215.341 258.389C217.047 258.077 218.178 258.133 218.859 258.392C219.179 258.514 219.381 258.673 219.515 258.85C219.649 259.029 219.757 259.282 219.798 259.656L220.792 259.547ZM215.161 257.406L214.982 256.422C213.277 256.734 212.104 256.7 211.362 256.454C210.707 256.238 210.389 255.866 210.268 255.267L209.288 255.464L208.307 255.66C208.576 257.001 209.432 257.923 210.734 258.353C211.95 258.755 213.519 258.723 215.341 258.389L215.161 257.406ZM209.288 255.464L210.268 255.267C209.894 253.4 209.697 251.331 209.684 249.056L208.684 249.062L207.684 249.068C207.698 251.449 207.904 253.648 208.307 255.66L209.288 255.464ZM208.684 249.062L209.684 249.056C209.676 247.74 209.356 246.573 208.611 245.674C207.86 244.769 206.783 244.259 205.51 244.057L205.353 245.045L205.197 246.033C206.13 246.181 206.711 246.516 207.071 246.95C207.435 247.39 207.678 248.057 207.684 249.068L208.684 249.062ZM205.353 245.045L205.51 244.057C203.452 243.731 201.943 243.012 200.891 241.971L200.187 242.681L199.484 243.392C200.907 244.802 202.842 245.659 205.197 246.033L205.353 245.045ZM200.187 242.681L200.891 241.971C199.513 240.606 197.759 239.648 195.67 239.072L195.404 240.036L195.139 241C196.951 241.5 198.386 242.305 199.484 243.392L200.187 242.681ZM195.404 240.036L195.67 239.072C193.875 238.577 192.502 237.748 191.497 236.613L190.748 237.275L189.999 237.938C191.301 239.408 193.032 240.42 195.139 241L195.404 240.036ZM190.748 237.275L191.497 236.613C190.421 235.397 189.536 233.977 188.846 232.343L187.925 232.732L187.004 233.122C187.772 234.94 188.769 236.548 189.999 237.938L190.748 237.275ZM187.925 232.732L188.846 232.343C188.034 230.422 186.735 228.938 184.96 227.928L184.465 228.797L183.971 229.666C185.35 230.451 186.357 231.591 187.004 233.122L187.925 232.732ZM184.465 228.797L184.96 227.928C183.571 227.137 182.54 226.002 181.854 224.494L180.944 224.908L180.034 225.322C180.889 227.203 182.206 228.661 183.971 229.666L184.465 228.797ZM180.944 224.908L181.854 224.494C181.051 222.728 180.07 221.124 178.91 219.687L178.132 220.315L177.354 220.943C178.402 222.242 179.296 223.7 180.034 225.322L180.944 224.908ZM178.132 220.315L178.91 219.687C177.825 218.342 176.797 216.943 175.825 215.49L174.994 216.046L174.162 216.602C175.167 218.104 176.231 219.551 177.354 220.943L178.132 220.315ZM174.994 216.046L175.825 215.49C174.77 213.913 173.469 212.567 171.926 211.454L171.341 212.265L170.756 213.076C172.106 214.05 173.24 215.224 174.162 216.602L174.994 216.046ZM171.341 212.265L171.926 211.454C170.865 210.688 170.261 209.318 170.408 206.993L169.41 206.93L168.412 206.867C168.241 209.568 168.925 211.755 170.756 213.076L171.341 212.265ZM169.41 206.93L170.408 206.993C170.579 204.285 169.869 202.105 167.967 200.843L167.414 201.676L166.861 202.509C167.938 203.224 168.558 204.547 168.412 206.867L169.41 206.93ZM167.414 201.676L167.967 200.843C166.676 199.987 165.782 198.793 165.279 197.217L164.326 197.522L163.373 197.826C164.008 199.813 165.173 201.389 166.861 202.509L167.414 201.676ZM164.326 197.522L165.279 197.217C164.881 195.972 163.959 195.159 162.686 194.772C161.471 194.403 159.933 194.416 158.149 194.708L158.31 195.694L158.472 196.681C160.129 196.41 161.315 196.446 162.105 196.686C162.837 196.908 163.202 197.29 163.373 197.826L164.326 197.522ZM158.31 195.694L158.149 194.708C156.487 194.979 155.454 194.868 154.881 194.588C154.619 194.46 154.457 194.299 154.351 194.107C154.24 193.906 154.157 193.611 154.158 193.175L153.158 193.172L152.158 193.169C152.156 193.855 152.286 194.507 152.602 195.077C152.924 195.657 153.405 196.092 154.002 196.384C155.146 196.944 156.693 196.972 158.472 196.681L158.31 195.694ZM153.158 193.172L154.158 193.175C154.165 190.954 154.252 188.727 154.419 186.492L153.422 186.418L152.424 186.343C152.254 188.625 152.165 190.9 152.158 193.169L153.158 193.172ZM153.422 186.418L154.419 186.492C154.517 185.182 154.246 183.999 153.477 183.069C152.717 182.152 151.585 181.62 150.239 181.367L150.054 182.35L149.87 183.333C150.937 183.533 151.573 183.906 151.936 184.345C152.289 184.771 152.495 185.395 152.424 186.343L153.422 186.418ZM150.054 182.35L150.239 181.367C148.051 180.957 147.028 180.027 146.689 178.761L145.723 179.019L144.757 179.278C145.365 181.546 147.23 182.838 149.87 183.333L150.054 182.35ZM145.723 179.019L146.689 178.761C146.151 176.752 144.971 175.115 143.201 173.868L142.625 174.685L142.049 175.502C143.463 176.499 144.348 177.752 144.757 179.278L145.723 179.019ZM142.625 174.685L143.201 173.868C141.777 172.864 140.872 171.621 140.431 170.127L139.472 170.411L138.513 170.694C139.092 172.656 140.289 174.262 142.049 175.502L142.625 174.685ZM139.472 170.411L140.431 170.127C139.938 168.458 139.594 166.74 139.4 164.973L138.406 165.082L137.412 165.191C137.619 167.074 137.985 168.909 138.513 170.694L139.472 170.411ZM138.406 165.082L139.4 164.973C139.164 162.816 138.001 161.045 136.063 159.673L135.486 160.49L134.908 161.306C136.464 162.407 137.249 163.699 137.412 165.191L138.406 165.082ZM135.486 160.49L136.063 159.673C134.576 158.621 134.009 157.374 134.176 155.845L133.182 155.736L132.188 155.627C131.932 157.963 132.901 159.886 134.908 161.306L135.486 160.49ZM133.182 155.736L134.176 155.845C134.382 153.956 134.713 152.084 135.169 150.229L134.198 149.99L133.226 149.752C132.75 151.692 132.404 153.651 132.188 155.627L133.182 155.736ZM134.198 149.99L135.169 150.229C135.684 148.129 135.521 146.136 134.638 144.298L133.737 144.731L132.836 145.164C133.498 146.544 133.643 148.057 133.226 149.752L134.198 149.99ZM133.737 144.731L134.638 144.298C133.898 142.758 133.352 141.174 132.997 139.544L132.02 139.757L131.043 139.969C131.431 141.755 132.029 143.487 132.836 145.164L133.737 144.731ZM132.02 139.757L132.997 139.544C132.572 137.59 131.401 135.721 129.606 133.931L128.9 134.639L128.194 135.347C129.816 136.965 130.725 138.508 131.043 139.969L132.02 139.757ZM128.9 134.639L129.606 133.931C129.255 133.581 129.095 133.298 129.033 133.087C128.978 132.898 128.986 132.72 129.076 132.51C129.291 132.015 129.984 131.327 131.521 130.534L131.063 129.645L130.604 128.757C128.991 129.589 127.748 130.546 127.241 131.715C126.971 132.338 126.922 132.997 127.114 133.65C127.299 134.282 127.69 134.845 128.194 135.347L128.9 134.639ZM131.063 129.645L131.521 130.534C133.153 129.692 134.401 128.747 135.071 127.643C135.796 126.45 135.785 125.167 135.096 123.946L134.225 124.437L133.354 124.929C133.707 125.554 133.691 126.063 133.361 126.605C132.977 127.238 132.122 127.973 130.604 128.757L131.063 129.645ZM134.225 124.437L135.096 123.946C134.102 122.185 133.337 120.224 132.803 118.056L131.832 118.295L130.861 118.533C131.434 120.862 132.263 122.996 133.354 124.929L134.225 124.437ZM131.832 118.295L132.803 118.056C132.564 117.08 132.631 116.368 132.876 115.84C133.117 115.318 133.596 114.839 134.449 114.45L134.035 113.54L133.62 112.63C132.453 113.162 131.553 113.936 131.061 114.999C130.571 116.056 130.548 117.261 130.861 118.533L131.832 118.295ZM134.035 113.54L134.449 114.45C136.773 113.391 138.156 111.571 138.496 109.074L137.505 108.939L136.514 108.804C136.269 110.6 135.338 111.847 133.62 112.63L134.035 113.54ZM137.505 108.939L138.496 109.074C138.614 108.208 138.937 107.71 139.369 107.413C139.831 107.095 140.58 106.896 141.75 106.974L141.816 105.976L141.882 104.978C140.471 104.885 139.21 105.095 138.236 105.765C137.231 106.456 136.689 107.525 136.514 108.804L137.505 108.939ZM141.816 105.976L141.75 106.974C143.198 107.069 144.49 106.789 145.466 105.963C146.441 105.138 146.932 103.909 147.081 102.463L146.086 102.361L145.091 102.259C144.975 103.394 144.622 104.057 144.174 104.437C143.726 104.816 143.016 105.053 141.882 104.978L141.816 105.976ZM146.086 102.361L147.081 102.463C147.199 101.307 147.542 100.721 147.912 100.437C148.272 100.161 148.885 99.9966 149.96 100.214L150.158 99.2336L150.356 98.2534C148.981 97.9755 147.691 98.0851 146.693 98.8511C145.706 99.6097 145.237 100.835 145.091 102.259L146.086 102.361ZM150.158 99.2336L149.96 100.214C152.562 100.74 154.81 100.497 156.513 99.2343L155.917 98.4309L155.322 97.6276C154.246 98.4253 152.654 98.7179 150.356 98.2534L150.158 99.2336ZM155.917 98.4309L156.513 99.2343C157.842 98.2485 159.277 97.4134 160.819 96.7289L160.413 95.8149L160.007 94.901C158.334 95.6441 156.771 96.553 155.322 97.6276L155.917 98.4309ZM160.413 95.8149L160.819 96.7289C162.66 95.9111 164.138 94.4567 165.274 92.457L164.405 91.9629L163.535 91.469C162.564 93.1776 161.381 94.2911 160.007 94.901L160.413 95.8149ZM164.405 91.9629L165.274 92.457C166.26 90.7208 167.449 89.4373 168.826 88.5643L168.291 87.7197L167.756 86.8751C166.058 87.9514 164.656 89.4968 163.535 91.469L164.405 91.9629ZM168.291 87.7197L168.826 88.5643C169.942 87.8574 171.464 87.8329 173.63 88.9553L174.09 88.0675L174.55 87.1795C172.059 85.8889 169.716 85.6327 167.756 86.8751L168.291 87.7197ZM174.09 88.0675L173.63 88.9553C174.914 89.6208 176.196 89.9098 177.391 89.5743C178.605 89.2334 179.494 88.3153 180.121 87.076L179.229 86.6244L178.337 86.1726C177.867 87.1019 177.35 87.5086 176.851 87.6488C176.332 87.7943 175.594 87.7206 174.55 87.1795L174.09 88.0675ZM179.229 86.6244L180.121 87.076C180.605 86.121 181.13 85.6382 181.635 85.4322C182.129 85.231 182.778 85.2218 183.673 85.5845L184.049 84.6578L184.425 83.731C183.204 83.2363 181.993 83.1261 180.88 83.5804C179.779 84.0298 178.952 84.9591 178.337 86.1726L179.229 86.6244ZM184.049 84.6578L183.673 85.5845C184.879 86.0735 186.07 86.2144 187.191 85.8784C188.313 85.5419 189.225 84.7692 189.952 83.697L189.124 83.136L188.296 82.5749C187.754 83.3748 187.186 83.7918 186.617 83.9626C186.046 84.1338 185.333 84.0996 184.425 83.731L184.049 84.6578ZM189.124 83.136L189.952 83.697C191.096 82.0088 192.371 81.2512 193.774 81.1694L193.716 80.171L193.657 79.1727C191.475 79.3 189.69 80.519 188.296 82.5749L189.124 83.136ZM193.716 80.171L193.774 81.1694C195.485 81.0695 197.256 81.1736 199.089 81.4854L199.257 80.4996L199.425 79.5137C197.454 79.1784 195.531 79.0635 193.657 79.1727L193.716 80.171ZM199.257 80.4996L199.089 81.4854C201.206 81.8455 203.179 81.5199 204.962 80.484L204.459 79.6194L203.957 78.7549C202.607 79.5396 201.112 79.8008 199.425 79.5137L199.257 80.4996ZM204.459 79.6194L204.962 80.484C206.336 79.6852 207.827 79.3777 209.472 79.5667L209.586 78.5732L209.7 77.5797C207.641 77.3431 205.715 77.7329 203.957 78.7549L204.459 79.6194ZM209.586 78.5732L209.472 79.5667C211.658 79.8179 213.608 79.0706 215.264 77.4402L214.562 76.7277L213.86 76.0151C212.585 77.2712 211.218 77.7542 209.7 77.5797L209.586 78.5732ZM214.562 76.7277L215.264 77.4402C216.555 76.1688 217.929 75.6403 219.43 75.737L219.494 74.7391L219.558 73.7411C217.414 73.6029 215.5 74.4001 213.86 76.0151L214.562 76.7277ZM219.494 74.7391L219.43 75.737C221.358 75.8614 223.223 75.6794 225.02 75.1868L224.756 74.2224L224.492 73.258C222.918 73.6893 221.275 73.8519 219.558 73.7411L219.494 74.7391ZM224.756 74.2224L225.02 75.1868C226.356 74.8207 227.912 75.09 229.762 76.2286L230.286 75.377L230.81 74.5255C228.658 73.2006 226.527 72.7002 224.492 73.258L224.756 74.2224ZM230.286 75.377L229.762 76.2286C230.947 76.9584 232.211 77.2068 233.426 76.6793C234.574 76.1811 235.452 75.0816 236.149 73.6624L235.251 73.2219L234.353 72.7813C233.74 74.0306 233.137 74.6246 232.629 74.8447C232.19 75.0356 231.625 75.0274 230.81 74.5255L230.286 75.377ZM235.251 73.2219L236.149 73.6624C237.412 71.0878 238.714 70.1223 239.923 70.0426L239.857 69.0447L239.791 68.0469C237.477 68.1996 235.709 70.0188 234.353 72.7813L235.251 73.2219ZM239.857 69.0447L239.923 70.0426C241.39 69.9457 243.042 70.4574 244.906 71.7387L245.472 70.9146L246.039 70.0905C243.938 68.6462 241.846 67.9113 239.791 68.0469L239.857 69.0447ZM245.472 70.9146L244.906 71.7387C245.994 72.4865 247.102 72.9526 248.22 73.0488C249.357 73.1464 250.429 72.8549 251.407 72.2138L250.859 71.3774L250.311 70.541C249.68 70.9542 249.05 71.1127 248.391 71.0561C247.714 70.9979 246.933 70.7055 246.039 70.0905L245.472 70.9146ZM250.859 71.3774L251.407 72.2138C252.854 71.2652 254.34 70.8479 255.888 70.9216L255.935 69.9227L255.983 68.9238C253.979 68.8285 252.08 69.3811 250.311 70.541L250.859 71.3774ZM255.935 69.9227L255.888 70.9216C258.005 71.0222 259.933 70.1409 261.648 68.4584L260.947 67.7448L260.247 67.0311C258.83 68.4214 257.418 68.992 255.983 68.9238L255.935 69.9227ZM260.947 67.7448L261.648 68.4584C262.327 67.7915 262.981 67.4382 263.607 67.311C264.227 67.1852 264.909 67.2624 265.685 67.6111L266.095 66.6991L266.505 65.787C265.414 65.2965 264.305 65.1284 263.209 65.3511C262.119 65.5725 261.132 66.1617 260.247 67.0311L260.947 67.7448ZM266.095 66.6991L265.685 67.6111C267.579 68.4625 269.459 69.2066 271.325 69.843L271.648 68.8965L271.971 67.95C270.166 67.335 268.345 66.6141 266.505 65.787L266.095 66.6991ZM271.648 68.8965L271.325 69.843C273.217 70.4878 275.085 70.9373 276.931 71.1883L277.065 70.1975L277.2 69.2066C275.493 68.9743 273.75 68.5565 271.971 67.95L271.648 68.8965ZM277.065 70.1975L276.931 71.1883C278.763 71.4376 280.582 71.5277 282.386 71.4577L282.348 70.4584L282.309 69.4592C280.623 69.5246 278.921 69.4407 277.2 69.2066L277.065 70.1975ZM282.348 70.4584L282.386 71.4577C284.173 71.3884 285.947 71.2089 287.709 70.9192L287.547 69.9324L287.384 68.9457C285.704 69.222 284.013 69.3932 282.309 69.4592L282.348 70.4584ZM287.547 69.9324L287.709 70.9192C289.683 70.5946 291.523 69.5434 293.231 67.8756L292.533 67.1601L291.834 66.4446C290.336 67.9072 288.852 68.7043 287.384 68.9457L287.547 69.9324ZM292.533 67.1601L293.231 67.8756C294.671 66.4702 296.065 65.9924 297.463 66.202L297.612 65.213L297.76 64.224C295.593 63.8993 293.601 64.7196 291.834 66.4446L292.533 67.1601ZM297.612 65.213L297.463 66.202C299.73 66.5416 301.733 65.4119 303.442 63.2936L302.663 62.6659L301.885 62.0382C300.423 63.8504 299.059 64.4188 297.76 64.224L297.612 65.213ZM302.663 62.6659L303.442 63.2936C304.119 62.4536 304.658 62.2792 305.075 62.3217C305.567 62.3718 306.278 62.753 307.195 63.8475L307.962 63.2053L308.728 62.5632C307.698 61.3328 306.552 60.4616 305.278 60.3319C303.929 60.1946 302.792 60.913 301.885 62.0382L302.663 62.6659ZM307.962 63.2053L307.195 63.8475C309.195 66.2354 311.207 67.8373 313.248 68.4601L313.54 67.5037L313.832 66.5473C312.329 66.0887 310.623 64.8251 308.728 62.5632L307.962 63.2053ZM313.54 67.5037L313.248 68.4601C315.241 69.0687 317.222 68.9725 319.15 68.1743L318.767 67.2504L318.385 66.3264C316.885 66.9475 315.381 67.0202 313.832 66.5473L313.54 67.5037ZM318.767 67.2504L319.15 68.1743C320.862 67.4653 322.561 66.7669 324.246 66.0791L323.868 65.1533L323.49 64.2274C321.802 64.9166 320.1 65.6162 318.385 66.3264L318.767 67.2504ZM323.868 65.1533L324.246 66.0791C325.92 65.3955 327.617 64.7407 329.337 64.1148L328.996 63.1751L328.654 62.2354C326.909 62.87 325.188 63.534 323.49 64.2274L323.868 65.1533ZM328.996 63.1751L329.337 64.1148C331.095 63.4752 332.834 62.7618 334.553 61.9746L334.137 61.0654L333.721 60.1562C332.05 60.9213 330.36 61.6143 328.654 62.2354L328.996 63.1751ZM334.137 61.0654L334.553 61.9746C335.155 61.6994 335.748 61.6767 336.396 61.9177C337.077 62.1713 337.861 62.7354 338.734 63.7183L339.482 63.054L340.229 62.3898C339.235 61.2708 338.193 60.4525 337.093 60.0432C335.959 59.6213 334.815 59.6553 333.721 60.1562L334.137 61.0654ZM339.482 63.054L338.734 63.7183C339.733 64.8427 340.798 65.6468 341.941 65.9762C343.132 66.3192 344.294 66.1149 345.361 65.4382L344.825 64.5938L344.29 63.7494C343.661 64.148 343.086 64.2247 342.495 64.0544C341.857 63.8707 341.098 63.3672 340.229 62.3898L339.482 63.054ZM344.825 64.5938L345.361 65.4382C347.072 64.3527 348.779 63.2021 350.482 61.9864L349.901 61.1724L349.32 60.3584C347.645 61.5538 345.968 62.6841 344.29 63.7494L344.825 64.5938ZM349.901 61.1724L350.482 61.9864C352.07 60.8529 353.66 60.1588 355.256 59.8705L355.078 58.8865L354.9 57.9024C352.971 58.2509 351.11 59.0807 349.32 60.3584L349.901 61.1724ZM355.078 58.8865L355.256 59.8705C357.047 59.5469 358.822 59.1447 360.582 58.664L360.319 57.6993L360.055 56.7347C358.351 57.2 356.633 57.5892 354.9 57.9024L355.078 58.8865ZM360.319 57.6993L360.582 58.664C361.746 58.3462 363.132 58.8178 364.821 60.8552L365.591 60.2171L366.361 59.5791C364.483 57.3134 362.355 56.1064 360.055 56.7347L360.319 57.6993ZM365.591 60.2171L364.821 60.8552C365.786 62.0203 366.902 62.8309 368.18 62.9039C369.487 62.9785 370.624 62.2666 371.58 61.1745L370.828 60.5159L370.075 59.8574C369.322 60.7176 368.732 60.9322 368.294 60.9071C367.827 60.8805 367.178 60.5655 366.361 59.5791L365.591 60.2171ZM370.828 60.5159L371.58 61.1745C372.334 60.3134 372.93 60.0891 373.376 60.1089C373.847 60.1298 374.495 60.434 375.312 61.3961L376.074 60.7489L376.837 60.1017C375.864 58.956 374.743 58.1676 373.465 58.1108C372.163 58.0531 371.03 58.766 370.075 59.8574L370.828 60.5159ZM376.074 60.7489L375.312 61.3961C376.278 62.5334 377.349 63.3348 378.543 63.5632C379.787 63.8011 380.95 63.3788 381.974 62.5207L381.332 61.7542L380.69 60.9877C379.998 61.5671 379.427 61.6959 378.919 61.5987C378.36 61.492 377.661 61.072 376.837 60.1017L376.074 60.7489ZM381.332 61.7542L381.974 62.5207C382.821 61.8114 383.424 61.387 383.81 61.1894C384.014 61.0847 384.064 61.0931 384.008 61.0963C383.889 61.1031 383.578 61.0472 383.404 60.7407L384.274 60.2472L385.143 59.7535C384.847 59.2306 384.321 59.0753 383.895 59.0995C383.532 59.1201 383.184 59.2628 382.898 59.4094C382.303 59.714 381.559 60.2595 380.69 60.9877L381.332 61.7542ZM384.274 60.2472L383.349 60.6288L383.618 61.2789L384.542 60.8973L385.466 60.5157L385.198 59.8655L384.274 60.2472ZM384.542 60.8973L384.552 61.8972L384.652 61.8962L384.642 60.8963L384.632 59.8963L384.532 59.8973L384.542 60.8973Z" fill="#E6BE51"/>
<path d="M464.502 585.951L464.469 586.95L464.516 586.952L464.564 586.949L464.502 585.951ZM451.462 583.478L451.957 584.346L451.462 583.478ZM420.41 582.441L420.918 583.302L420.41 582.441ZM415.127 583.302L415.418 582.345L415.127 583.302ZM410.19 581.302L410.645 580.411L410.19 581.302ZM394.65 580.105L395.607 579.814L394.65 580.105ZM374.543 573.609L374.091 572.717L374.543 573.609ZM362.51 563.577L362.607 564.572L362.51 563.577ZM355.275 556.123L354.658 556.91L355.275 556.123ZM355.008 550.925L355.87 551.432L355.008 550.925ZM353.034 541.293L353.645 542.085L353.034 541.293ZM352.043 535.435L351.421 536.218L352.043 535.435ZM358.323 527.174L357.326 527.25L358.323 527.174ZM358.186 521.494L359.186 521.519L358.186 521.494ZM363.947 512.949L363.697 511.981L363.947 512.949ZM369.218 510.275L368.532 509.548L369.218 510.275ZM369.129 503.749L368.209 504.14L369.129 503.749ZM384.7 488.786L383.752 488.467L384.7 488.786ZM388.916 467.015L388.406 466.155L388.916 467.015ZM386.053 457.229L385.204 456.699L386.053 457.229ZM383.137 448.142L384.137 448.149L383.137 448.142ZM380.672 436.823L380.486 437.805L380.672 436.823ZM375.512 434.034L374.753 434.685V434.685L375.512 434.034ZM371.112 430.776L371.508 429.858L371.112 430.776ZM340.004 422.519L339.561 421.622L340.004 422.519ZM334.725 422.056L335.332 421.262L334.725 422.056ZM329.592 420.737L329.394 419.757L329.592 420.737ZM313.992 419.534L314.506 420.392L313.992 419.534ZM304.271 416.41L303.821 417.303L304.271 416.41ZM293.812 415.903L294.552 415.23L293.812 415.903ZM277.81 403.75L276.811 403.713L277.81 403.75ZM275.719 398.84L275.129 399.648L275.719 398.84ZM269.084 389.987L269.962 389.508L269.084 389.987ZM276.465 369.552L275.732 368.871L276.465 369.552ZM297.656 353.422L298.647 353.552L297.656 353.422ZM301.304 349.574L301.243 348.576L301.304 349.574ZM307.885 349.406L307.892 348.406L307.885 349.406ZM312.962 347.235L313.758 347.84L312.962 347.235ZM316.978 343.569L317.509 344.416V344.416L316.978 343.569ZM319.296 338.324L318.296 338.332L319.296 338.324ZM319.268 331.4L320.268 331.401L319.268 331.4ZM328.897 324.865L327.9 324.786L328.897 324.865ZM329.536 319.061L328.546 318.919L329.536 319.061ZM329.515 313.412L330.504 313.263L329.515 313.412ZM329.141 307.379L328.141 307.363L329.141 307.379ZM324.829 303.63L324.952 302.638L324.829 303.63ZM319.309 300.763L320.204 300.318L319.309 300.763ZM318.092 295.198L317.092 295.216L318.092 295.198ZM314.178 291.723L314.239 290.725L314.178 291.723ZM310.297 288.073L309.297 288.081L310.297 288.073ZM308.387 282.82L309.086 282.105L308.387 282.82ZM303.236 280.471L303.39 279.483L303.236 280.471ZM301.151 275.174L302.122 275.414L301.151 275.174ZM297.666 271.286L297.477 270.304L297.666 271.286ZM290.87 270.601L290.273 271.403L290.87 270.601ZM287.025 267.011L286.265 267.661L287.025 267.011ZM280.228 258.904L279.25 259.116L280.228 258.904ZM277.385 254.3L276.796 255.107L277.385 254.3ZM276.497 248.271L277.456 248.553L276.497 248.271ZM256.252 211.71L255.737 212.568L256.252 211.71ZM256.253 206.706L256.844 207.512L256.253 206.706ZM259.08 201.312L258.137 201.643L259.08 201.312ZM259.432 196.396L260.304 196.885L259.432 196.396ZM261.351 191.097L260.373 190.89L261.351 191.097ZM265.84 188.504L265.951 187.51L265.84 188.504ZM273.592 180.532L274.525 180.891L273.592 180.532ZM289.106 176.409L290.089 176.592L289.106 176.409ZM303.37 169.398L303.358 170.398L303.37 169.398ZM308.302 167.108L307.574 166.423L308.302 167.108ZM313.257 165.042L313.349 164.046L313.257 165.042ZM318.991 166.742L318.553 167.641L318.991 166.742ZM324.206 165.814L323.48 165.126L324.206 165.814ZM328.975 162.497L328.624 161.561L328.975 162.497ZM345.547 166.966L345.063 166.091L345.547 166.966ZM350.719 166.401L350.439 167.361L350.719 166.401ZM355.909 165.874L355.437 164.992L355.909 165.874ZM361.03 164.758L360.952 165.755L361.03 164.758ZM366.256 164.469L366.445 165.451L366.256 164.469ZM371.355 162.953L371.73 163.88L371.355 162.953ZM376.622 163.377L377.088 162.493L376.622 163.377ZM381.656 159.953L382.561 160.378L381.656 159.953ZM386.661 156.367L387.088 155.463L386.661 156.367ZM402.516 157.33L402.595 158.327L402.516 157.33ZM412.93 153.865L412.914 154.865L412.93 153.865ZM423.532 155.073L423.814 156.032L423.532 155.073ZM426.891 156.306L427.847 156.014L427.841 155.992L427.833 155.971L426.891 156.306ZM427.505 158.317L426.549 158.609L426.768 159.327L427.518 159.317L427.505 158.317ZM464.601 585.945L464.539 584.946L464.439 584.953L464.502 585.951L464.564 586.949L464.664 586.943L464.601 585.945ZM464.502 585.951L464.534 584.951C461.217 584.843 458.839 584.18 457.273 583.084L456.699 583.904L456.126 584.723C458.142 586.133 460.965 586.835 464.469 586.95L464.502 585.951ZM456.699 583.904L457.273 583.084C456.267 582.381 455.217 581.949 454.128 581.86C453.031 581.771 451.971 582.037 450.967 582.609L451.462 583.478L451.957 584.346C452.654 583.949 453.317 583.801 453.966 583.854C454.623 583.907 455.34 584.173 456.126 584.723L456.699 583.904ZM451.462 583.478L450.967 582.609C449.486 583.453 448.047 583.622 446.589 583.175L446.296 584.131L446.003 585.088C448.031 585.708 450.037 585.441 451.957 584.346L451.462 583.478ZM446.296 584.131L446.589 583.175C444.741 582.61 442.894 582.369 441.05 582.46L441.1 583.459L441.149 584.458C442.748 584.379 444.364 584.586 446.003 585.088L446.296 584.131ZM441.1 583.459L441.05 582.46C439.116 582.555 437.196 583.253 435.301 584.486L435.847 585.324L436.392 586.163C438.059 585.078 439.642 584.532 441.149 584.458L441.1 583.459ZM435.847 585.324L435.301 584.486C433.693 585.533 432.199 585.846 430.771 585.558L430.573 586.538L430.375 587.518C432.417 587.93 434.439 587.434 436.392 586.163L435.847 585.324ZM430.573 586.538L430.771 585.558C429.301 585.261 427.81 584.364 426.307 582.735L425.572 583.413L424.837 584.091C426.532 585.928 428.375 587.115 430.375 587.518L430.573 586.538ZM425.572 583.413L426.307 582.735C425.411 581.764 424.401 581.101 423.267 580.887C422.119 580.671 420.984 580.942 419.902 581.579L420.41 582.441L420.918 583.302C421.678 582.854 422.324 582.745 422.897 582.853C423.483 582.963 424.133 583.328 424.837 584.091L425.572 583.413ZM420.41 582.441L419.902 581.579C418.246 582.556 416.774 582.758 415.418 582.345L415.127 583.302L414.836 584.259C416.841 584.869 418.892 584.497 420.918 583.302L420.41 582.441ZM415.127 583.302L415.418 582.345C413.795 581.852 412.204 581.207 410.645 580.411L410.19 581.302L409.735 582.192C411.396 583.041 413.097 583.73 414.836 584.259L415.127 583.302ZM410.19 581.302L410.645 580.411C408.525 579.328 406.24 580.017 404.011 581.805L404.636 582.585L405.262 583.365C407.217 581.797 408.635 581.63 409.735 582.192L410.19 581.302ZM404.636 582.585L404.011 581.805C402.02 583.402 400.309 584.035 398.844 583.954L398.789 584.952L398.733 585.951C400.881 586.07 403.068 585.125 405.262 583.365L404.636 582.585ZM398.789 584.952L398.844 583.954C397.732 583.892 396.544 582.895 395.607 579.814L394.65 580.105L393.693 580.397C394.662 583.578 396.233 585.812 398.733 585.951L398.789 584.952ZM394.65 580.105L395.607 579.814C395.109 578.181 394.357 576.85 393.159 576.261C391.88 575.631 390.5 576.025 389.224 576.878L389.78 577.709L390.336 578.54C391.354 577.86 391.932 577.886 392.276 578.055C392.701 578.264 393.237 578.899 393.693 580.397L394.65 580.105ZM389.78 577.709L389.224 576.878C388.165 577.586 387.475 577.7 387.054 577.604C386.675 577.518 386.213 577.188 385.785 576.195L384.867 576.59L383.949 576.986C384.503 578.272 385.351 579.268 386.61 579.555C387.826 579.831 389.102 579.366 390.336 578.54L389.78 577.709ZM384.867 576.59L385.785 576.195C384.746 573.783 383.302 572.081 381.349 571.405L381.021 572.35L380.694 573.295C381.904 573.714 383.024 574.839 383.949 576.986L384.867 576.59ZM381.021 572.35L381.349 571.405C379.366 570.718 376.887 571.3 374.091 572.717L374.543 573.609L374.995 574.501C377.674 573.143 379.513 572.885 380.694 573.295L381.021 572.35ZM374.543 573.609L374.091 572.717C372.796 573.373 371.767 573.65 370.974 573.65C370.221 573.65 369.659 573.403 369.209 572.924L368.48 573.609L367.752 574.294C368.605 575.202 369.707 575.65 370.974 575.65C372.202 575.65 373.553 575.232 374.995 574.501L374.543 573.609ZM368.48 573.609L369.209 572.924C368.145 571.792 367.526 570 367.53 567.359L366.53 567.358L365.53 567.356C365.525 570.275 366.206 572.65 367.752 574.294L368.48 573.609ZM366.53 567.358L367.53 567.359C367.532 565.834 367.168 564.498 366.213 563.599C365.251 562.694 363.907 562.438 362.414 562.582L362.51 563.577L362.607 564.572C363.798 564.457 364.465 564.701 364.843 565.056C365.228 565.418 365.532 566.102 365.53 567.356L366.53 567.358ZM362.51 563.577L362.414 562.582C361.174 562.701 360.372 562.538 359.881 562.249C359.438 561.989 359.124 561.555 359.005 560.784L358.017 560.936L357.028 561.089C357.221 562.337 357.813 563.353 358.867 563.973C359.874 564.565 361.163 564.712 362.607 564.572L362.51 563.577ZM358.017 560.936L359.005 560.784C358.657 558.53 357.621 556.692 355.893 555.336L355.275 556.123L354.658 556.91C355.961 557.932 356.753 559.303 357.028 561.089L358.017 560.936ZM355.275 556.123L355.893 555.336C355.334 554.898 355.098 554.424 355.07 553.881C355.04 553.287 355.252 552.483 355.87 551.432L355.008 550.925L354.146 550.419C353.426 551.643 353.014 552.845 353.073 553.983C353.134 555.172 353.701 556.159 354.658 556.91L355.275 556.123ZM355.008 550.925L355.87 551.432C356.617 550.16 356.945 548.854 356.567 547.609C356.19 546.37 355.192 545.448 353.862 544.763L353.404 545.652L352.946 546.542C354.023 547.096 354.495 547.672 354.653 548.191C354.809 548.703 354.736 549.414 354.146 550.419L355.008 550.925ZM353.404 545.652L353.862 544.763C352.71 544.171 352.518 543.721 352.503 543.549C352.488 543.371 352.608 542.885 353.645 542.085L353.034 541.293L352.422 540.502C351.299 541.369 350.402 542.444 350.51 543.718C350.619 544.999 351.692 545.896 352.946 546.542L353.404 545.652ZM353.034 541.293L353.645 542.085C354.891 541.123 355.641 539.886 355.391 538.412C355.163 537.058 354.126 535.812 352.665 534.651L352.043 535.435L351.421 536.218C352.779 537.296 353.318 538.145 353.419 538.745C353.5 539.224 353.336 539.797 352.422 540.502L353.034 541.293ZM352.043 535.435L352.665 534.651C351.998 534.122 351.585 533.687 351.363 533.349C351.254 533.185 351.207 533.067 351.188 532.993C351.171 532.925 351.179 532.9 351.179 532.898C351.18 532.895 351.187 532.865 351.239 532.809C351.295 532.748 351.398 532.662 351.576 532.563C351.942 532.361 352.522 532.161 353.368 531.993L353.173 531.012L352.978 530.031C352.038 530.218 351.231 530.468 350.608 530.812C349.99 531.154 349.431 531.66 349.242 532.402C349.051 533.149 349.304 533.859 349.692 534.449C350.08 535.039 350.678 535.628 351.421 536.218L352.043 535.435ZM353.173 531.012L353.368 531.993C355.212 531.626 356.704 531.092 357.738 530.322C358.821 529.515 359.42 528.422 359.32 527.099L358.323 527.174L357.326 527.25C357.366 527.774 357.177 528.246 356.543 528.718C355.86 529.227 354.708 529.687 352.978 530.031L353.173 531.012ZM358.323 527.174L359.32 527.099C359.183 525.286 359.138 523.426 359.186 521.519L358.186 521.494L357.187 521.469C357.137 523.439 357.183 525.367 357.326 527.25L358.323 527.174ZM358.186 521.494L359.186 521.519C359.232 519.71 359.616 518.089 360.324 516.64L359.426 516.201L358.528 515.762C357.681 517.493 357.239 519.4 357.187 521.469L358.186 521.494ZM359.426 516.201L360.324 516.64C360.937 515.388 362.151 514.446 364.197 513.917L363.947 512.949L363.697 511.981C361.269 512.608 359.47 513.834 358.528 515.762L359.426 516.201ZM363.947 512.949L364.197 513.917C366.547 513.31 368.471 512.354 369.904 511.003L369.218 510.275L368.532 509.548C367.41 510.606 365.819 511.432 363.697 511.981L363.947 512.949ZM369.218 510.275L369.904 511.003C370.794 510.164 371.172 509.023 371.154 507.726C371.137 506.456 370.743 504.99 370.049 503.357L369.129 503.749L368.209 504.14C368.852 505.654 369.142 506.849 369.154 507.754C369.166 508.633 368.92 509.182 368.532 509.548L369.218 510.275ZM369.129 503.749L370.049 503.357C369.394 501.816 369.514 501.125 369.69 500.866C369.851 500.63 370.395 500.283 372.002 500.406L372.079 499.409L372.155 498.412C370.458 498.282 368.859 498.532 368.036 499.742C367.229 500.929 367.527 502.535 368.209 504.14L369.129 503.749ZM372.079 499.409L372.002 500.406C373.715 500.538 375.228 500.341 376.228 499.504C377.322 498.589 377.493 497.201 377.176 495.747L376.199 495.961L375.222 496.174C375.462 497.273 375.224 497.736 374.945 497.971C374.572 498.283 373.745 498.534 372.155 498.412L372.079 499.409ZM376.199 495.961L377.176 495.747C376.932 494.627 377.107 493.999 377.405 493.633C377.72 493.244 378.378 492.889 379.666 492.784L379.585 491.787L379.504 490.791C377.978 490.915 376.665 491.37 375.851 492.372C375.02 493.397 374.91 494.741 375.222 496.174L376.199 495.961ZM379.585 491.787L379.666 492.784C382.646 492.541 384.864 491.436 385.648 489.105L384.7 488.786L383.752 488.467C383.345 489.679 382.152 490.575 379.504 490.791L379.585 491.787ZM384.7 488.786L385.648 489.105C386.218 487.411 386.98 485.825 387.934 484.346L387.094 483.804L386.254 483.261C385.208 484.882 384.374 486.618 383.752 488.467L384.7 488.786ZM387.094 483.804L387.934 484.346C389.048 482.621 389.596 480.653 389.597 478.476L388.597 478.475L387.597 478.474C387.596 480.302 387.141 481.887 386.254 483.261L387.094 483.804ZM388.597 478.475L389.597 478.476C389.599 476.289 389.014 474.074 387.883 471.84L386.991 472.292L386.099 472.743C387.114 474.748 387.599 476.655 387.597 478.474L388.597 478.475ZM386.991 472.292L387.883 471.84C387.436 470.957 387.405 470.28 387.607 469.726C387.82 469.144 388.358 468.509 389.427 467.875L388.916 467.015L388.406 466.155C387.119 466.919 386.158 467.863 385.729 469.04C385.289 470.246 385.473 471.507 386.099 472.743L386.991 472.292ZM388.916 467.015L389.427 467.875C390.662 467.142 391.707 466.108 391.545 464.712C391.469 464.055 391.131 463.48 390.684 462.99C390.236 462.499 389.631 462.039 388.907 461.601L388.389 462.456L387.871 463.311C388.501 463.693 388.933 464.038 389.206 464.338C389.48 464.638 389.546 464.838 389.558 464.941C389.573 465.064 389.527 465.49 388.406 466.155L388.916 467.015ZM388.389 462.456L388.907 461.601C387.624 460.823 386.955 460.109 386.687 459.51C386.454 458.989 386.474 458.443 386.901 457.758L386.053 457.229L385.204 456.699C384.481 457.858 384.315 459.105 384.861 460.326C385.372 461.469 386.446 462.448 387.871 463.311L388.389 462.456ZM386.053 457.229L386.901 457.758C387.546 456.724 387.898 455.654 387.755 454.594C387.608 453.509 386.97 452.632 386.039 451.95L385.448 452.756L384.857 453.563C385.479 454.019 385.718 454.456 385.773 454.862C385.831 455.293 385.709 455.889 385.204 456.699L386.053 457.229ZM385.448 452.756L386.039 451.95C384.747 451.003 384.127 449.768 384.137 448.149L383.137 448.142L382.137 448.136C382.122 450.392 383.043 452.234 384.857 453.563L385.448 452.756ZM383.137 448.142L384.137 448.149C384.15 446.253 384.291 444.021 384.563 441.449L383.568 441.343L382.574 441.238C382.297 443.855 382.151 446.156 382.137 448.136L383.137 448.142ZM383.568 441.343L384.563 441.449C384.713 440.026 384.542 438.743 383.892 437.728C383.225 436.687 382.159 436.087 380.859 435.84L380.672 436.823L380.486 437.805C381.391 437.977 381.91 438.341 382.208 438.807C382.523 439.298 382.698 440.067 382.574 441.238L383.568 441.343ZM380.672 436.823L380.859 435.84C378.834 435.455 377.333 434.621 376.271 433.383L375.512 434.034L374.753 434.685C376.162 436.328 378.1 437.352 380.486 437.805L380.672 436.823ZM375.512 434.034L376.271 433.383C374.939 431.831 373.349 430.652 371.508 429.858L371.112 430.776L370.716 431.694C372.27 432.365 373.614 433.358 374.753 434.685L375.512 434.034ZM371.112 430.776L371.508 429.858C369.76 429.104 367.972 428.5 366.145 428.046L365.904 429.017L365.663 429.987C367.383 430.414 369.067 430.983 370.716 431.694L371.112 430.776ZM365.904 429.017L366.145 428.046C364.152 427.552 362.046 427.713 359.858 428.472L360.185 429.416L360.513 430.361C362.402 429.706 364.109 429.602 365.663 429.987L365.904 429.017ZM360.185 429.416L359.858 428.472C358.983 428.775 358.245 428.81 357.609 428.649C356.975 428.488 356.358 428.109 355.76 427.437L355.013 428.102L354.266 428.767C355.078 429.679 356.027 430.31 357.117 430.587C358.205 430.864 359.348 430.765 360.513 430.361L360.185 429.416ZM355.013 428.102L355.76 427.437C354.953 426.531 354.017 425.901 352.946 425.639C351.872 425.377 350.761 425.509 349.649 425.955L350.021 426.883L350.394 427.811C351.201 427.487 351.881 427.438 352.471 427.582C353.064 427.727 353.665 428.091 354.266 428.767L355.013 428.102ZM350.021 426.883L349.649 425.955C348.91 426.251 348.299 426.23 347.742 425.975C347.148 425.702 346.502 425.111 345.843 424.049L344.994 424.577L344.144 425.105C344.918 426.351 345.826 427.296 346.908 427.793C348.027 428.306 349.214 428.284 350.394 427.811L350.021 426.883ZM344.994 424.577L345.843 424.049C345.069 422.803 344.154 421.862 343.053 421.408C341.908 420.936 340.716 421.052 339.561 421.622L340.004 422.519L340.446 423.416C341.185 423.051 341.771 423.043 342.29 423.257C342.852 423.489 343.485 424.044 344.144 425.105L344.994 424.577ZM340.004 422.519L339.561 421.622C338.746 422.025 338.016 422.166 337.351 422.108C336.689 422.05 336.019 421.787 335.332 421.262L334.725 422.056L334.117 422.851C335.056 423.569 336.079 424.004 337.177 424.101C338.272 424.197 339.368 423.948 340.446 423.416L340.004 422.519ZM334.725 422.056L335.332 421.262C333.507 419.866 331.507 419.329 329.394 419.757L329.592 420.737L329.791 421.717C331.269 421.418 332.691 421.76 334.117 422.851L334.725 422.056ZM329.592 420.737L329.394 419.757C327.596 420.121 325.798 420.492 324 420.869L324.206 421.847L324.411 422.826C326.204 422.45 327.997 422.08 329.791 421.717L329.592 420.737ZM324.206 421.847L324 420.869C322.6 421.162 321.258 420.749 319.899 419.399L319.194 420.108L318.489 420.817C320.222 422.539 322.22 423.285 324.411 422.826L324.206 421.847ZM319.194 420.108L319.899 419.399C319.007 418.512 317.988 417.945 316.845 417.819C315.705 417.693 314.573 418.02 313.478 418.676L313.992 419.534L314.506 420.392C315.334 419.895 316.03 419.741 316.625 419.807C317.216 419.872 317.836 420.168 318.489 420.817L319.194 420.108ZM313.992 419.534L313.478 418.676C312.63 419.185 311.905 419.384 311.284 419.37C310.677 419.356 310.079 419.136 309.47 418.641L308.839 419.416L308.207 420.192C309.111 420.928 310.128 421.344 311.239 421.369C312.336 421.394 313.431 421.036 314.506 420.392L313.992 419.534ZM308.839 419.416L309.47 418.641C307.909 417.37 306.327 416.327 304.721 415.517L304.271 416.41L303.821 417.303C305.281 418.039 306.744 419 308.207 420.192L308.839 419.416ZM304.271 416.41L304.721 415.517C302.841 414.569 300.706 414.715 298.444 415.711L298.847 416.626L299.249 417.541C301.155 416.703 302.636 416.705 303.821 417.303L304.271 416.41ZM298.847 416.626L298.444 415.711C297.516 416.119 296.768 416.23 296.168 416.143C295.585 416.06 295.051 415.779 294.552 415.23L293.812 415.903L293.073 416.576C293.846 417.426 294.787 417.966 295.883 418.123C296.961 418.278 298.094 418.05 299.249 417.541L298.847 416.626ZM293.812 415.903L294.552 415.23C293.187 413.729 291.63 412.629 289.883 411.96L289.525 412.894L289.168 413.828C290.591 414.373 291.893 415.279 293.073 416.576L293.812 415.903ZM289.525 412.894L289.883 411.96C288.415 411.399 287.113 410.592 285.97 409.537L285.291 410.271L284.613 411.006C285.944 412.235 287.465 413.177 289.168 413.828L289.525 412.894ZM285.291 410.271L285.97 409.537C284.593 408.266 282.862 407.373 280.816 406.833L280.561 407.8L280.306 408.767C282.093 409.238 283.516 409.993 284.613 411.006L285.291 410.271ZM280.561 407.8L280.816 406.833C280.039 406.628 279.558 406.282 279.263 405.847C278.96 405.4 278.774 404.745 278.81 403.788L277.81 403.75L276.811 403.713C276.764 404.95 276.995 406.067 277.609 406.971C278.23 407.886 279.167 408.467 280.306 408.767L280.561 407.8ZM277.81 403.75L278.81 403.788C278.902 401.338 278.111 399.349 276.308 398.033L275.719 398.84L275.129 399.648C276.281 400.489 276.884 401.774 276.811 403.713L277.81 403.75ZM275.719 398.84L276.308 398.033C274.927 397.024 273.786 395.825 272.881 394.433L272.043 394.978L271.205 395.524C272.246 397.124 273.556 398.5 275.129 399.648L275.719 398.84ZM272.043 394.978L272.881 394.433C271.924 392.962 270.951 391.321 269.962 389.508L269.084 389.987L268.206 390.466C269.216 392.317 270.215 394.003 271.205 395.524L272.043 394.978ZM269.084 389.987L269.962 389.508C269.561 388.774 269.513 388.188 269.67 387.684C269.835 387.15 270.28 386.544 271.186 385.898L270.604 385.084L270.023 384.27C268.915 385.061 268.101 385.991 267.76 387.092C267.409 388.222 267.607 389.369 268.206 390.466L269.084 389.987ZM270.604 385.084L271.186 385.898C273.361 384.344 274.625 382.44 274.629 380.177L273.629 380.175L272.629 380.173C272.626 381.581 271.873 382.949 270.023 384.27L270.604 385.084ZM273.629 380.175L274.629 380.177C274.632 378.399 274.789 376.559 275.101 374.657L274.114 374.495L273.127 374.333C272.799 376.333 272.632 378.281 272.629 380.173L273.629 380.175ZM274.114 374.495L275.101 374.657C275.392 372.883 276.095 371.42 277.198 370.232L276.465 369.552L275.732 368.871C274.341 370.37 273.477 372.203 273.127 374.333L274.114 374.495ZM276.465 369.552L277.198 370.232C278.183 369.171 279.747 368.575 282.102 368.64L282.129 367.64L282.156 366.64C279.454 366.567 277.241 367.246 275.732 368.871L276.465 369.552ZM282.129 367.64L282.102 368.64C283.53 368.679 284.794 368.335 285.68 367.41C286.555 366.495 286.88 365.199 286.855 363.729L285.856 363.746L284.856 363.762C284.876 364.958 284.602 365.643 284.235 366.027C283.878 366.4 283.257 366.671 282.156 366.64L282.129 367.64ZM285.856 363.746L286.855 363.729C286.814 361.213 287.45 359.694 288.491 358.855L287.864 358.076L287.237 357.297C285.512 358.687 284.809 360.947 284.856 363.762L285.856 363.746ZM287.864 358.076L288.491 358.855C289.607 357.956 291.215 357.528 293.465 357.737L293.558 356.742L293.651 355.746C291.075 355.506 288.887 355.968 287.237 357.297L287.864 358.076ZM293.558 356.742L293.465 357.737C294.832 357.865 296.069 357.629 297.022 356.857C297.971 356.088 298.468 354.923 298.647 353.552L297.656 353.422L296.664 353.293C296.525 354.359 296.179 354.966 295.763 355.303C295.349 355.638 294.697 355.843 293.651 355.746L293.558 356.742ZM297.656 353.422L298.647 353.552C298.79 352.463 299.117 351.758 299.532 351.32C299.933 350.898 300.508 350.624 301.364 350.572L301.304 349.574L301.243 348.576C299.987 348.652 298.897 349.083 298.081 349.944C297.281 350.788 296.84 351.944 296.664 353.293L297.656 353.422ZM301.304 349.574L301.364 350.572C303.454 350.446 305.625 350.39 307.878 350.406L307.885 349.406L307.892 348.406C305.597 348.39 303.381 348.446 301.243 348.576L301.304 349.574ZM307.885 349.406L307.878 350.406C310.384 350.423 312.412 349.614 313.758 347.84L312.962 347.235L312.166 346.631C311.291 347.783 309.934 348.42 307.892 348.406L307.885 349.406ZM312.962 347.235L313.758 347.84C314.796 346.474 316.044 345.334 317.509 344.416L316.978 343.569L316.447 342.722C314.779 343.767 313.35 345.071 312.166 346.631L312.962 347.235ZM316.978 343.569L317.509 344.416C319.471 343.187 320.318 341.038 320.296 338.316L319.296 338.324L318.296 338.332C318.315 340.64 317.617 341.988 316.447 342.722L316.978 343.569ZM319.296 338.324L320.296 338.316C320.275 335.803 320.266 333.498 320.268 331.401L319.268 331.4L318.268 331.399C318.266 333.503 318.275 335.814 318.296 338.332L319.296 338.324ZM319.268 331.4L320.268 331.401C320.269 330.639 320.532 330.153 321.025 329.801C321.58 329.405 322.528 329.11 324.01 329.047L323.967 328.048L323.924 327.049C322.275 327.119 320.875 327.451 319.864 328.173C318.791 328.938 318.27 330.061 318.268 331.399L319.268 331.4ZM323.967 328.048L324.01 329.047C325.656 328.976 327.054 328.66 328.089 327.991C329.179 327.288 329.792 326.241 329.894 324.944L328.897 324.865L327.9 324.786C327.846 325.476 327.559 325.953 327.005 326.311C326.397 326.703 325.408 326.985 323.924 327.049L323.967 328.048ZM328.897 324.865L329.894 324.944C330.049 322.976 330.26 321.063 330.526 319.202L329.536 319.061L328.546 318.919C328.274 320.823 328.059 322.779 327.9 324.786L328.897 324.865ZM329.536 319.061L330.526 319.202C330.809 317.223 330.802 315.243 330.504 313.263L329.515 313.412L328.526 313.56C328.795 315.348 328.802 317.133 328.546 318.919L329.536 319.061ZM329.515 313.412L330.504 313.263C330.23 311.44 330.108 309.485 330.141 307.394L329.141 307.379L328.141 307.363C328.107 309.55 328.234 311.616 328.526 313.56L329.515 313.412ZM329.141 307.379L330.141 307.394C330.162 306.071 329.715 304.926 328.744 304.083C327.815 303.275 326.505 302.83 324.952 302.638L324.829 303.63L324.706 304.623C326.062 304.791 326.925 305.151 327.432 305.592C327.899 305.998 328.154 306.548 328.141 307.363L329.141 307.379ZM324.829 303.63L324.952 302.638C322.145 302.29 320.746 301.407 320.204 300.318L319.309 300.763L318.414 301.209C319.415 303.222 321.697 304.25 324.706 304.623L324.829 303.63ZM319.309 300.763L320.204 300.318C319.512 298.928 319.129 297.226 319.091 295.18L318.092 295.198L317.092 295.216C317.133 297.488 317.561 299.496 318.414 301.209L319.309 300.763ZM318.092 295.198L319.091 295.18C319.068 293.892 318.657 292.77 317.747 291.962C316.865 291.179 315.645 290.811 314.239 290.725L314.178 291.723L314.116 292.721C315.28 292.792 315.998 293.083 316.42 293.458C316.815 293.809 317.076 294.345 317.092 295.216L318.092 295.198ZM314.178 291.723L314.239 290.725C313.085 290.654 312.38 290.353 311.965 289.963C311.569 289.591 311.304 289.011 311.296 288.066L310.297 288.073L309.297 288.081C309.307 289.411 309.697 290.576 310.595 291.42C311.474 292.247 312.701 292.634 314.116 292.721L314.178 291.723ZM310.297 288.073L311.296 288.066C311.278 285.606 310.584 283.569 309.086 282.105L308.387 282.82L307.688 283.535C308.701 284.525 309.28 285.99 309.297 288.081L310.297 288.073ZM308.387 282.82L309.086 282.105C307.648 280.698 305.721 279.845 303.39 279.483L303.236 280.471L303.083 281.459C305.108 281.774 306.616 282.487 307.688 283.535L308.387 282.82ZM303.236 280.471L303.39 279.483C302.584 279.358 302.206 279.02 302.012 278.527C301.778 277.933 301.745 276.94 302.122 275.414L301.151 275.174L300.18 274.935C299.769 276.601 299.689 278.087 300.151 279.259C300.651 280.532 301.71 281.246 303.083 281.459L303.236 280.471ZM301.151 275.174L302.122 275.414C302.528 273.768 302.554 272.188 301.616 271.14C300.658 270.072 299.098 269.991 297.477 270.304L297.666 271.286L297.856 272.268C299.346 271.98 299.922 272.247 300.126 272.475C300.349 272.724 300.562 273.388 300.18 274.935L301.151 275.174ZM297.666 271.286L297.477 270.304C294.439 270.89 292.536 270.595 291.467 269.799L290.87 270.601L290.273 271.403C292.042 272.72 294.671 272.882 297.856 272.268L297.666 271.286ZM290.87 270.601L291.467 269.799C290.107 268.787 288.88 267.641 287.785 266.361L287.025 267.011L286.265 267.661C287.457 269.055 288.794 270.303 290.273 271.403L290.87 270.601ZM287.025 267.011L287.785 266.361C286.585 264.958 285.211 263.716 283.666 262.637L283.093 263.457L282.52 264.276C283.93 265.261 285.178 266.389 286.265 267.661L287.025 267.011ZM283.093 263.457L283.666 262.637C282.424 261.769 281.593 260.485 281.205 258.693L280.228 258.904L279.25 259.116C279.729 261.328 280.808 263.08 282.52 264.276L283.093 263.457ZM280.228 258.904L281.205 258.693C280.728 256.485 279.661 254.723 277.975 253.492L277.385 254.3L276.796 255.107C278.033 256.011 278.862 257.319 279.25 259.116L280.228 258.904ZM277.385 254.3L277.975 253.492C277.06 252.824 276.612 251.417 277.456 248.553L276.497 248.271L275.537 247.988C274.642 251.028 274.787 253.641 276.796 255.107L277.385 254.3ZM276.497 248.271L277.456 248.553C277.915 246.994 278.018 245.554 277.48 244.403C276.906 243.174 275.744 242.551 274.333 242.357L274.197 243.347L274.06 244.338C275.052 244.474 275.475 244.837 275.668 245.249C275.897 245.739 275.948 246.596 275.537 247.988L276.497 248.271ZM274.197 243.347L274.333 242.357C273.261 242.21 272.62 241.881 272.252 241.491C271.901 241.12 271.682 240.568 271.716 239.698L270.716 239.66L269.717 239.621C269.668 240.88 269.988 242.006 270.797 242.864C271.589 243.704 272.729 244.155 274.06 244.338L274.197 243.347ZM270.716 239.66L271.716 239.698C271.806 237.362 271.183 235.389 269.732 233.914L269.019 234.615L268.306 235.316C269.284 236.31 269.792 237.7 269.717 239.621L270.716 239.66ZM269.019 234.615L269.732 233.914C268.582 232.744 267.627 231.459 266.865 230.059L265.986 230.537L265.108 231.015C265.961 232.583 267.029 234.017 268.306 235.316L269.019 234.615ZM265.986 230.537L266.865 230.059C265.889 228.265 263.975 226.963 261.381 226.037L261.045 226.979L260.709 227.92C263.088 228.77 264.469 229.839 265.108 231.015L265.986 230.537ZM261.045 226.979L261.381 226.037C260.238 225.628 259.494 225.134 259.05 224.607C258.626 224.104 258.427 223.516 258.464 222.784L257.466 222.732L256.467 222.681C256.405 223.892 256.752 224.984 257.521 225.896C258.27 226.784 259.366 227.441 260.709 227.92L261.045 226.979ZM257.466 222.732L258.464 222.784C258.558 220.962 258.978 219.124 259.736 217.267L258.81 216.89L257.884 216.512C257.049 218.559 256.573 220.617 256.467 222.681L257.466 222.732ZM258.81 216.89L259.736 217.267C260.231 216.054 260.23 214.834 259.664 213.688C259.12 212.585 258.103 211.654 256.766 210.853L256.252 211.71L255.737 212.568C256.903 213.267 257.563 213.949 257.871 214.573C258.158 215.154 258.186 215.773 257.884 216.512L258.81 216.89ZM256.252 211.71L256.766 210.853C255.589 210.146 255.376 209.614 255.376 209.334C255.376 209.01 255.641 208.395 256.844 207.512L256.253 206.706L255.661 205.9C254.362 206.852 253.376 207.989 253.376 209.333C253.376 210.721 254.413 211.773 255.737 212.568L256.252 211.71ZM256.253 206.706L256.844 207.512C258.159 206.548 259.153 205.532 259.722 204.445C260.309 203.325 260.433 202.148 260.024 200.982L259.08 201.312L258.137 201.643C258.345 202.237 258.306 202.839 257.951 203.517C257.578 204.228 256.849 205.029 255.661 205.9L256.253 206.706ZM259.08 201.312L260.024 200.982C259.494 199.47 259.604 198.133 260.304 196.885L259.432 196.396L258.56 195.906C257.557 197.694 257.432 199.634 258.137 201.643L259.08 201.312ZM259.432 196.396L260.304 196.885C261.214 195.265 261.885 193.401 262.329 191.305L261.351 191.097L260.373 190.89C259.963 192.823 259.354 194.491 258.56 195.906L259.432 196.396ZM261.351 191.097L262.329 191.305C262.496 190.517 262.838 190.067 263.294 189.804C263.786 189.519 264.559 189.367 265.729 189.498L265.84 188.504L265.951 187.51C264.555 187.355 263.297 187.492 262.293 188.072C261.253 188.673 260.633 189.663 260.373 190.89L261.351 191.097ZM265.84 188.504L265.729 189.498C267.118 189.653 268.373 189.549 269.439 189.109C270.527 188.659 271.354 187.884 271.9 186.826L271.011 186.368L270.122 185.909C269.786 186.561 269.31 186.998 268.675 187.26C268.017 187.532 267.127 187.641 265.951 187.51L265.84 188.504ZM271.011 186.368L271.9 186.826C272.801 185.078 273.676 183.098 274.525 180.891L273.592 180.532L272.659 180.173C271.83 182.326 270.984 184.237 270.122 185.909L271.011 186.368ZM273.592 180.532L274.525 180.891C274.862 180.016 275.284 179.732 275.71 179.66C276.24 179.571 277.096 179.748 278.373 180.501L278.882 179.64L279.39 178.779C277.98 177.947 276.611 177.48 275.377 177.688C274.041 177.913 273.161 178.868 272.659 180.173L273.592 180.532ZM278.882 179.64L278.373 180.501C281.118 182.121 283.563 182.96 285.63 182.759L285.534 181.763L285.437 180.768C284.009 180.907 282.02 180.331 279.39 178.779L278.882 179.64ZM285.534 181.763L285.63 182.759C286.869 182.638 287.848 181.933 288.569 180.852C289.271 179.799 289.76 178.353 290.089 176.592L289.106 176.409L288.123 176.226C287.817 177.864 287.394 179.01 286.905 179.742C286.436 180.446 285.946 180.718 285.437 180.768L285.534 181.763ZM289.106 176.409L290.089 176.592C290.237 175.798 290.428 175.214 290.638 174.807C290.848 174.401 291.047 174.227 291.188 174.153C291.407 174.04 291.945 173.973 293.094 174.833L293.693 174.033L294.292 173.232C293.017 172.277 291.579 171.699 290.268 172.377C289.646 172.7 289.192 173.248 288.861 173.89C288.53 174.53 288.292 175.32 288.123 176.226L289.106 176.409ZM293.693 174.033L293.094 174.833C294.382 175.798 295.718 176.372 297.013 176.134C298.358 175.887 299.278 174.84 299.891 173.468L298.977 173.06L298.064 172.653C297.577 173.743 297.067 174.091 296.651 174.167C296.184 174.253 295.428 174.082 294.292 173.232L293.693 174.033ZM298.977 173.06L299.891 173.468C300.916 171.169 302.108 170.383 303.358 170.398L303.37 169.398L303.382 168.398C300.973 168.369 299.237 170.025 298.064 172.653L298.977 173.06ZM303.37 169.398L303.358 170.398C305.513 170.424 307.413 169.51 309.029 167.794L308.302 167.108L307.574 166.423C306.272 167.804 304.885 168.416 303.382 168.398L303.37 169.398ZM308.302 167.108L309.029 167.794C310.313 166.433 311.675 165.9 313.165 166.038L313.257 165.042L313.349 164.046C311.15 163.843 309.208 164.688 307.574 166.423L308.302 167.108ZM313.257 165.042L313.165 166.038C314.869 166.195 316.664 166.721 318.553 167.641L318.991 166.742L319.429 165.843C317.362 164.837 315.334 164.23 313.349 164.046L313.257 165.042ZM318.991 166.742L318.553 167.641C319.685 168.192 320.83 168.416 321.954 168.216C323.078 168.016 324.071 167.411 324.932 166.502L324.206 165.814L323.48 165.126C322.843 165.798 322.217 166.138 321.603 166.247C320.989 166.357 320.275 166.254 319.429 165.843L318.991 166.742ZM324.206 165.814L324.932 166.502C326.348 165.008 327.815 164 329.326 163.433L328.975 162.497L328.624 161.561C326.774 162.255 325.062 163.458 323.48 165.126L324.206 165.814ZM328.975 162.497L329.326 163.433C330.798 162.881 332.353 162.814 334.024 163.258L334.281 162.291L334.538 161.325C332.495 160.782 330.513 160.852 328.624 161.561L328.975 162.497ZM334.281 162.291L334.024 163.258C335.686 163.699 337.485 164.729 339.422 166.429L340.082 165.677L340.741 164.926C338.658 163.097 336.591 161.87 334.538 161.325L334.281 162.291ZM340.082 165.677L339.422 166.429C340.501 167.376 341.602 168.031 342.726 168.296C343.878 168.568 344.997 168.414 346.032 167.84L345.547 166.966L345.063 166.091C344.464 166.423 343.854 166.507 343.185 166.349C342.487 166.185 341.673 165.743 340.741 164.926L340.082 165.677ZM345.547 166.966L346.032 167.84C347.429 167.066 348.878 166.906 350.439 167.361L350.719 166.401L350.999 165.441C348.932 164.838 346.933 165.055 345.063 166.091L345.547 166.966ZM350.719 166.401L350.439 167.361C352.5 167.962 354.5 167.761 356.38 166.755L355.909 165.874L355.437 164.992C354.025 165.747 352.565 165.897 350.999 165.441L350.719 166.401ZM355.909 165.874L356.38 166.755C357.868 165.96 359.385 165.634 360.952 165.755L361.03 164.758L361.107 163.761C359.139 163.609 357.242 164.027 355.437 164.992L355.909 165.874ZM361.03 164.758L360.952 165.755C362.807 165.899 364.639 165.798 366.445 165.451L366.256 164.469L366.068 163.487C364.44 163.8 362.787 163.891 361.107 163.761L361.03 164.758ZM366.256 164.469L366.445 165.451C368.228 165.109 369.99 164.585 371.73 163.88L371.355 162.953L370.979 162.026C369.355 162.684 367.718 163.17 366.068 163.487L366.256 164.469ZM371.355 162.953L371.73 163.88C373.099 163.326 374.546 163.414 376.155 164.262L376.622 163.377L377.088 162.493C375.039 161.413 372.974 161.218 370.979 162.026L371.355 162.953ZM376.622 163.377L376.155 164.262C376.743 164.572 377.368 164.737 378.016 164.704C378.664 164.671 379.268 164.443 379.815 164.071C380.876 163.349 381.772 162.056 382.561 160.378L381.656 159.953L380.751 159.527C380.013 161.096 379.306 161.998 378.69 162.417C378.398 162.616 378.143 162.695 377.915 162.707C377.685 162.718 377.415 162.665 377.088 162.493L376.622 163.377ZM381.656 159.953L382.561 160.378C383.299 158.809 384.008 157.883 384.635 157.434C384.934 157.22 385.196 157.127 385.427 157.105C385.657 157.082 385.92 157.123 386.233 157.271L386.661 156.367L387.088 155.463C386.497 155.183 385.873 155.052 385.233 155.114C384.595 155.176 384.005 155.425 383.47 155.808C382.429 156.554 381.54 157.849 380.751 159.527L381.656 159.953ZM386.661 156.367L386.233 157.271C387.964 158.09 389.715 159.194 391.484 160.592L392.104 159.807L392.724 159.022C390.854 157.546 388.975 156.356 387.088 155.463L386.661 156.367ZM392.104 159.807L391.484 160.592C392.516 161.406 393.625 161.883 394.794 161.87C395.969 161.858 397.049 161.352 398.02 160.502L397.361 159.75L396.702 158.998C395.988 159.623 395.35 159.864 394.772 159.871C394.19 159.877 393.513 159.645 392.724 159.022L392.104 159.807ZM397.361 159.75L398.02 160.502C399.587 159.13 401.11 158.444 402.595 158.327L402.516 157.33L402.438 156.333C400.418 156.492 398.504 157.42 396.702 158.998L397.361 159.75ZM402.516 157.33L402.595 158.327C404.536 158.174 406.427 157.489 408.261 156.314L407.721 155.472L407.182 154.63C405.58 155.656 404.001 156.209 402.438 156.333L402.516 157.33ZM407.721 155.472L408.261 156.314C409.84 155.302 411.386 154.84 412.914 154.865L412.93 153.865L412.946 152.865C410.964 152.832 409.038 153.441 407.182 154.63L407.721 155.472ZM412.93 153.865L412.914 154.865C414.549 154.891 416.203 155.206 417.882 155.819L418.224 154.879L418.567 153.94C416.696 153.257 414.821 152.896 412.946 152.865L412.93 153.865ZM418.224 154.879L417.882 155.819C419.851 156.537 421.839 156.613 423.814 156.032L423.532 155.073L423.249 154.114C421.697 154.57 420.147 154.517 418.567 153.94L418.224 154.879ZM423.532 155.073L423.814 156.032C424.594 155.803 425.073 155.83 425.349 155.931C425.576 156.014 425.789 156.191 425.949 156.641L426.891 156.306L427.833 155.971C427.517 155.08 426.932 154.381 426.038 154.054C425.195 153.744 424.232 153.825 423.249 154.114L423.532 155.073ZM426.891 156.306L425.935 156.598L426.549 158.609L427.505 158.317L428.462 158.025L427.847 156.014L426.891 156.306ZM427.505 158.317L427.518 159.317L427.618 159.316L427.605 158.316L427.592 157.316L427.493 157.317L427.505 158.317Z" fill="#E6BE51"/>
</svg>
