<svg width="50" height="50" viewBox="0 0 50 50" fill="none" xmlns="http://www.w3.org/2000/svg">
<path d="M23.0732 1.8418C23.7353 0.052926 26.2647 0.052925 26.9268 1.8418L32.1738 16.0215C32.4833 16.8574 33.1425 17.5167 33.9785 17.8262L48.1582 23.0732C49.9471 23.7353 49.9471 26.2647 48.1582 26.9268L33.9785 32.1738C33.1426 32.4833 32.4833 33.1426 32.1738 33.9785L26.9268 48.1582C26.2647 49.9471 23.7353 49.9471 23.0732 48.1582L17.8262 33.9785C17.5167 33.1425 16.8574 32.4833 16.0215 32.1738L1.8418 26.9268C0.0529252 26.2647 0.0529242 23.7353 1.8418 23.0732L16.0215 17.8262C16.8574 17.5167 17.5167 16.8574 17.8262 16.0215L23.0732 1.8418Z" stroke="#E6BE51"/>
</svg>
