<svg width="50" height="50" viewBox="0 0 50 50" fill="none" xmlns="http://www.w3.org/2000/svg">
<path d="M22.6039 1.66825C23.427 -0.556087 26.573 -0.556083 27.3961 1.66826L32.6429 15.8476C32.9017 16.5469 33.4531 17.0983 34.1524 17.3571L48.3317 22.6039C50.5561 23.427 50.5561 26.573 48.3317 27.3961L34.1524 32.6429C33.4531 32.9017 32.9017 33.4531 32.6429 34.1524L27.3961 48.3317C26.573 50.5561 23.427 50.5561 22.6039 48.3317L17.3571 34.1524C17.0983 33.4531 16.5469 32.9017 15.8476 32.6429L1.66825 27.3961C-0.556087 26.573 -0.556083 23.427 1.66826 22.6039L15.8476 17.3571C16.5469 17.0983 17.0983 16.5469 17.3571 15.8476L22.6039 1.66825Z" fill="#E6BE51"/>
</svg>
