<svg width="1100" height="650" viewBox="0 0 1100 650" fill="none" xmlns="http://www.w3.org/2000/svg">
<path d="M22.6039 251.668C23.427 249.444 26.573 249.444 27.3961 251.668L32.6429 265.848C32.9017 266.547 33.4531 267.098 34.1524 267.357L48.3317 272.604C50.5561 273.427 50.5561 276.573 48.3317 277.396L34.1524 282.643C33.4531 282.902 32.9017 283.453 32.6429 284.152L27.3961 298.332C26.573 300.556 23.427 300.556 22.6039 298.332L17.3571 284.152C17.0983 283.453 16.5469 282.902 15.8476 282.643L1.66825 277.396C-0.556087 276.573 -0.556083 273.427 1.66826 272.604L15.8476 267.357C16.5469 267.098 17.0983 266.547 17.3571 265.848L22.6039 251.668Z" fill="#E6BE51"/>
<path d="M123.073 101.842C123.735 100.053 126.265 100.053 126.927 101.842L132.174 116.021C132.483 116.857 133.143 117.517 133.979 117.826L148.158 123.073C149.947 123.735 149.947 126.265 148.158 126.927L133.979 132.174C133.143 132.483 132.483 133.143 132.174 133.979L126.927 148.158C126.265 149.947 123.735 149.947 123.073 148.158L117.826 133.979C117.517 133.143 116.857 132.483 116.021 132.174L101.842 126.927C100.053 126.265 100.053 123.735 101.842 123.073L116.021 117.826C116.857 117.517 117.517 116.857 117.826 116.021L123.073 101.842Z" stroke="#E6BE51"/>
<path d="M422.604 51.6683C423.427 49.4439 426.573 49.4439 427.396 51.6683L432.643 65.8476C432.902 66.5469 433.453 67.0983 434.152 67.3571L448.332 72.6039C450.556 73.427 450.556 76.573 448.332 77.3961L434.152 82.6429C433.453 82.9017 432.902 83.4531 432.643 84.1524L427.396 98.3317C426.573 100.556 423.427 100.556 422.604 98.3317L417.357 84.1524C417.098 83.4531 416.547 82.9017 415.848 82.6429L401.668 77.3961C399.444 76.573 399.444 73.427 401.668 72.6039L415.848 67.3571C416.547 67.0983 417.098 66.5469 417.357 65.8476L422.604 51.6683Z" fill="#E6BE51"/>
<path d="M673.073 51.8418C673.735 50.0529 676.265 50.0529 676.927 51.8418L682.174 66.0215C682.483 66.8574 683.143 67.5167 683.979 67.8262L698.158 73.0732C699.947 73.7353 699.947 76.2647 698.158 76.9268L683.979 82.1738C683.143 82.4833 682.483 83.1426 682.174 83.9785L676.927 98.1582C676.265 99.9471 673.735 99.9471 673.073 98.1582L667.826 83.9785C667.517 83.1426 666.857 82.4833 666.021 82.1738L651.842 76.9268C650.053 76.2647 650.053 73.7353 651.842 73.0732L666.021 67.8262C666.857 67.5167 667.517 66.8574 667.826 66.0215L673.073 51.8418Z" stroke="#E6BE51"/>
<path d="M972.604 101.668C973.427 99.4439 976.573 99.4439 977.396 101.668L982.643 115.848C982.902 116.547 983.453 117.098 984.152 117.357L998.332 122.604C1000.56 123.427 1000.56 126.573 998.332 127.396L984.152 132.643C983.453 132.902 982.902 133.453 982.643 134.152L977.396 148.332C976.573 150.556 973.427 150.556 972.604 148.332L967.357 134.152C967.098 133.453 966.547 132.902 965.848 132.643L951.668 127.396C949.444 126.573 949.444 123.427 951.668 122.604L965.848 117.357C966.547 117.098 967.098 116.547 967.357 115.848L972.604 101.668Z" fill="#E6BE51"/>
<path d="M122.604 401.668C123.427 399.444 126.573 399.444 127.396 401.668L132.643 415.848C132.902 416.547 133.453 417.098 134.152 417.357L148.332 422.604C150.556 423.427 150.556 426.573 148.332 427.396L134.152 432.643C133.453 432.902 132.902 433.453 132.643 434.152L127.396 448.332C126.573 450.556 123.427 450.556 122.604 448.332L117.357 434.152C117.098 433.453 116.547 432.902 115.848 432.643L101.668 427.396C99.4439 426.573 99.4439 423.427 101.668 422.604L115.848 417.357C116.547 417.098 117.098 416.547 117.357 415.848L122.604 401.668Z" fill="#E6BE51"/>
<path d="M973.073 401.842C973.735 400.053 976.265 400.053 976.927 401.842L982.174 416.021C982.483 416.857 983.143 417.517 983.979 417.826L998.158 423.073C999.947 423.735 999.947 426.265 998.158 426.927L983.979 432.174C983.143 432.483 982.483 433.143 982.174 433.979L976.927 448.158C976.265 449.947 973.735 449.947 973.073 448.158L967.826 433.979C967.517 433.143 966.857 432.483 966.021 432.174L951.842 426.927C950.053 426.265 950.053 423.735 951.842 423.073L966.021 417.826C966.857 417.517 967.517 416.857 967.826 416.021L973.073 401.842Z" stroke="#E6BE51"/>
<path d="M276.073 501.842C276.735 500.053 279.265 500.053 279.927 501.842L285.174 516.021C285.483 516.857 286.143 517.517 286.979 517.826L301.158 523.073C302.947 523.735 302.947 526.265 301.158 526.927L286.979 532.174C286.143 532.483 285.483 533.143 285.174 533.979L279.927 548.158C279.265 549.947 276.735 549.947 276.073 548.158L270.826 533.979C270.517 533.143 269.857 532.483 269.021 532.174L254.842 526.927C253.053 526.265 253.053 523.735 254.842 523.073L269.021 517.826C269.857 517.517 270.517 516.857 270.826 516.021L276.073 501.842Z" stroke="#E6BE51"/>
<path d="M422.604 551.668C423.427 549.444 426.573 549.444 427.396 551.668L432.643 565.848C432.902 566.547 433.453 567.098 434.152 567.357L448.332 572.604C450.556 573.427 450.556 576.573 448.332 577.396L434.152 582.643C433.453 582.902 432.902 583.453 432.643 584.152L427.396 598.332C426.573 600.556 423.427 600.556 422.604 598.332L417.357 584.152C417.098 583.453 416.547 582.902 415.848 582.643L401.668 577.396C399.444 576.573 399.444 573.427 401.668 572.604L415.848 567.357C416.547 567.098 417.098 566.547 417.357 565.848L422.604 551.668Z" fill="#E6BE51"/>
<path d="M272.604 1.66825C273.427 -0.556087 276.573 -0.556083 277.396 1.66826L282.643 15.8476C282.902 16.5469 283.453 17.0983 284.152 17.3571L298.332 22.6039C300.556 23.427 300.556 26.573 298.332 27.3961L284.152 32.6429C283.453 32.9017 282.902 33.4531 282.643 34.1524L277.396 48.3317C276.573 50.5561 273.427 50.5561 272.604 48.3317L267.357 34.1524C267.098 33.4531 266.547 32.9017 265.848 32.6429L251.668 27.3961C249.444 26.573 249.444 23.427 251.668 22.6039L265.848 17.3571C266.547 17.0983 267.098 16.5469 267.357 15.8476L272.604 1.66825Z" fill="#E6BE51"/>
<path d="M547.604 101.668C548.427 99.4439 551.573 99.4439 552.396 101.668L557.643 115.848C557.902 116.547 558.453 117.098 559.152 117.357L573.332 122.604C575.556 123.427 575.556 126.573 573.332 127.396L559.152 132.643C558.453 132.902 557.902 133.453 557.643 134.152L552.396 148.332C551.573 150.556 548.427 150.556 547.604 148.332L542.357 134.152C542.098 133.453 541.547 132.902 540.848 132.643L526.668 127.396C524.444 126.573 524.444 123.427 526.668 122.604L540.848 117.357C541.547 117.098 542.098 116.547 542.357 115.848L547.604 101.668Z" fill="#E6BE51"/>
<path d="M547.604 601.668C548.427 599.444 551.573 599.444 552.396 601.668L557.643 615.848C557.902 616.547 558.453 617.098 559.152 617.357L573.332 622.604C575.556 623.427 575.556 626.573 573.332 627.396L559.152 632.643C558.453 632.902 557.902 633.453 557.643 634.152L552.396 648.332C551.573 650.556 548.427 650.556 547.604 648.332L542.357 634.152C542.098 633.453 541.547 632.902 540.848 632.643L526.668 627.396C524.444 626.573 524.444 623.427 526.668 622.604L540.848 617.357C541.547 617.098 542.098 616.547 542.357 615.848L547.604 601.668Z" fill="#E6BE51"/>
<path d="M822.604 501.668C823.427 499.444 826.573 499.444 827.396 501.668L832.643 515.848C832.902 516.547 833.453 517.098 834.152 517.357L848.332 522.604C850.556 523.427 850.556 526.573 848.332 527.396L834.152 532.643C833.453 532.902 832.902 533.453 832.643 534.152L827.396 548.332C826.573 550.556 823.427 550.556 822.604 548.332L817.357 534.152C817.098 533.453 816.547 532.902 815.848 532.643L801.668 527.396C799.444 526.573 799.444 523.427 801.668 522.604L815.848 517.357C816.547 517.098 817.098 516.547 817.357 515.848L822.604 501.668Z" fill="#E6BE51"/>
<path d="M822.604 1.66825C823.427 -0.556087 826.573 -0.556083 827.396 1.66826L832.643 15.8476C832.902 16.5469 833.453 17.0983 834.152 17.3571L848.332 22.6039C850.556 23.427 850.556 26.573 848.332 27.3961L834.152 32.6429C833.453 32.9017 832.902 33.4531 832.643 34.1524L827.396 48.3317C826.573 50.5561 823.427 50.5561 822.604 48.3317L817.357 34.1524C817.098 33.4531 816.547 32.9017 815.848 32.6429L801.668 27.3961C799.444 26.573 799.444 23.427 801.668 22.6039L815.848 17.3571C816.547 17.0983 817.098 16.5469 817.357 15.8476L822.604 1.66825Z" fill="#E6BE51"/>
<path d="M1072.6 251.668C1073.43 249.444 1076.57 249.444 1077.4 251.668L1082.64 265.848C1082.9 266.547 1083.45 267.098 1084.15 267.357L1098.33 272.604C1100.56 273.427 1100.56 276.573 1098.33 277.396L1084.15 282.643C1083.45 282.902 1082.9 283.453 1082.64 284.152L1077.4 298.332C1076.57 300.556 1073.43 300.556 1072.6 298.332L1067.36 284.152C1067.1 283.453 1066.55 282.902 1065.85 282.643L1051.67 277.396C1049.44 276.573 1049.44 273.427 1051.67 272.604L1065.85 267.357C1066.55 267.098 1067.1 266.547 1067.36 265.848L1072.6 251.668Z" fill="#E6BE51"/>
<path d="M672.604 551.668C673.427 549.444 676.573 549.444 677.396 551.668L682.643 565.848C682.902 566.547 683.453 567.098 684.152 567.357L698.332 572.604C700.556 573.427 700.556 576.573 698.332 577.396L684.152 582.643C683.453 582.902 682.902 583.453 682.643 584.152L677.396 598.332C676.573 600.556 673.427 600.556 672.604 598.332L667.357 584.152C667.098 583.453 666.547 582.902 665.848 582.643L651.668 577.396C649.444 576.573 649.444 573.427 651.668 572.604L665.848 567.357C666.547 567.098 667.098 566.547 667.357 565.848L672.604 551.668Z" fill="#E6BE51"/>
</svg>
