<svg width="123" height="103" viewBox="0 0 123 103" fill="none" xmlns="http://www.w3.org/2000/svg">
<path d="M85.2521 1.03101L85.1664 0.538417L85.1664 0.538418L85.2521 1.03101ZM120.252 20.6599L120.723 20.4919V20.4919L120.252 20.6599ZM111.252 53.5378L111.623 53.873V53.873L111.252 53.5378ZM61.7521 101.999L61.428 102.38L61.7605 102.663L62.0857 102.371L61.7521 101.999ZM61.2531 101.574L61.5772 101.193L60.7531 100.492V101.574H61.2531ZM61.2531 101.628L60.9252 102.005L61.7531 102.724V101.628H61.2531ZM59.3342 99.9441L59.6649 99.569L59.658 99.5632L59.3342 99.9441ZM58.2521 99.0242L57.8643 99.3397L57.8933 99.3753L57.9283 99.4051L58.2521 99.0242ZM58.1457 98.8933L58.5336 98.5778L58.5078 98.5461L58.4772 98.519L58.1457 98.8933ZM11.2531 53.5378L10.882 53.873L10.882 53.873L11.2531 53.5378ZM2.25311 20.6599L1.78219 20.4919L1.78219 20.4919L2.25311 20.6599ZM37.2531 1.03101L37.3389 0.538419L37.3389 0.538418L37.2531 1.03101ZM61.2521 20.6589L60.8396 20.9415L61.2523 21.5439L61.6647 20.9414L61.2521 20.6589ZM85.2521 1.03101L85.3379 1.52359C100.617 -1.13676 114.666 6.49228 119.781 20.8279L120.252 20.6599L120.723 20.4919C115.432 5.66371 100.888 -2.19912 85.1664 0.538417L85.2521 1.03101ZM120.252 20.6599L119.781 20.8279C121.984 27.0019 121.977 32.6228 120.323 37.9245C118.666 43.2376 115.347 48.258 110.881 53.2027L111.252 53.5378L111.623 53.873C116.143 48.8685 119.562 43.7238 121.278 38.2222C122.997 32.7091 122.997 26.8657 120.723 20.4919L120.252 20.6599ZM111.252 53.5378L110.881 53.2027C91.4316 74.7384 61.5132 101.542 61.4185 101.626L61.7521 101.999L62.0857 102.371C62.1762 102.29 92.1331 75.4537 111.623 53.873L111.252 53.5378ZM61.7521 101.999L62.0762 101.618L61.5772 101.193L61.2531 101.574L60.929 101.955L61.428 102.38L61.7521 101.999ZM61.2531 101.574H60.7531V101.628H61.2531H61.7531V101.574H61.2531ZM61.2531 101.628L61.5811 101.25C61.5811 101.25 61.581 101.25 61.5809 101.25C61.5808 101.25 61.5806 101.25 61.5804 101.25C61.5799 101.249 61.5793 101.249 61.5786 101.248C61.577 101.247 61.5748 101.245 61.5719 101.242C61.5662 101.237 61.5579 101.23 61.547 101.221C61.5252 101.202 61.493 101.174 61.4508 101.137C61.3665 101.063 61.242 100.954 61.0794 100.812C60.7543 100.527 60.277 100.109 59.6648 99.569L59.3342 99.9441L59.0035 100.319C60.2297 101.4 60.9159 101.997 60.9252 102.005L61.2531 101.628ZM59.3342 99.9441L59.658 99.5632L58.576 98.6432L58.2521 99.0242L57.9283 99.4051L59.0103 100.325L59.3342 99.9441ZM58.2521 99.0242L58.64 98.7087L58.5336 98.5778L58.1457 98.8933L57.7578 99.2088L57.8643 99.3397L58.2521 99.0242ZM58.1457 98.8933L58.4772 98.519C50.2253 91.21 27.3411 70.6055 11.6242 53.2027L11.2531 53.5378L10.882 53.873C26.6404 71.3215 49.5625 91.9589 57.8142 99.2676L58.1457 98.8933ZM11.2531 53.5378L11.6242 53.2027C7.1585 48.258 3.83917 43.2376 2.1821 37.9245C0.528637 32.6229 0.521236 27.0019 2.72404 20.8279L2.25311 20.6599L1.78219 20.4919C-0.491915 26.8657 -0.491976 32.7091 1.22745 38.2222C2.94328 43.7238 6.3624 48.8685 10.882 53.873L11.2531 53.5378ZM2.25311 20.6599L2.72403 20.8279C7.83899 6.49242 21.8886 -1.13679 37.1673 1.52359L37.2531 1.03101L37.3389 0.538418C21.6169 -2.19915 7.07287 5.66387 1.78219 20.4919L2.25311 20.6599ZM37.2531 1.03101L37.1673 1.52359C42.9748 2.53492 48.8488 7.29174 53.3327 11.9099C57.7954 16.5063 60.7884 20.8668 60.8396 20.9415L61.2521 20.6589L61.6646 20.3764C61.5989 20.2804 58.5693 15.8678 54.0501 11.2133C49.5521 6.58055 43.4851 1.60875 37.3389 0.538419L37.2531 1.03101ZM61.2521 20.6589L61.6647 20.9414C61.6987 20.8918 64.6876 16.532 69.1527 11.9297C73.639 7.30556 79.5219 2.53634 85.3379 1.52359L85.2521 1.03101L85.1664 0.538418C79.0112 1.61022 72.9352 6.5948 68.435 11.2334C63.9135 15.8938 60.888 20.3057 60.8396 20.3765L61.2521 20.6589Z" fill="#E6BE51"/>
</svg>
